<svg height="512" viewBox="0 0 497 497" width="512" xmlns="http://www.w3.org/2000/svg"><path d="M314.678 471.205H182.322l10-73.725 60.892-10 51.464 10z" fill="#b5adb7"/><path d="M304.678 397.48l-14-10-16 10 10 73.724h30z" fill="#a59da7"/><path d="M497 334.201V99.586c0-12.562-10.183-22.745-22.745-22.745H22.745C10.183 76.841 0 87.024 0 99.586v234.615l245.667 12.296z" fill="#ddebfd"/><path d="M467 99.586v260.463l30-25.848V99.586c0-12.562-10.183-22.745-22.745-22.745h-30c12.562 0 22.745 10.183 22.745 22.745z" fill="#bed9fd"/><path d="M0 334.201v40.535c0 12.562 10.183 22.745 22.745 22.745h451.511c12.561 0 22.745-10.183 22.745-22.745v-40.535z" fill="#e3e0e4"/><path d="M467 334.201v40.535c0 12.561-10.183 22.745-22.745 22.745h30c12.561 0 22.745-10.183 22.745-22.745v-40.535z" fill="#d4cfd5"/><path d="M338.326 298.029H158.674c-6.737 0-12.198-5.461-12.198-12.198v-16.759c0-6.737 5.461-12.198 12.198-12.198h179.653c6.737 0 12.198 5.461 12.198 12.198v16.759c0 6.736-5.462 12.198-12.199 12.198z" fill="#bed9fd"/><path d="M376.178 18.296H120.822a7.813 7.813 0 00-7.813 7.813v179.748a7.813 7.813 0 007.813 7.813h88.63a7.93 7.93 0 016.867 3.964l19.037 45.653c2.761 4.782 9.664 4.782 12.425 0l19.037-45.653a7.928 7.928 0 016.866-3.964h102.494a7.813 7.813 0 007.813-7.813V26.108a7.812 7.812 0 00-7.813-7.812z" fill="#f8e883"/><path d="M376.178 18.296h-30a7.813 7.813 0 017.813 7.813v179.748a7.813 7.813 0 01-7.813 7.813h30a7.813 7.813 0 007.813-7.813V26.108a7.812 7.812 0 00-7.813-7.812z" fill="#f7e365"/><path d="M328.97 72.833H168.03a7.5 7.5 0 010-15h160.94a7.5 7.5 0 010 15zM328.97 120.286H168.03a7.5 7.5 0 010-15h160.94a7.5 7.5 0 010 15zM328.97 167.739H168.03a7.5 7.5 0 010-15h160.94a7.5 7.5 0 010 15z" fill="#fcf5c7"/><path d="M339.228 463.704H152.2a7.5 7.5 0 000 15h187.028a7.5 7.5 0 000-15z" fill="#a59da7"/></svg>