<svg xmlns="http://www.w3.org/2000/svg" viewBox="0 0 4173.31 4204.56"><defs><style>.cls-3,.cls-5,.cls-7,.cls-8,.cls-9{fill-rule:evenodd}.cls-3{fill:#3c3744}.cls-4{fill:none;stroke:#1b3c87;stroke-linecap:round;stroke-linejoin:round;stroke-width:17.9px}.cls-5{fill:#fb5d64}.cls-7{fill:#fff}.cls-8{fill:#46dbc9}.cls-9{fill:#1b3c87}</style></defs><g id="Layer_2" data-name="Layer 2"><g id="Layer_1-2" data-name="Layer 1"><path d="M3371.16 461.77c291.09 297.7 404.5 755.12 497.11 1223.87s164.45 949.81-35 1256c-198.47 306.21-668.17 437.58-1115.2 576.5C2271.09 3658 1846.75 3806.4 1515 3689.21c-330.75-117.21-568.91-498.06-882.68-903.49C319.5 2381.22-68.92 1953.1 10.46 1625.16c80.33-327 627.54-552.87 1060.38-826.94C1503.69 525.09 1822.18 204.71 2215.33 114c394.1-89.8 863.8 49.12 1155.83 347.77z" fill="#f0f0f0"/><path d="M1412.57 3925L684.86 317l3488.45 1173.83z" fill-rule="evenodd" fill="#d6deff"/><path class="cls-3" d="M2136.21 2822.15L2393.51 3863h212.23l-143.91-2001.7-292.19 36.35z"/><path class="cls-4" d="M2438.18 2061.33l-17.5-243.5-292.19 36.35-33.43 924.53 78.34 316.93M2232 3332.8l120.32 486.73h212.24l-81.19-1129.3"/><path class="cls-3" d="M1795.62 1850.93c1.35 54.11-14.88 2042.75-14.88 2042.75H2008c17.59-96 289.5-2018.4 289.5-2018.4s-503.23-78.47-501.88-24.35z"/><path class="cls-5" d="M2340.92 464.94c-11.55 80.84 57.65 209.1-7.27 323.31-86.59 152.34-449 55.7-485.23 38-23.84-11.69-47.91-26.82-45.91-115.68s143-214.63 151.15-315c5-61 36.06-216.62 100.66-243.72 260.02-146.28 298.14 232.24 286.6 313.09z"/><path class="cls-4" d="M1826.24 593c42.78-68.72 102.41-143.37 107.65-207.64 5-60.95 34.35-222.28 100.65-243.72M1828.65 816.13c-14.51-15.22-36.09-23.15-43.44-69.93"/><path d="M2903.87 449.79h628.59v346.09h-628.59z" fill="#eaf0ff" fill-rule="evenodd"/><path class="cls-4" d="M2246 1951.55l17.44-123.09s-503.24-78.47-501.89-24.36c.47 18.74-1.17 269.31-3.52 589M2041.55 3387.26c47.08-327.35 109.26-764.42 155.82-1092.45M1754 2932c-3.67 472.9-7.28 914.87-7.28 914.87H1974c2.4-13.12 9.56-60.36 20.12-132.14"/><path class="cls-7" d="M2665.68 1211.67c18.33 31.15 71.53 118.11 71.53 118.11s256.17-367 271.57-389.17 12.9-87 29.75-86.22 323.25-5.86 323.25 23.46-178.11 70.37-213.3 93.82-332.78 635.51-448.59 635.51-225.76-148.07-235.29-186.91 50.32-464.83 201.08-208.6z"/><path class="cls-4" d="M3123.63 816.65c94.58.72 218.69 4.83 218.69 23.49 0 29.32-178.12 70.36-213.3 93.82-16.66 11.11-92.16 154.19-179.33 301.77M2771.61 1501.63c-35.54 41.69-67.25 67.84-91.18 67.84-115.82 0-225.77-148.07-235.29-186.92s50.32-464.82 201.08-208.59c18.32 31.15 71.53 118.11 71.53 118.11s256.16-367 271.56-389.18c8.52-12.23 11.56-37.52 15.43-57.56"/><path class="cls-8" d="M2365.78 813.18c156.77-69.55 324.55 298.45 328.61 377.75-46.18 33.93-259.53 123.93-310.07 118.9-42.32-65.91-205.21-413.83-18.54-496.65z"/><path class="cls-4" d="M2335.46 785.74c156.77-69.54 324.54 298.46 328.61 377.76-46.18 33.93-259.53 123.93-310.07 118.9-42.28-65.91-205.21-413.85-18.54-496.66zM3102 422.31h396.4V768.4h-628.56V535.53M3294.07 537.87l133.7 149.63M2975.8 478.6l207 114.09M3187.62 596l302.7-164.91M2872.18 767.87l206.74-231.27M1675.43 3847.29h385.46M1669.52 3917.61H2055M2315.93 3820.47h296.88M2322.87 3885.6h296.88"/><path class="cls-8" d="M2159.91 709.1c346.14 3.22 413.85 601.67 310.11 1157.48-54.59 39.31-578.73 68.79-669.37 7.64S1690.37 704.74 2159.91 709.1z"/><path class="cls-4" d="M1941.05 1880.71c-78.58-4.37-142.64-14.51-169.27-32.48-90.63-61.15-110.29-1169.48 359.22-1165.12 186.16 1.74 291.79 175.64 333.52 422.48M2484.59 1446.57c-3.89 128.07-18.85 262.24-43.44 394-21.56 15.52-116.34 29.51-228.73 37"/><path class="cls-8" d="M1881.25 807.71c178.09 33 79.77 468.2 31.42 542.34-61.24 2.42-300.58-46.74-340.07-82.2 7.26-85.42 96.58-499.48 308.65-460.14z"/><path class="cls-4" d="M1558.74 1238.14c7.25-85.42 96.58-499.49 308.64-460.14M1966.59 1051.65c-10.49 116.49-44.79 233.42-67.79 268.68-32.13 1.27-113.3-11.66-188.9-29.36"/><path class="cls-7" d="M1615.43 1277.4c-17.9 55.18-80.75 289.92-74 357.77s306.43 531.59 352.65 567.38c19.39-33.55 66.36-117.06 66.36-117.06-25.35-37.28-177.45-469.71-176-516.68s59.4-204.08 75.8-230.92"/><path class="cls-4" d="M1771.89 1607c-8.36-29.82-13.27-51.46-13-60.1 1.49-47 59.39-204.08 75.79-230.92M1557.41 1372.73c-22.38 88.63-45.8 197.76-41.57 240.54 6.71 67.85 306.43 531.59 352.65 567.38 19.39-33.55 66.36-117.06 66.36-117.06-13.84-20.35-65.46-158.49-109.24-287.37"/><path class="cls-7" d="M1773.08 3951.54l-6.57 147.4-28.17 103.27 361.94 2.35-108.91-176 1.41-78.39"/><path class="cls-4" d="M1856.33 4172.23l217.44 1.41-108.9-176 1.4-78.39M1746.58 3920.61L1740 4068l-28.17 103.27"/><path class="cls-7" d="M2397.77 3906.39l17.75 73.63-29.59 211 487.16-3.94-272.83-182.77-5.26-99.27"/><path class="cls-4" d="M2573.75 3986.68l-5.26-99.27M2371.26 3888.72l17.75 73.63-29.58 211 487.16-3.94-186.07-124.61"/><path class="cls-5" d="M3415.54 436.18a107.11 107.11 0 11107.1 107.1 107.1 107.1 0 01-107.1-107.1z"/><path class="cls-4" d="M3608.57 449.57a107.12 107.12 0 11-102.78-137.34"/><path class="cls-7" d="M1979.39 371.91c-6.8-141.23 74.34-259.9 181.24-265S2359.71 212 2366.51 353.27s-74.35 259.91-181.24 265.05-199.08-105.17-205.88-246.41z"/><path class="cls-7" d="M2004.58 464.42c6.76 33.61 33.68 219 31.68 327 32.22 28.27 155.94 24.37 177.23-3.39-4.69-44-8.78-152.41 1.66-181.19"/><path class="cls-4" d="M2195.45 765.35c-4.69-44-12.93-137.18-2.49-166M2007.45 593.28c6.52 60 11.69 125.87 10.78 175.46 17.35 15.23 61.27 21.13 101.42 19M1986.54 441.72c1.69 8.41 4.64 26.33 8.09 50.16"/><path class="cls-4" d="M2339.85 439.32c-25.64 91.44-90.7 157.55-169.89 161.36-31.62 1.53-61.95-7-89.16-23.54M2331 236.36a322 322 0 0117.3 68.52"/><path class="cls-9" d="M2134.09 335c-.74-15.48 5.88-28.38 14.79-28.81s16.75 11.78 17.49 27.25-5.87 28.38-14.79 28.81-16.74-11.78-17.49-27.25zM2419.75 290.67c0-.1.16-.19.37-.2s.39.06.39.17-.16.19-.37.2-.38-.06-.39-.17z"/><path class="cls-4" d="M2227 343.37c2.29 23.78 16 64.83 51.1 76.79M2144.34 469.07c-.08 14 11.53 34.71 30.59 36.82M2328.79 471.37c-8.95 43.9 18.93 155.73 14.3 207.33s-33.19 74.47-33.19 74.47"/><path class="cls-5" d="M1952.14 87.81a66.4 66.4 0 1169.51 63.12 66.39 66.39 0 01-69.51-63.12z"/><path class="cls-4" d="M1954.39 116.9a66.39 66.39 0 11111.7-12.9"/><path class="cls-5" d="M2162 101.45c-106.9 5.15-188 123.82-181.24 265.06a334.78 334.78 0 007 53.94c34.72-52.16 80.78-106.81 111.58-137.43C2169 280.16 2266 258.37 2342 235.14c-35.74-82.59-104.06-137.34-180-133.69z"/><path class="cls-4" d="M1970.91 267.37a335.18 335.18 0 00.7 137.06c34.73-52.17 80.79-106.82 111.58-137.43 40.07-1.65 89.24-9.57 138.26-20.43M1976 246.18q-3.74 12.48-6.46 25.59M2324.45 223.52c-35.75-82.59-104.07-137.34-180-133.69-77.74 3.75-141.86 67.52-168.44 156.35"/><path class="cls-7" d="M2021.94 431.91a48.36 48.36 0 111.46-75.23"/><path class="cls-4" d="M2010 422.7a48.36 48.36 0 111.46-75.23"/></g></g></svg>