<svg xmlns="http://www.w3.org/2000/svg" viewBox="0 0 788.89 790.5"><defs><style>.cls-2{fill:#d7e0ff}.cls-3{fill:#eaf0ff}.cls-4{fill:#fb5d64}.cls-5{fill:#fff}.cls-13,.cls-15,.cls-6,.cls-7{fill:none;stroke-linecap:round;stroke-linejoin:round}.cls-6{stroke:#b2c3fb;stroke-width:3px}.cls-13,.cls-7{stroke:#1b3c87}.cls-15,.cls-7{stroke-width:3.69px}.cls-9{fill:#46dbc9}.cls-10{fill:#3c3744}.cls-11{fill:#8088dc}.cls-13{stroke-width:3.14px}.cls-15{stroke:#eaf0ff}</style></defs><g id="Layer_2" data-name="Layer 2"><g id="Layer_1-2" data-name="Layer 1"><path d="M613.77 177.9C693 247.24 779.71 319.11 788.16 399.22c8.67 80.32-61.3 168.89-140.56 218.57s-167.84 60.45-274.38 78C266.9 713.54 142.82 738.27 71 688.6s-91.53-173.76-46.72-253 154.26-113.53 226.13-183.08c71.87-69.33 106.11-173.75 159.17-192.36 53.06-18.81 124.93 48.41 204.19 117.74" fill="#f2f2f2"/><path class="cls-2" d="M483.88 31.63H724.6v182.26H483.88z"/><path class="cls-3" d="M613.84 65.9h70.49v126.38h-70.49z"/><path class="cls-4" d="M590.63 93.7a29.07 29.07 0 11-29.06-29.06 29.06 29.06 0 0129.06 29.06"/><path class="cls-5" d="M727.51 404a71.11 71.11 0 11-71.11-71.11A71.11 71.11 0 01727.51 404"/><path class="cls-6" d="M619.19 271.93h152.37V424.3H619.19z"/><path class="cls-7" d="M369.36 788.66h378.08M1.85 788.66h278.59"/><path d="M436.62 274.66l-1.55 7.46-10.4 3.24s-5.15-16.06-5.86-19.69c-5 3.73-33.82 11.81-38.79 12.53-.69-3.87-.69-37.41 27.27-37.41 24.63 0 35.67 24.67 36.32 27.56-1.44.84-7 2.9-7 6.31" fill="#eecb55"/><path class="cls-9" d="M443.53 339.23c-6.25 0-51.61 45.77-53.47 55.35l-14.61 75.59L451.12 449l4.44-96.28-10.78-13.52z"/><path class="cls-5" d="M350.06 472.13c-.13-5.27 43.31-142.41 48.21-147.07a16.27 16.27 0 0112.37-4.8c2.16.1 12.54 5 14.73 10.17-3.74 8.86-12.75 13.78-12.75 13.78l-17.53 108.32z"/><path class="cls-10" d="M403 554.37l62.78 77.71-30.45 30.61-92.16-80.57 21.8-30z"/><path class="cls-10" d="M386.46 693.47c-8.46-7.69-107.71-131.32-107.71-146.62 0-34.11 38.7-46.2 49.26-48.86 14.55-1.32 79.09-6.72 89.24-6.3 7.32 7.93 92.32 26.23 104.64 24.65 0 6.17-9.8 49.31-79.32 49.31-7.28 0-62.09-2.19-63.11-2.19 0 12.83 35.13 96.34 38.48 102"/><path class="cls-9" d="M476.4 316.87c56.27 0 68.45 101.51 68.45 130.32 0 36.73-14.9 66.08-22 68.83-20.11 7.73-93.93-17.59-98.61-29.58-22.82-58.4 14.74-169.57 52.2-169.57"/><path class="cls-7" d="M428.36 247.38a51.18 51.18 0 0111.38 14.81q.74 1.44 1.38 2.88M381.82 292c-10.51-20.42-6.06-43.64 9.94-51.87a27.17 27.17 0 0116.86-2.53M437.37 308.18a26.32 26.32 0 01-7.57 5.88c-10.92 5.62-24.4 2.8-35.19-6.05"/><path class="cls-7" d="M433.05 271.08a9.59 9.59 0 118.95 13.13 9.43 9.43 0 01-4.17-1M441.15 341.18c-1.41-5.05-6.48-20.61-12.81-26.43M446.2 286.61c1.95 6.56 19.58 30.21 23.92 33.49-.26 2.85-5.87 8.36-12.18 13M423.67 281l7.83-2.43 1.55-7.47M402.61 267.32c5.82-1.94 10.79-3.87 12.63-5.23.51 2.64 3.38 11.86 4.9 16.68M376.44 274.62c1.92-.28 7.37-1.65 13.64-3.44M433.75 492.2c-7.9-3.94-13.39-7.77-14.56-10.77-7-18-8.33-41.05-5.65-64.3M532.05 384.27c5.86 23.5 7.79 46.45 7.79 57.91 0 36.74-14.9 66.09-22 68.83-9.43 3.63-30.65 0-51-6.14"/><path class="cls-7" d="M463.92 313.3a21 21 0 017.48-1.44c14.83 0 26.6 7.06 35.89 18M424.76 368.59a163.24 163.24 0 0115-31.9M389.77 327.49c1.66-4.2 2.88-6.85 3.49-7.44a16.27 16.27 0 0112.37-4.8c2.16.1 12.54 5 14.73 10.17M357.3 424.3c7.37-23.56 16.73-52.37 24.11-73.75M345.05 466.41c0-1 1.47-6.53 3.94-14.92M407.31 324.3c2.14.34 7.31 3.49 10 6.64M401.32 331.89c2.13.34 7.31 3.49 10 6.64M390.09 446.94c.17-4.8 12-87.58 17.23-103.85M415.5 353.12c7.28-7.79 16.1-16.16 23.18-19.55M185.91 395l46 74.76M516.88 511.33c0 6.17-9.79 49.31-79.32 49.31-7.28 0-62.09-2.19-63.11-2.19 0 12.83 35.13 96.34 38.48 102M323 493c-10.21 3.82-49.27 14.75-49.27 48.86 0 15.3 99.23 138.93 107.71 146.62M376.49 694L422 665M381.45 702l46.93-28.43M400.22 631.33l29.16 26.35M417.33 573.17l43.4 53.91M465.76 623.21l-38.35 37.27M470.6 630.4l-38.35 37.27M165.11 755.52v33.14M165.11 493v201M318.15 493v295.66"/><path class="cls-9" d="M496.12 341.43c26.79 9.32 13.15 66.7 5.61 68.64s-53-16.05-54.42-20.89 17.52-58.65 48.81-47.75"/><path class="cls-7" d="M462.11 344.88c7.75-7.77 17.55-12.45 29-8.46 26.79 9.32 13.15 66.7 5.6 68.64s-53-16.05-54.42-20.89c-.34-1.14.45-5 2.28-10.12"/><path class="cls-5" d="M450.44 392c-2.18 3.2-14.25 42.23-14.25 42.23S350.92 471 346.67 472.9c-1.55-2.12-6.65-6-17-6-18.95 0-22.23 12.57-22.23 15.27s28.81 8.7 36.54 8.51 115.82-16.63 119.68-18.56 29.73-63 29.73-63c-7-.37-39.27-10.36-42.93-17.11"/><path class="cls-7" d="M396.68 477.6c-27.28 4.17-54 8-57.73 8.08-7.73.2-36.54-5.8-36.54-8.51s3.28-15.27 22.23-15.27c10.37 0 15.47 3.87 17 6 4.25-1.93 89.52-38.67 89.52-38.67s12.07-39 14.25-42.23M488.36 404.1s-25.86 61.09-29.73 63c-1.1.55-10.63 2.28-23.88 4.46"/><path class="cls-11" d="M413.83 562.86h165.03v15.31H413.83z"/><path class="cls-7" d="M512.09 573.17H408.81v-15.31h165v15.31h-29"/><path class="cls-11" d="M120.38 484.67h251.09v12.6H120.38z"/><path class="cls-7" d="M185.91 480.38h181.27V493H116.09v-12.6h38.64"/><path class="cls-4" d="M236.22 474.07h88.43v10.6h-88.43z"/><path class="cls-7" d="M231.93 469.78h88.43v10.6h-88.43z"/><path class="cls-5" d="M390.07 704.83l29 31.71-15.86 44 48.65-37.83-28.2-58.17"/><path class="cls-7" d="M435.52 714.32l-16.89-34.82M385.07 699.82l29 31.71-15.85 44 48.64-37.83-4.96-10.2"/><path class="cls-5" d="M469.53 641.31l16.15 27.42 11.15 5.8-21.22 49.28-4.84-31-28-25.53"/><path class="cls-7" d="M445 668.8l-7.15-6.53M464.52 636.31l16.15 27.41 11.15 5.81-21.22 49.28-4.84-31-6-5.48M451.43 573.17v214M531.24 654.85V787.2M531.24 573.17v45.08"/><path d="M403.21 278.51c.49 1.7 1.63 2.86 2.55 2.59s1.28-1.85.79-3.54-1.62-2.86-2.55-2.56-1.27 1.85-.79 3.54" fill="#1b3c87"/><path class="cls-13" d="M392.11 297.2a8.15 8.15 0 01-.58 1.83M391.05 287.29a22.15 22.15 0 011.3 6.87M418.41 296.24c.29 2.24-1.28 5.72-4.31 7.75"/><path class="cls-2" d="M20.98 254.42h263.43v79.48H20.98z"/><path d="M261.75 293.76a23.2 23.2 0 11-23.2-23.19 23.2 23.2 0 0123.2 23.19" fill="#b2c3fb"/><path class="cls-15" d="M194.73 280.31H63.79M194.73 307.22h-69.38"/><path class="cls-3" d="M217.9 0h156.56v198.66H217.9z"/><path class="cls-6" d="M278.75 71.23l45.9 107.89L421 112.23z"/><path class="cls-3" d="M52 99.87h90.15v37.65H52zM10.05 146.41h90.15v37.65H10.05z"/></g></g></svg>