<svg xmlns="http://www.w3.org/2000/svg" viewBox="0 0 4898.94 5054.29"><defs><style>.cls-3,.cls-5{fill-rule:evenodd}.cls-3{fill:#fff}.cls-4,.cls-6{fill:none;stroke-linecap:round;stroke-linejoin:round;stroke-width:17.9px}.cls-4{stroke:#1b3c87}.cls-5{fill:#46dbc9}.cls-6{stroke:#b6c6fc}</style></defs><g id="Layer_2" data-name="Layer 2"><g id="Layer_1-2" data-name="Layer 1"><g id="Vector"><path d="M3779.77 3579.37c0-309 250.53-559.59 559.58-559.59s559.59 250.54 559.59 559.59S4648.4 4139 4339.35 4139s-559.58-250.59-559.58-559.63z" fill-rule="evenodd" fill="#f3f6ff"/><path d="M699 2384.79c0-774.85 628.14-1403 1403-1403s1403 628.13 1403 1403-628.14 1403-1403 1403-1403-628.15-1403-1403z" fill="#eaf0ff" fill-rule="evenodd"/><path class="cls-3" d="M792.09 2876.26c39.48-36.45 178-163.59 206.67-176.55s361.16 357.95 328.32 384.49-206.64 186.6-272 227.3c-130.56-142.1-221.34-305.29-262.99-435.24z"/><path class="cls-4" d="M778.8 2844c39.48-36.45 173.1-159.7 201.81-172.66s363.59 385.4 330.75 411.93-207.14 196.66-258.65 229.28"/><path class="cls-5" d="M1653.4 2457.3c190.52 289.76-277.38 653.4-349 674.29s-380-401.59-357.67-457.23 476.6-566.97 706.67-217.06z"/><path class="cls-4" d="M1165.1 2402.47c151.27-104.94 339.54-165.49 463.12 22.46 190.52 289.76-277.38 653.4-349 674.29s-380-401.64-357.66-457.23c4.33-10.76 24.85-38.63 56.81-74"/><path class="cls-5" d="M2036.2 2211.54c-214.59-1.29-425.74 40-529.81 120.85-169 131.32-281.4 943.08-232.93 1184.65 232.16 170.17 518.55 270.72 828.46 270.72 244.65 0 474.63-62.7 674.88-172.78 35.45-301.63-51.93-1163.91-190.13-1268.81-117.83-89.45-335.87-133.34-550.47-134.63z"/><path class="cls-4" d="M1315.32 2678.38c40.66-178.5 95.1-327.36 159.6-377.46 208.14-161.7 844.6-165.14 1080.27 13.76 146.61 111.32 242.54 1076.83 182.34 1317.65M1242.7 3489.56c-9.73-61.46-10.34-161.13-3-277.54"/><path class="cls-6" d="M284 9l641 242-275.09 728.48L9 737.49zM3158.49 3807l136.17 1238.31 876.61-1493.63z"/><path class="cls-6" d="M264.83 1038.9c0-208 168.61-376.6 376.6-376.6S1018 830.91 1018 1038.9s-168.61 376.6-376.6 376.6-376.57-168.61-376.57-376.6z"/><path class="cls-3" d="M2938 3524c-29.9-29.9-236-311-259.22-337.46s417.42-391.85 444.52-359.9 135.75 184 186.41 267.6C3269 3167.61 3043.89 3451.73 2938 3524z"/><path class="cls-4" d="M2948 3501.73c-25-34.09-248.37-341.81-271.6-368.28s417.43-391.85 444.53-359.9 156.89 209.58 201.59 296.5"/><path class="cls-5" d="M2464.49 2303c222.51-152.68 759.56 371.69 758.22 528s-478.84 440.34-558.38 399.32c-87.67-45.17-541.27-693.18-199.84-927.32z"/><path class="cls-4" d="M2330.41 2644.24c-30-145.34-10.74-284.76 113.13-369.71 222.55-152.64 759.56 371.72 758.21 528.07s-478.83 440.33-558.38 399.32c-25.45-13.13-81.75-77.06-140.48-166.93"/><path class="cls-4" d="M699 2384.79c0-774.85 628.14-1403 1403-1403s1403 628.13 1403 1403-628.14 1403-1403 1403-1403-628.15-1403-1403z"/><path class="cls-3" d="M3308 2618.3c1.38-40.31 79.93-56.66 175.45-36.53s171.84 69.12 170.47 109.42-79.94 56.65-175.46 36.52-171.87-69.11-170.46-109.41zM3336.33 2464.11c1.38-40.3 79.93-56.66 175.45-36.53s171.85 69.12 170.47 109.42-79.94 56.66-175.46 36.53-171.79-69.12-170.46-109.42zM3332.67 2304.76c1.38-40.3 79.93-56.65 175.46-36.53s171.84 69.12 170.46 109.42-79.94 56.66-175.46 36.53-171.84-69.12-170.46-109.42z"/><path class="cls-4" d="M3371.93 2246.28c31.39-5.8 73.41-4.56 119.36 5.12 95.52 20.13 171.84 69.12 170.46 109.42-.93 27.21-37.05 43.51-89.83 45M3348.39 2413.55c31.48-13.63 85.56-15.66 146.56-2.8 95.52 20.13 171.84 69.12 170.46 109.42-1 29.38-43 46-102.77 45.1M3368 2557.13c28.16-2.24 62.13.13 98.58 7.81 95.52 20.13 171.84 69.11 170.46 109.42-.86 25.18-31.87 41-78.33 44.44"/><path class="cls-3" d="M516.9 2363.26c1.38-40.3 79.94-56.65 175.46-36.52s171.84 69.11 170.46 109.42-79.93 56.65-175.46 36.52-171.84-69.12-170.46-109.42zM545.26 2209.07c1.38-40.3 79.94-56.65 175.46-36.52s171.84 69.12 170.46 109.45-79.93 56.65-175.45 36.52-171.85-69.14-170.47-109.45zM541.6 2049.72c1.38-40.3 79.94-56.65 175.46-36.52s171.84 69.12 170.46 109.42-79.93 56.65-175.45 36.52S540.23 2090 541.6 2049.72z"/><path class="cls-4" d="M561.37 2087.83c-29.4-19.4-47.13-41.08-46.46-60.69 1.38-40.3 79.94-56.65 175.46-36.52 42.79 9 81.72 23.82 111.55 41M601.81 2267.43c-50.66-23.45-84.16-54.12-83.24-80.94 1.38-40.3 79.94-56.65 175.46-36.53 39.8 8.39 76.27 21.79 105.17 37.48M628.39 2442c-79.85-23.26-139.4-65.69-138.18-101.33 1.38-40.3 79.94-56.66 175.46-36.53 55.87 11.78 105.18 33.42 136.2 57.43"/><path class="cls-3" d="M2250.88 1903.25c-9.09 51.74-51 260.07-18.88 485.89-37.05 28-253.08 48.23-312.5 0 2.1-91.59 4.19-274.76-4.19-321.6s344.69-216.02 335.57-164.29z"/><path class="cls-4" d="M1895.24 2359.1c2.09-91.59 4.19-274.76-4.2-321.6s344.66-216 335.58-164.29-51 260.07-18.88 485.89c-16.77 12.65-70.2 23.73-129.19 27.6"/><path class="cls-3" d="M1545.41 1603.47c20.56-252.22 209.85-442.89 422.78-425.88s368.89 235.26 348.32 487.48S2106.66 2108 1893.73 2091s-368.89-235.31-348.32-487.53z"/><path class="cls-4" d="M2097.32 2004.47c-65.84 44.91-142.86 68.08-223.24 61.66-99.16-7.92-186-59.49-248.34-137.8M1543 1764.05c-16.1-57.63-22.53-120.39-17.23-185.4 20.56-252.22 209.85-442.89 422.79-425.88s368.88 235.26 348.32 487.48c-6.2 76-27.71 146.4-60.58 207.22"/><path d="M1919.75 1511.35c2.94-27.26 15.33-48.28 27.67-46.95s19.95 24.52 17 51.77-15.34 48.28-27.67 46.94-19.95-24.51-17-51.76z" fill="#1b3c87" fill-rule="evenodd"/><path class="cls-4" d="M1750.08 1534.19c-9.79 42.2-36.92 90.42-69.32 116M1829.2 1796.78a44.83 44.83 0 1144.83 44.83 44.84 44.84 0 01-44.83-44.83z"/><path d="M2204.1 1672.26c-27.07-1.93-104.77-112.79-25.06-189-39.11-38.1-269.18-210.31-545.59-103.51-35.91-36.52-133.93-183.36-49.32-246.67s119.95 13.25 130.91 43.68c-25.56-80.34-11.17-296.44 204-298.83s446.51 626.29 437.16 739.11-9.82 128.06-152.1 55.22z" fill="#fb5d64" fill-rule="evenodd"/><path class="cls-4" d="M2194.76 1170.29c81.4 168.73 135.11 349.25 130.51 404.78-9.36 112.82-9.82 128.06-152.1 55.22-27.06-1.93-104.77-112.79-25.06-189-30.94-30.15-181.48-144.29-379.92-137.68M1602.52 1337.79c-35.91-36.52-133.93-183.36-49.32-246.67s120 13.24 130.91 43.68c-25.56-80.35-11.16-296.44 204-298.84 54-.6 109.07 38.59 161.07 99.4"/><path class="cls-3" d="M2142.63 1725.82a98.57 98.57 0 1198.57 98.57 98.57 98.57 0 01-98.57-98.57z"/><path class="cls-4" d="M2191.07 1622.92a98.57 98.57 0 11-5.4 176.41"/></g></g></g></svg>