<svg id="Capa_1" enable-background="new 0 0 512 512" height="512" viewBox="0 0 512 512" width="512" xmlns="http://www.w3.org/2000/svg"><g><g><path clip-rule="evenodd" d="m254.947 466.026c-8.64 5.349-20.084 2.689-25.43-5.956l-24.043-38.741-33.608-8.876-3.323 31.369 24.216 39.059c17.888 28.824 56.206 37.787 84.988 19.92l82.908-51.462c28.782-17.867 37.74-56.232 19.882-85.028l-23.205-37.44-28.262-2.718-8.698 25.21 23.407 37.758c5.375 8.644 2.687 20.093-5.953 25.442z" fill="#ebeaf3" fill-rule="evenodd"/></g><g><path clip-rule="evenodd" d="m349.038 432.604-82.908 51.491c-28.782 17.867-67.101 8.876-84.959-19.92l11.588 18.705c17.888 28.824 56.206 37.787 84.988 19.92l82.908-51.462c28.782-17.867 37.74-56.232 19.882-85.028l-11.559-18.619c17.8 28.797 8.813 67.075-19.94 84.913z" fill="#d8d2db" fill-rule="evenodd"/></g><g><path clip-rule="evenodd" d="m90.056 491.583-19.737-51.086-52.681-21.365-1.821 2.949c-14.391 23.707-19.593 51.693 0 71.295 19.622 19.631 47.624 14.427 71.291 0z" fill="#ebeaf3" fill-rule="evenodd"/></g><g><path clip-rule="evenodd" d="m438.765 279.318-82.387-118.564-126.572-90.492-212.168 348.87 72.418 72.451 45.716-27.841 34.013-20.701 106.575-64.876 34.619-21.047z" fill="#fee45a" fill-rule="evenodd"/></g><g><path clip-rule="evenodd" d="m474.859 243.179-208.931-209.056c-9.941-9.916-26.181-9.916-36.122 0-9.912 9.945-9.912 26.193 0 36.139l208.96 209.056c9.912 9.917 26.181 9.917 36.093 0 9.94-9.946 9.94-26.194 0-36.139z" fill="#fe636e" fill-rule="evenodd"/></g><g><path clip-rule="evenodd" d="m438.765 279.318-208.959-209.056-21.702 35.705 142.205 142.243c25.286 25.326-6.82 38.799-36.96 57.128l-250.341 159.184 27.048 27.061 45.716-27.841 34.013-20.7c89.67-54.585 179.311-109.169 268.98-163.724z" fill="#fac600" fill-rule="evenodd"/></g><g><path clip-rule="evenodd" d="m90.056 491.583-27.048-27.061-2.976 1.792c-17.57 10.697-37.538 16.335-54.675 10.495 2.023 5.927 5.433 11.536 10.461 16.566 19.622 19.631 47.624 14.427 71.291 0z" fill="#d8d2db" fill-rule="evenodd"/></g><g><path clip-rule="evenodd" d="m474.859 243.179-31.961-31.976c9.883 9.917 9.883 26.165-.029 36.081-5.808 5.811-13.755 8.211-21.327 7.257-5.404-.694-10.634-3.093-14.767-7.228l31.99 32.005c9.912 9.917 26.181 9.917 36.093 0 9.941-9.946 9.941-26.194.001-36.139z" fill="#fb2a39" fill-rule="evenodd"/></g><g><path d="m408.885 107.767c-1.948 0-3.895-.742-5.382-2.228-2.974-2.971-2.976-7.791-.003-10.764l38.897-38.914c2.971-2.975 7.791-2.975 10.766-.003 2.974 2.971 2.976 7.791.003 10.764l-38.897 38.914c-1.486 1.488-3.435 2.231-5.384 2.231z" fill="#acacc0"/></g><g><path d="m370.709 69.547c-4.166 0-7.566-3.355-7.611-7.53l-.578-54.324c-.045-4.204 3.328-7.647 7.532-7.693h.083c4.166 0 7.566 3.355 7.611 7.53l.578 54.324c.045 4.204-3.328 7.647-7.532 7.693-.028 0-.056 0-.083 0z" fill="#acacc0"/></g><g><path d="m501.389 146.537c-.028 0-.056 0-.083 0l-54.299-.578c-4.204-.046-7.576-3.489-7.532-7.693.045-4.175 3.445-7.53 7.611-7.53h.083l54.299.578c4.204.046 7.576 3.489 7.532 7.693-.045 4.175-3.445 7.53-7.611 7.53z" fill="#acacc0"/></g></g></svg>