<?xml version="1.0" encoding="iso-8859-1"?>
<!-- Generator: Adobe Illustrator 19.0.0, SVG Export Plug-In . SVG Version: 6.00 Build 0)  -->
<svg version="1.1" id="Layer_1" xmlns="http://www.w3.org/2000/svg" xmlns:xlink="http://www.w3.org/1999/xlink" x="0px" y="0px"
	 viewBox="0 0 512 512" style="enable-background:new 0 0 512 512;" xml:space="preserve">
<path style="fill:#8FCC05;" d="M219.726,443.816c27.017,15.598,27.15,40.884,0.309,56.483s-70.496,15.603-97.513,0.005
	c-27.017-15.598-27.159-40.89-0.318-56.488S192.71,428.218,219.726,443.816z"/>
<g>
	<path style="fill:#D8D8DA;" d="M199.299,16.771c0.178-4.325-2.587-8.687-8.305-11.988c-11.046-6.377-28.896-6.377-39.871,0
		c-5.469,3.179-8.196,7.34-8.191,11.506c0-0.014-0.002-0.027-0.002-0.04v463.247c-0.011,4.207,2.075,8.419,7.633,11.628
		c11.046,6.377,28.893,6.375,39.867-0.002c5.452-3.169,8.871-7.315,8.883-11.468V16.408
		C199.314,16.528,199.303,16.65,199.299,16.771z"/>
	<path style="fill:#D8D8DA;" d="M199.314,16.408v463.246c-0.011,4.152-3.43,8.3-8.883,11.468
		c-10.973,6.377-28.821,6.379-39.867,0.002c-5.558-3.209-7.645-7.422-7.633-11.628V16.25c-0.011,4.206,2.764,8.419,8.323,11.628
		c11.046,6.377,28.893,6.375,39.867-0.002C196.572,24.707,199.303,20.561,199.314,16.408z"/>
</g>
<path style="fill:#C6C5CB;" d="M191.12,27.876c5.452-3.168,8.183-7.315,8.194-11.468v463.246c-0.012,4.152-3.43,8.3-8.883,11.468
	L191.12,27.876z"/>
<path style="fill:#E0E0E2;" d="M190.994,4.783c11.046,6.377,11.1,16.715,0.126,23.092c-10.973,6.377-28.821,6.379-39.867,0.002
	s-11.104-16.717-0.13-23.094C162.096-1.594,179.948-1.594,190.994,4.783z"/>
<polygon style="fill:#005ECF;" points="409.833,164.405 194.159,39.886 164.701,57.004 164.242,219.25 379.916,343.771 
	409.374,326.652 357.235,215.289 "/>
<polygon style="fill:#2487FF;" points="327.777,232.408 357.235,215.289 409.374,326.652 379.916,343.771 "/>
<polygon style="fill:#005ECF;" points="380.377,181.525 409.833,164.405 357.235,215.289 327.777,232.408 "/>
<polygon style="fill:#2487FF;" points="164.701,57.004 194.159,39.886 409.833,164.405 380.377,181.525 "/>
<polygon style="fill:#016EF1;" points="380.377,181.525 327.777,232.408 379.916,343.771 164.242,219.25 164.701,57.004 "/>
<g>
</g>
<g>
</g>
<g>
</g>
<g>
</g>
<g>
</g>
<g>
</g>
<g>
</g>
<g>
</g>
<g>
</g>
<g>
</g>
<g>
</g>
<g>
</g>
<g>
</g>
<g>
</g>
<g>
</g>
</svg>
