<?xml version="1.0" encoding="iso-8859-1"?>
<!-- Generator: Adobe Illustrator 19.0.0, SVG Export Plug-In . SVG Version: 6.00 Build 0)  -->
<svg version="1.1" id="Capa_1" xmlns="http://www.w3.org/2000/svg" xmlns:xlink="http://www.w3.org/1999/xlink" x="0px" y="0px"
	 viewBox="0 0 512 512" style="enable-background:new 0 0 512 512;" xml:space="preserve">
<path style="fill:#E1E6E9;" d="M284.728,498.531l-22.88,12.026c-3.661,1.924-8.035,1.924-11.696,0l-22.88-12.026
	C101.637,432.497,24.273,310.645,24.273,178.797V98.26c0-6.369,4.754-11.814,11.087-12.482
	c43.305-4.569,77.734-35.571,83.221-74.779C119.46,4.726,124.717,0,131.052,0h249.897c6.334,0,11.592,4.726,12.47,10.999
	c5.487,39.208,39.916,70.21,83.221,74.779c6.334,0.668,11.087,6.114,11.087,12.482v80.536
	C487.727,310.645,410.363,432.497,284.728,498.531z"/>
<path style="fill:#CBCBCB;" d="M476.639,85.778c-43.305-4.569-77.734-35.571-83.221-74.779C392.54,4.726,387.283,0,380.948,0
	h-17.013c2.451,54.359,41.186,92.912,83.096,97.333c6.334,0.668,11.087,6.113,11.087,12.482v80.536
	c0,131.848-77.364,253.701-202.998,319.734l-2.642,1.388c3.097,0.905,6.456,0.613,9.369-0.918l22.88-12.026
	c125.634-66.034,202.998-187.886,202.998-319.734V98.26C487.726,91.891,482.973,86.446,476.639,85.778z"/>
<path style="fill:#4AD194;" d="M247.521,466.238c-56.97-29.943-104.358-72.979-137.039-124.454
	C78.187,290.917,61.116,233.11,61.116,174.613V128.9c0-6.615,4.017-12.586,10.168-15.02c33.882-13.407,61.223-38.573,76.176-70.011
	c2.664-5.602,8.359-9.129,14.563-9.129h187.954c6.203,0,11.898,3.527,14.562,9.129c14.954,31.438,42.294,56.605,76.176,70.012
	c6.151,2.434,10.168,8.405,10.168,15.02v45.713c0,58.497-17.07,116.304-49.365,167.171
	c-32.681,51.475-80.069,94.511-137.038,124.454l-0.948,0.498c-4.715,2.478-10.348,2.478-15.063,0L247.521,466.238z"/>
<path style="fill:#35B79E;" d="M440.715,113.88c-0.265-0.105-0.527-0.217-0.791-0.324c-0.44-0.177-0.878-0.357-1.316-0.538
	c-0.748-0.309-1.492-0.625-2.234-0.945c-0.428-0.185-0.857-0.37-1.283-0.559c-0.792-0.352-1.578-0.712-2.362-1.077
	c-0.355-0.165-0.713-0.326-1.066-0.494c-1.128-0.535-2.249-1.082-3.36-1.644c-0.084-0.042-0.166-0.087-0.249-0.13
	c-1.029-0.523-2.049-1.058-3.063-1.603c-0.359-0.194-0.715-0.393-1.072-0.589c-0.737-0.404-1.471-0.812-2.199-1.229
	c-0.404-0.231-0.805-0.465-1.206-0.699c-0.687-0.401-1.371-0.808-2.051-1.22c-0.395-0.239-0.789-0.479-1.182-0.722
	c-0.711-0.44-1.415-0.888-2.117-1.339c-0.342-0.22-0.686-0.437-1.026-0.659c-0.959-0.628-1.91-1.266-2.852-1.915
	c-0.07-0.048-0.142-0.095-0.212-0.143c-1.011-0.7-2.011-1.413-3.002-2.137c-0.309-0.226-0.614-0.457-0.921-0.685
	c-0.681-0.505-1.359-1.014-2.03-1.53c-0.36-0.277-0.717-0.558-1.074-0.838c-0.62-0.487-1.236-0.978-1.848-1.474
	c-0.356-0.289-0.711-0.578-1.064-0.87c-0.626-0.518-1.246-1.043-1.862-1.571c-0.316-0.271-0.635-0.54-0.949-0.814
	c-0.762-0.664-1.515-1.338-2.261-2.017c-0.154-0.141-0.312-0.278-0.466-0.419c-0.895-0.822-1.777-1.655-2.649-2.499
	c-0.251-0.243-0.497-0.491-0.746-0.736c-0.62-0.608-1.236-1.219-1.844-1.838c-0.31-0.316-0.616-0.635-0.923-0.954
	c-0.544-0.564-1.084-1.132-1.618-1.705c-0.312-0.335-0.623-0.671-0.932-1.009c-0.534-0.585-1.062-1.175-1.586-1.768
	c-0.284-0.321-0.569-0.641-0.85-0.964c-0.614-0.708-1.218-1.424-1.817-2.144c-0.174-0.209-0.352-0.415-0.525-0.625
	c-0.766-0.932-1.52-1.875-2.26-2.826c-0.19-0.243-0.373-0.491-0.561-0.736c-0.548-0.714-1.092-1.431-1.625-2.155
	c-0.256-0.347-0.507-0.698-0.759-1.047c-0.459-0.636-0.914-1.275-1.363-1.918c-0.261-0.375-0.52-0.751-0.777-1.128
	c-0.44-0.646-0.874-1.297-1.302-1.95c-0.238-0.363-0.478-0.725-0.713-1.09c-0.477-0.743-0.944-1.492-1.407-2.244
	c-0.17-0.276-0.345-0.55-0.513-0.827c-0.622-1.028-1.231-2.065-1.826-3.109c-0.125-0.221-0.245-0.445-0.369-0.666
	c-0.465-0.829-0.924-1.662-1.372-2.502c-0.198-0.371-0.389-0.745-0.583-1.117c-0.366-0.703-0.728-1.409-1.082-2.119
	c-0.203-0.406-0.402-0.814-0.6-1.223c-0.15-0.31-0.308-0.617-0.456-0.928c-2.665-5.602-8.359-9.129-14.562-9.129H256v433.856
	c2.587,0,5.174-0.619,7.532-1.859l0.948-0.498c56.969-29.943,104.357-72.979,137.038-124.454
	c32.296-50.867,49.365-108.674,49.365-167.171V128.9C450.883,122.285,446.866,116.314,440.715,113.88z"/>
<path style="fill:#1E9690;" d="M440.715,113.88c-0.265-0.105-0.527-0.217-0.791-0.324c-0.44-0.177-0.878-0.357-1.316-0.538
	c-0.748-0.309-1.492-0.625-2.234-0.945c-0.428-0.185-0.857-0.37-1.283-0.559c-0.792-0.352-1.578-0.712-2.362-1.077
	c-0.355-0.165-0.713-0.326-1.066-0.494c-1.128-0.535-2.249-1.082-3.36-1.644c-0.084-0.042-0.166-0.087-0.249-0.13
	c-1.029-0.523-2.049-1.058-3.063-1.603c-0.359-0.194-0.715-0.393-1.072-0.589c-0.737-0.404-1.471-0.812-2.199-1.229
	c-0.404-0.231-0.805-0.465-1.206-0.699c-0.687-0.401-1.371-0.808-2.051-1.22c-0.395-0.239-0.789-0.479-1.182-0.722
	c-0.711-0.44-1.415-0.888-2.117-1.339c-0.342-0.22-0.686-0.437-1.026-0.659c-0.959-0.628-1.91-1.266-2.852-1.915
	c-0.07-0.048-0.142-0.095-0.212-0.143c-1.011-0.7-2.011-1.413-3.002-2.137c-0.309-0.226-0.614-0.457-0.921-0.685
	c-0.681-0.505-1.359-1.014-2.03-1.53c-0.36-0.277-0.717-0.558-1.074-0.838c-0.62-0.487-1.236-0.978-1.848-1.474
	c-0.356-0.289-0.711-0.578-1.064-0.87c-0.626-0.518-1.246-1.043-1.862-1.571c-0.316-0.271-0.635-0.54-0.949-0.814
	c-0.762-0.664-1.515-1.338-2.261-2.017c-0.154-0.141-0.312-0.278-0.466-0.419c-0.895-0.822-1.777-1.655-2.649-2.499
	c-0.251-0.243-0.497-0.491-0.746-0.736c-0.62-0.608-1.236-1.219-1.844-1.838c-0.31-0.316-0.616-0.635-0.923-0.954
	c-0.544-0.564-1.084-1.132-1.618-1.705c-0.312-0.335-0.623-0.671-0.932-1.009c-0.534-0.585-1.062-1.175-1.586-1.768
	c-0.284-0.321-0.569-0.641-0.85-0.964c-0.614-0.708-1.218-1.424-1.817-2.144c-0.174-0.209-0.352-0.415-0.525-0.625
	c-0.766-0.932-1.52-1.875-2.26-2.826c-0.19-0.243-0.373-0.491-0.561-0.736c-0.548-0.714-1.092-1.431-1.625-2.155
	c-0.256-0.347-0.507-0.698-0.759-1.047c-0.459-0.636-0.914-1.275-1.363-1.918c-0.261-0.375-0.52-0.751-0.777-1.128
	c-0.44-0.646-0.874-1.297-1.302-1.95c-0.238-0.363-0.478-0.725-0.713-1.09c-0.477-0.743-0.944-1.492-1.407-2.244
	c-0.17-0.276-0.345-0.55-0.513-0.828c-0.622-1.028-1.231-2.065-1.826-3.109c-0.125-0.221-0.245-0.445-0.369-0.666
	c-0.465-0.83-0.924-1.663-1.372-2.502c-0.198-0.37-0.389-0.744-0.583-1.117c-0.366-0.704-0.728-1.409-1.082-2.119
	c-0.203-0.406-0.402-0.814-0.6-1.223c-0.15-0.31-0.308-0.617-0.456-0.928c-2.665-5.602-8.359-9.129-14.562-9.129h-26.01
	c3.367,4.247,7.151,9.852,11.433,17.247c0.173,0.298,0.305,0.618,0.456,0.928c0.198,0.408,0.398,0.816,0.6,1.223
	c0.354,0.71,0.716,1.416,1.082,2.119c0.194,0.372,0.386,0.746,0.583,1.117c0.448,0.839,0.907,1.673,1.372,2.502
	c0.124,0.221,0.243,0.445,0.369,0.666c0.594,1.045,1.203,2.081,1.826,3.109c0.168,0.278,0.343,0.551,0.513,0.827
	c0.462,0.752,0.929,1.501,1.407,2.244c0.235,0.365,0.475,0.727,0.713,1.09c0.429,0.653,0.862,1.304,1.302,1.95
	c0.257,0.377,0.516,0.753,0.777,1.128c0.448,0.644,0.903,1.283,1.363,1.918c0.253,0.35,0.503,0.7,0.759,1.047
	c0.534,0.724,1.077,1.441,1.625,2.155c0.188,0.245,0.371,0.493,0.561,0.736c0.741,0.952,1.494,1.894,2.26,2.826
	c0.173,0.21,0.351,0.416,0.525,0.625c0.599,0.72,1.203,1.436,1.817,2.144c0.28,0.324,0.566,0.643,0.85,0.964
	c0.524,0.593,1.051,1.183,1.586,1.768c0.309,0.338,0.62,0.674,0.932,1.009c0.534,0.573,1.073,1.141,1.618,1.705
	c0.307,0.319,0.613,0.638,0.923,0.954c0.608,0.619,1.224,1.23,1.844,1.838c0.249,0.245,0.495,0.493,0.746,0.736
	c0.872,0.843,1.754,1.677,2.649,2.499c0.154,0.141,0.312,0.278,0.466,0.419c0.746,0.679,1.499,1.353,2.261,2.017
	c0.314,0.274,0.633,0.543,0.949,0.814c0.617,0.528,1.236,1.053,1.862,1.571c0.353,0.292,0.708,0.581,1.064,0.87
	c0.611,0.496,1.227,0.987,1.848,1.474c0.357,0.28,0.714,0.561,1.074,0.838c0.671,0.516,1.349,1.025,2.03,1.53
	c0.307,0.228,0.612,0.459,0.921,0.685c0.991,0.723,1.991,1.437,3.002,2.137c0.07,0.048,0.142,0.095,0.212,0.143
	c0.942,0.649,1.893,1.286,2.852,1.914c0.34,0.223,0.684,0.439,1.026,0.659c0.702,0.451,1.407,0.899,2.117,1.339
	c0.392,0.243,0.787,0.482,1.182,0.722c0.68,0.412,1.363,0.819,2.051,1.22c0.401,0.234,0.802,0.468,1.206,0.699
	c0.728,0.416,1.463,0.824,2.199,1.229c0.358,0.196,0.713,0.396,1.072,0.589c1.013,0.545,2.034,1.08,3.063,1.603
	c0.084,0.042,0.166,0.087,0.249,0.13c1.111,0.562,2.232,1.108,3.36,1.644c0.353,0.168,0.711,0.329,1.066,0.494
	c0.784,0.365,1.57,0.725,2.362,1.077c0.426,0.189,0.855,0.374,1.283,0.559c0.741,0.321,1.486,0.636,2.234,0.945
	c0.438,0.181,0.876,0.361,1.316,0.538c0.265,0.106,0.526,0.219,0.791,0.324c6.151,2.434,10.168,8.405,10.168,15.02v45.713
	c0,58.497-17.07,116.304-49.365,167.171C343.734,395.019,303.79,438.061,256,468.168v0.426c2.587,0,5.174-0.619,7.532-1.859
	l0.948-0.498c56.969-29.943,104.357-72.979,137.038-124.454c32.296-50.867,49.365-108.674,49.365-167.171V128.9
	C450.883,122.285,446.866,116.314,440.715,113.88z"/>
<path style="fill:#FFD278;" d="M247.151,359.525L146.507,253.87c-4.115-4.32-3.949-11.158,0.371-15.273l26.258-25.013
	c4.32-4.115,11.158-3.949,15.273,0.371l51.893,54.477c4.706,4.94,12.756,4.335,16.67-1.253l102.463-146.281
	c3.423-4.887,10.159-6.073,15.046-2.65l29.704,20.806c4.887,3.423,6.073,10.159,2.65,15.046L263.821,358.272
	C259.907,363.86,251.857,364.465,247.151,359.525z"/>
<g>
</g>
<g>
</g>
<g>
</g>
<g>
</g>
<g>
</g>
<g>
</g>
<g>
</g>
<g>
</g>
<g>
</g>
<g>
</g>
<g>
</g>
<g>
</g>
<g>
</g>
<g>
</g>
<g>
</g>
</svg>
