<?xml version="1.0" encoding="iso-8859-1"?>
<!-- Generator: Adobe Illustrator 19.0.0, SVG Export Plug-In . SVG Version: 6.00 Build 0)  -->
<svg version="1.1" id="Capa_1" xmlns="http://www.w3.org/2000/svg" xmlns:xlink="http://www.w3.org/1999/xlink" x="0px" y="0px"
	 viewBox="0 0 512 512" style="enable-background:new 0 0 512 512;" xml:space="preserve">
<path style="fill:#D38B18;" d="M425.741,82.534V40.982c0-0.046,0-0.093-0.001-0.14c-0.063-6.49-5.548-11.631-12.039-11.631H98.299
	c-6.483,0-12.039,5.146-12.039,11.771v41.553h339.481V82.534z"/>
<g>
	<path style="fill:#C67C10;" d="M106.865,40.842c0.062-6.49,5.548-11.631,12.039-11.631H98.299c-6.484,0-12.039,5.146-12.039,11.771
		v41.553h20.605V40.982C106.864,40.936,106.864,40.889,106.865,40.842z"/>
	<path style="fill:#C67C10;" d="M86.259,40.981L86.259,40.981l55.872,41.553h227.736l55.872-41.553c0-0.046,0-0.093-0.001-0.14
		c-0.063-6.491-5.549-11.631-12.039-11.631h-315.4C91.921,29.211,86.259,34.276,86.259,40.981z"/>
</g>
<path style="fill:#BA6E09;" d="M106.864,40.982c0-0.046,0-0.093,0.001-0.14c0.062-6.49,5.548-11.631,12.039-11.631H98.299
	c-6.463,0-12.039,5.18-12.039,11.763v0.007l0,0l20.605,15.324V40.982H106.864z"/>
<path style="fill:#E59F23;" d="M449.734,134.828V93.275c0-0.046,0-0.093-0.001-0.14c-0.062-6.49-5.548-11.631-12.039-11.631H74.305
	c-6.49,0-11.977,5.141-12.039,11.631c-0.001,0.047-0.001,0.094-0.001,0.14v41.553H449.734z"/>
<g>
	<path style="fill:#D38B18;" d="M82.871,93.135c0.062-6.49,5.548-11.631,12.039-11.631H74.305c-6.49,0-11.977,5.141-12.039,11.631
		c-0.001,0.047-0.001,0.094-0.001,0.14v41.553H82.87V93.275C82.871,93.229,82.871,93.182,82.871,93.135z"/>
	<path style="fill:#D38B18;" d="M62.266,93.135c-0.001,0.047-0.001,0.093-0.001,0.139v0.001l55.872,41.553h275.724l55.872-41.553
		c0-0.046,0-0.093-0.001-0.14c-0.063-6.491-5.549-11.631-12.039-11.631H74.305C67.897,81.504,62.329,86.586,62.266,93.135z"/>
</g>
<path style="fill:#C67C10;" d="M82.871,93.275c0-0.046,0-0.093,0.001-0.14c0.062-6.49,5.548-11.63,12.038-11.631H74.305
	c-0.006,0-0.011,0.001-0.017,0.001c-6.439,0.009-11.958,5.161-12.022,11.63c-0.001,0.044-0.001,0.089-0.001,0.133v0.007
	l20.605,15.324L82.871,93.275L82.871,93.275z"/>
<path style="fill:#F9B428;" d="M85.138,277.946c6.133,0,11.105,4.972,11.105,11.105v54.052c0,6.011,4.873,10.885,10.884,10.885
	h297.744c6.011,0,10.884-4.873,10.884-10.885v-53.468c0-6.456,5.233-11.689,11.689-11.689h40.558V146.678
	c0-0.051,0-0.102-0.001-0.153c-0.068-7.102-6.072-12.728-13.174-12.728H57.172c-7.103,0-13.106,5.626-13.174,12.728
	c-0.001,0.051-0.001,0.102-0.001,0.153v131.267h41.141V277.946z"/>
<g>
	<path style="fill:#E59F23;" d="M64.603,146.525c0.068-7.102,6.072-12.728,13.174-12.728H57.172
		c-7.103,0-13.106,5.626-13.174,12.728c-0.001,0.051-0.001,0.102-0.001,0.153v131.267h20.605V146.678
		C64.602,146.627,64.602,146.576,64.603,146.525z"/>
	<path style="fill:#E59F23;" d="M116.848,343.103V289.05c0-6.133-4.972-11.105-11.105-11.105H85.138
		c6.133,0,11.105,4.972,11.105,11.105v54.052c0,6.011,4.873,10.884,10.884,10.884h20.605
		C121.721,353.987,116.848,349.114,116.848,343.103z"/>
	<path style="fill:#E59F23;" d="M454.828,133.797H57.172c-7.103,0-13.106,5.625-13.174,12.728c-0.001,0.051-0.001,0.102-0.001,0.153
		l204.42,152.028c4.501,3.348,10.666,3.348,15.167,0l204.42-152.028c0-0.051,0-0.102-0.001-0.153
		C467.934,139.423,461.931,133.797,454.828,133.797z"/>
</g>
<path style="fill:#D38B18;" d="M57.172,133.797c-1.843,0-3.608,0.386-5.219,1.071c-4.573,1.946-7.868,6.355-7.95,11.581
	c-0.001,0.026-0.005,0.051-0.005,0.076v0.001c-0.001,0.051-0.001,0.102-0.001,0.152l20.605,15.324v-15.324
	c0-0.051,0-0.102,0.001-0.153c0.068-7.101,6.07-12.726,13.172-12.728H57.172z"/>
<path style="fill:#FFC850;" d="M278.732,287.44l-15.148,11.266c-4.502,3.348-10.666,3.348-15.167,0l-15.149-11.266l-80.394,66.547
	h206.252L278.732,287.44z"/>
<path style="fill:#FF5050;" d="M501.116,276.915h-73.671c-6.456,0-11.689,5.233-11.689,11.689v53.468
	c0,6.011-4.873,10.885-10.884,10.885H107.127c-6.011,0-10.884-4.873-10.884-10.885V288.02c0-6.133-4.972-11.105-11.105-11.105
	H10.884C4.873,276.915,0,281.788,0,287.8v184.104c0,6.012,4.873,10.885,10.885,10.885h490.23c6.011,0,10.885-4.873,10.885-10.885
	V287.8C512,281.788,507.127,276.915,501.116,276.915z"/>
<g>
	<path style="fill:#ED3A3A;" d="M436.361,342.072v-53.468c0-6.456,5.233-11.689,11.689-11.689h-20.605
		c-6.456,0-11.689,5.233-11.689,11.689v53.468c0,6.011-4.873,10.884-10.884,10.884h20.605
		C431.488,352.957,436.361,348.084,436.361,342.072z"/>
	<path style="fill:#ED3A3A;" d="M20.605,471.904V287.8c0-6.011,4.873-10.884,10.884-10.884H10.884C4.873,276.915,0,281.788,0,287.8
		v184.104c0,6.012,4.873,10.885,10.885,10.885H31.49C25.478,482.789,20.605,477.916,20.605,471.904z"/>
	<path style="fill:#ED3A3A;" d="M351.746,482.789v-24.715c0-8.42-6.889-15.309-15.309-15.309H175.563
		c-8.42,0-15.309,6.889-15.309,15.309v24.715H351.746z"/>
</g>
<rect x="160.25" y="462.78" style="fill:#DB2A2A;" width="191.49" height="20.01"/>
<g>
</g>
<g>
</g>
<g>
</g>
<g>
</g>
<g>
</g>
<g>
</g>
<g>
</g>
<g>
</g>
<g>
</g>
<g>
</g>
<g>
</g>
<g>
</g>
<g>
</g>
<g>
</g>
<g>
</g>
</svg>
