<svg id="Capa_1" enable-background="new 0 0 512 512" height="512" viewBox="0 0 512 512" width="512" xmlns="http://www.w3.org/2000/svg"><g><g><path d="m90 0c-33.08 0-60 26.92-60 60s26.92 60 60 60 60-26.92 60-60-26.92-60-60-60z" fill="#ffe470"/></g><g><path d="m90 120c-49.63 0-90 40.37-90 90v90h31.97l30 212h56.06l30-212h31.97v-90c0-49.63-40.37-90-90-90z" fill="#ffe470"/></g><path d="m90 120v-120c33.08 0 60 26.92 60 60s-26.92 60-60 60z" fill="#ffb64c"/><path d="m180 210v90h-31.97l-30 212h-28.03v-392c49.63 0 90 40.37 90 90z" fill="#ffb64c"/><g><path d="m422 0c-33.08 0-60 26.92-60 60s26.92 60 60 60 60-26.92 60-60-26.92-60-60-60z" fill="#7ed8f6"/></g><g><path d="m422 120c-49.63 0-90 40.37-90 90v90h31.97l30 212h56.06l30-212h31.97v-90c0-49.63-40.37-90-90-90z" fill="#7ed8f6"/></g><path d="m422 120v-120c33.08 0 60 26.92 60 60s-26.92 60-60 60z" fill="#6aa9ff"/><path d="m512 210v90h-31.97l-30 212h-28.03v-392c49.63 0 90 40.37 90 90z" fill="#6aa9ff"/><g><path d="m307.21 135-48.1 48.11-21.22-21.22 11.9-11.89h-38.79v-30h38.79l-11.9-11.89 21.22-21.22z" fill="#61729b"/><path d="m307.21 135-48.1 48.11-21.22-21.22 11.9-11.89h-38.79v-15z" fill="#47568c"/><path d="m307.21 255-48.1 48.11-21.22-21.22 11.9-11.89h-38.79v-30h38.79l-11.9-11.89 21.22-21.22z" fill="#61729b"/><path d="m307.21 255-48.1 48.11-21.22-21.22 11.9-11.89h-38.79v-15z" fill="#47568c"/><path d="m307.21 375-48.1 48.11-21.22-21.22 11.9-11.89h-38.79v-30h38.79l-11.9-11.89 21.22-21.22z" fill="#61729b"/><path d="m307.21 375-48.1 48.11-21.22-21.22 11.9-11.89h-38.79v-15z" fill="#47568c"/></g></g></svg>