<?xml version="1.0" encoding="iso-8859-1"?>
<!-- Generator: Adobe Illustrator 21.0.0, SVG Export Plug-In . SVG Version: 6.00 Build 0)  -->
<svg xmlns="http://www.w3.org/2000/svg" xmlns:xlink="http://www.w3.org/1999/xlink" version="1.1" id="Capa_1" x="0px" y="0px" viewBox="0 0 512 512" style="enable-background:new 0 0 512 512;" xml:space="preserve" width="512" height="512">
<g>
	<path style="fill:#EBEEF2;" d="M71.852,22.106v429.091c0,12.209,9.897,22.106,22.106,22.106h324.085   c12.209,0,22.106-9.897,22.106-22.106V22.106C440.148,9.897,430.251,0,418.043,0H93.957C81.749,0,71.852,9.897,71.852,22.106z"/>
	<path style="fill:#C9CDD3;" d="M418.043,0h-28.33c12.208,0,22.105,9.897,22.105,22.106v429.091   c0,12.209-9.897,22.106-22.105,22.106h28.33c12.209,0,22.106-9.897,22.106-22.106V22.106C440.148,9.897,430.251,0,418.043,0z"/>
	<path style="fill:#243B5D;" d="M329.271,130.913H182.729c-4.142,0-7.5-3.358-7.5-7.5s3.358-7.5,7.5-7.5h146.543   c4.142,0,7.5,3.358,7.5,7.5S333.414,130.913,329.271,130.913z"/>
	<path style="fill:#7CCCF2;" d="M140.619,198.408v20.101c0,5.223,4.234,9.457,9.457,9.457h211.849c5.223,0,9.457-4.234,9.457-9.457   v-20.101c0-5.223-4.234-9.457-9.457-9.457H150.076C144.853,188.951,140.619,193.185,140.619,198.408z"/>
	<path style="fill:#7CCCF2;" d="M140.619,285.861v20.101c0,5.223,4.234,9.457,9.457,9.457h211.849c5.223,0,9.457-4.234,9.457-9.457   v-20.101c0-5.223-4.234-9.457-9.457-9.457H150.076C144.853,276.404,140.619,280.638,140.619,285.861z"/>
	<path style="fill:#BCD151;" d="M273.971,369.411h-35.943c-10.367,0-18.772,8.404-18.772,18.772v1.05   c0,10.367,8.404,18.772,18.772,18.772h35.943c10.367,0,18.772-8.404,18.772-18.772v-1.05   C292.743,377.815,284.339,369.411,273.971,369.411z"/>
	<path style="fill:#52668D;" d="M418.043,0H93.957C81.749,0,71.852,9.897,71.852,22.106V78.1h368.296V22.106   C440.148,9.897,430.251,0,418.043,0z"/>
	<path style="fill:#243B5D;" d="M418.043,0h-28.33c12.208,0,22.105,9.897,22.105,22.106V78.1h28.33V22.106   C440.148,9.897,430.251,0,418.043,0z"/>
	<circle style="fill:#EC6B59;" cx="120.892" cy="39.05" r="15.911"/>
	<circle style="fill:#F4D34C;" cx="182.729" cy="39.05" r="15.911"/>
	<circle style="fill:#6FBC89;" cx="244.565" cy="39.05" r="15.911"/>
	<path style="fill:#52668D;" d="M412.439,435.727l-80.161-46.281c-3.632-2.097-8.171,0.524-8.171,4.718v92.562   c0,4.194,4.54,6.814,8.171,4.718l20.65-11.922c3.039-1.754,6.924-0.713,8.679,2.325l15.647,27.102   c1.685,2.918,5.416,3.918,8.334,2.233l17.292-9.983c2.918-1.685,3.918-5.416,2.233-8.334l-15.647-27.102   c-1.754-3.039-0.713-6.924,2.325-8.679l20.65-11.922C416.071,443.065,416.071,437.824,412.439,435.727z"/>
</g>















</svg>
