<svg id="Capa_1" enable-background="new 0 0 512 512" height="512" viewBox="0 0 512 512" width="512" xmlns="http://www.w3.org/2000/svg"><path d="m463.505 8.178c-138.336-10.904-276.673-10.904-415.009 0-20.655 1.628-37.156 17.778-39.389 38.375-12.142 111.97-12.142 223.94 0 335.911 2.234 20.597 18.735 36.747 39.389 38.375 138.336 10.904 276.673 10.904 415.009 0 20.654-1.628 37.155-17.778 39.389-38.375 12.142-111.97 12.142-223.94 0-335.911-2.234-20.597-18.735-36.747-39.389-38.375z" fill="#efe7e4"/><path d="m508.584 111.629-.206-.021c-168.249-14.835-336.498-14.835-504.747 0l-.206.031c1.432-21.696 3.327-43.381 5.687-65.077 2.235-20.603 18.738-36.757 39.383-38.384 138.343-10.899 276.676-10.899 415.019 0 20.645 1.628 37.148 17.781 39.384 38.385 2.359 21.685 4.254 43.38 5.686 65.066z" fill="#b4aaaa"/><circle cx="65.19" cy="54.706" fill="#fc474f" r="24.165"/><circle cx="210.18" cy="54.706" fill="#78d090" r="24.165"/><circle cx="137.685" cy="54.706" fill="#f1d333" r="24.165"/><path d="m340.477 455.085c-12.803 0-25.842-.482-38.756-1.432-36.781-2.707-65.467-32.475-66.725-69.244-1.918-56.048-1.92-112.822-.006-168.747 1.259-36.771 29.947-66.538 66.73-69.242 12.916-.949 25.957-1.43 38.758-1.43s25.842.481 38.758 1.43c36.784 2.703 65.471 32.47 66.731 69.241 1.914 55.925 1.912 112.7-.006 168.748-1.258 36.769-29.944 66.537-66.725 69.244-12.916.95-25.956 1.432-38.759 1.432zm0-262.772c-11.649 0-23.523.438-35.29 1.303-12.626.928-22.472 11.101-22.902 23.665-1.877 54.85-1.875 110.536.006 165.509.43 12.563 10.276 22.738 22.903 23.667 11.763.866 23.634 1.304 35.283 1.304s23.521-.439 35.283-1.304c12.626-.929 22.473-11.104 22.903-23.667 1.882-54.974 1.883-110.659.006-165.51-.43-12.563-10.276-22.736-22.903-23.664-11.766-.864-23.639-1.303-35.289-1.303z" fill="#695e66"/><path d="m375.765 406.457c-7.769.572-15.581.939-23.35 1.134 3.993.101 7.978.17 11.933.17 11.649 0 23.521-.439 35.283-1.304 12.626-.929 22.473-11.104 22.903-23.667 1.882-54.974 1.883-110.659.006-165.51-.43-12.563-10.276-22.736-22.903-23.664-11.767-.864-23.64-1.303-35.29-1.303-3.955 0-7.94.069-11.933.17 7.77.196 15.584.562 23.357 1.133 12.626.928 22.472 11.101 22.903 23.664 1.877 54.851 1.875 110.536-.006 165.51-.43 12.563-10.277 22.738-22.903 23.667z" fill="#453e43"/><path d="m325.592 453.653c-36.781-2.707-65.467-32.475-66.725-69.244-1.918-56.048-1.92-112.822-.006-168.747 1.259-36.771 29.947-66.538 66.73-69.242 8.924-.656 17.903-1.072 26.825-1.276-3.992-.092-7.976-.154-11.933-.154-12.801 0-25.842.481-38.758 1.43-36.783 2.703-65.471 32.47-66.73 69.242-1.914 55.925-1.912 112.7.006 168.747 1.258 36.769 29.944 66.537 66.725 69.244 12.914.95 25.953 1.432 38.756 1.432 3.958 0 7.941-.062 11.933-.154-8.923-.205-17.901-.622-26.823-1.278z" fill="#453e43"/><path d="m340.477 512c-31.32 0-62.903-.909-94.435-2.711-22.661-1.295-40.781-19.326-42.215-41.979-2.82-44.548-2.825-89.247-.01-133.719 1.434-22.652 19.554-40.681 42.214-41.975 31.503-1.799 63.128-2.708 94.446-2.708s62.943.908 94.446 2.708c22.66 1.294 40.781 19.323 42.214 41.975 2.814 44.471 2.809 89.171-.01 133.719-1.434 22.653-19.554 40.683-42.215 41.979-31.531 1.802-63.115 2.711-94.435 2.711z" fill="#81a7c6"/><path d="m256.784 509.857c-3.585-.166-7.169-.367-10.742-.568-22.656-1.29-40.781-19.32-42.212-41.976-2.816-44.555-2.828-89.252-.012-133.724 1.432-22.644 19.556-40.674 42.213-41.976 3.585-.201 7.158-.402 10.742-.568-13.31 7.808-22.49 21.875-23.52 38.214-3.005 47.359-2.993 94.954.012 142.384 1.028 16.339 10.209 30.405 23.519 38.214z" fill="#5c90b9"/><path d="m379.067 440.865-18.935-32.796c12.467-7.213 20.612-21.065 19.57-36.729-1.332-20.045-18.026-36.057-38.107-36.614-22.223-.617-40.433 17.215-40.433 39.299 0 14.55 7.911 27.245 19.66 34.043l-18.935 32.796c-6.5 11.259 1.625 25.332 14.626 25.332h47.929c13 .002 21.126-14.072 14.625-25.331z" fill="#453e43"/><path d="m364.442 473.924h-47.929c-8.899 0-16.868-4.601-21.317-12.308-4.449-7.706-4.449-16.908 0-24.615l15.396-26.666c-10.732-8.858-17.156-22.184-17.156-36.311 0-12.812 5.059-24.789 14.245-33.724 9.183-8.932 21.319-13.66 34.128-13.299 23.982.665 44.013 19.916 45.603 43.825 1.026 15.431-5.384 29.975-17.04 39.523l15.387 26.651c4.449 7.706 4.449 16.908 0 24.615-4.45 7.708-12.419 12.309-21.317 12.309zm-23.969-131.487c-8.28 0-16.069 3.155-22.018 8.942-6.169 6-9.567 14.043-9.567 22.646 0 11.234 6.055 21.716 15.803 27.356 3.691 2.136 4.954 6.858 2.822 10.551l-18.935 32.796c-2.387 4.134-.795 7.784 0 9.162.795 1.377 3.161 4.581 7.935 4.581h47.929c4.774 0 7.139-3.204 7.934-4.581s2.387-5.027 0-9.162l-18.935-32.796c-2.132-3.693-.869-8.416 2.822-10.551 10.509-6.081 16.537-17.395 15.73-29.528-1.066-16.041-14.513-28.956-30.612-29.403-.303-.009-.606-.013-.908-.013z" fill="#5c90b9"/><g fill="#786e79"><path d="m191.251 159.445h-145.997c-4.267 0-7.727-3.459-7.727-7.727s3.459-7.727 7.727-7.727h145.996c4.267 0 7.727 3.459 7.727 7.727s-3.459 7.727-7.726 7.727z"/><path d="m191.251 201.734h-145.997c-4.267 0-7.727-3.459-7.727-7.727 0-4.267 3.459-7.727 7.727-7.727h145.996c4.267 0 7.727 3.459 7.727 7.727 0 4.267-3.459 7.727-7.726 7.727z"/><path d="m191.251 244.022h-145.997c-4.267 0-7.727-3.459-7.727-7.727 0-4.267 3.459-7.727 7.727-7.727h145.996c4.267 0 7.727 3.459 7.727 7.727s-3.459 7.727-7.726 7.727z"/><path d="m133.859 286.311h-88.605c-4.267 0-7.727-3.459-7.727-7.727 0-4.267 3.459-7.727 7.727-7.727h88.604c4.267 0 7.727 3.459 7.727 7.727 0 4.267-3.459 7.727-7.726 7.727z"/></g></svg>