<svg id="Layer_1" enable-background="new 0 0 512 512" height="512" viewBox="0 0 512 512" width="512" xmlns="http://www.w3.org/2000/svg"><g><g><path d="m424 152h-336c-35.346 0-64 28.654-64 64v176c0 17.673 14.327 32 32 32h400c17.673 0 32-14.327 32-32v-176c0-35.346-28.654-64-64-64z" fill="#e64178"/></g><g><path d="m360 152h-272c-35.346 0-64 28.654-64 64v176c0 17.673 14.327 32 32 32h400c-17.673 0-32-14.327-32-32v-176c0-35.346-28.654-64-64-64z" fill="#ff6e91"/></g><g><path d="m392 224c-4.418 0-8-3.582-8-8 0-13.234-10.766-24-24-24-4.418 0-8-3.582-8-8s3.582-8 8-8c22.056 0 40 17.944 40 40 0 4.418-3.582 8-8 8z" fill="#e64178"/></g><g><path d="m392 280c-4.418 0-8-3.582-8-8v-24c0-4.418 3.582-8 8-8s8 3.582 8 8v24c0 4.418-3.582 8-8 8z" fill="#e64178"/></g><g><path d="m392 336c-4.418 0-8-3.582-8-8v-24c0-4.418 3.582-8 8-8s8 3.582 8 8v24c0 4.418-3.582 8-8 8z" fill="#e64178"/></g><g><path d="m392 392c-4.418 0-8-3.582-8-8v-24c0-4.418 3.582-8 8-8s8 3.582 8 8v24c0 4.418-3.582 8-8 8z" fill="#e64178"/></g><g><path d="m56 224c-4.418 0-8-3.582-8-8 0-22.056 17.944-40 40-40 4.418 0 8 3.582 8 8s-3.582 8-8 8c-13.234 0-24 10.766-24 24 0 4.418-3.582 8-8 8z" fill="#e64178"/></g><g><path d="m56 280c-4.418 0-8-3.582-8-8v-24c0-4.418 3.582-8 8-8s8 3.582 8 8v24c0 4.418-3.582 8-8 8z" fill="#e64178"/></g><g><path d="m149.333 192h-29.333c-4.418 0-8-3.582-8-8s3.582-8 8-8h29.333c4.418 0 8 3.582 8 8s-3.581 8-8 8z" fill="#e64178"/></g><g><path d="m208 192h-26.667c-4.418 0-8-3.582-8-8s3.582-8 8-8h26.667c4.418 0 8 3.582 8 8s-3.582 8-8 8z" fill="#e64178"/></g><g><path d="m266.667 192h-26.667c-4.418 0-8-3.582-8-8s3.582-8 8-8h26.667c4.418 0 8 3.582 8 8s-3.582 8-8 8z" fill="#e64178"/></g><g><path d="m328 192h-29.333c-4.418 0-8-3.582-8-8s3.582-8 8-8h29.333c4.418 0 8 3.582 8 8s-3.582 8-8 8z" fill="#e64178"/></g><g><path d="m56 336c-4.418 0-8-3.582-8-8v-24c0-4.418 3.582-8 8-8s8 3.582 8 8v24c0 4.418-3.582 8-8 8z" fill="#e64178"/></g><g><path d="m56 392c-4.418 0-8-3.582-8-8v-24c0-4.418 3.582-8 8-8s8 3.582 8 8v24c0 4.418-3.582 8-8 8z" fill="#e64178"/></g><g><path d="m88 424v36c0 6.627-5.373 12-12 12h-8c-6.627 0-12-5.373-12-12v-36z" fill="#555a6e"/></g><g><path d="m76 472c-6.627 0-12-5.373-12-12v-36h24v36c0 6.627-5.373 12-12 12z" fill="#32283c"/></g><g><path d="m464 392v-168c0-39.764-32.235-72-72-72h-16c39.764 0 72 32.235 72 72v168c0 4.418 3.582 8 8 8 4.418 0 8-3.582 8-8z" fill="#32283c"/></g><g><path d="m136 152 106.343-106.343c3.622-3.622 8.535-5.657 13.657-5.657 5.122 0 10.035 2.035 13.657 5.657l106.343 106.343z" fill="#466932"/></g><g><path d="m88 152 106.343-106.343c3.622-3.622 8.535-5.657 13.657-5.657 5.122 0 10.035 2.035 13.657 5.657l106.343 106.343z" fill="#78af41"/></g><g><path d="m191.029 87.029-.201-.201c-1.562-1.562-4.095-1.562-5.657 0l-65.171 65.172h176l-65.172-65.172c-1.562-1.562-4.095-1.562-5.657 0l-.201.201c-9.372 9.373-24.568 9.373-33.941 0z" fill="#466932"/></g></g></svg>