<svg id="Capa_1" enable-background="new 0 0 512 512" height="512" viewBox="0 0 512 512" width="512" xmlns="http://www.w3.org/2000/svg"><path d="m447.624 512h-383.248c-6.627 0-12-5.373-12-12v-473.121h407.247v473.121c.001 6.627-5.372 12-11.999 12z" fill="#e8f3ff"/><path d="m373.002 324.24h-234.004c-16.569 0-30-13.431-30-30v-128.213c0-16.569 13.431-30 30-30h234.004c16.569 0 30 13.431 30 30v128.213c0 16.568-13.431 30-30 30z" fill="#b3d8fb"/><path d="m459.624 26.879h-35.15v437.598c0 6.833-5.539 12.372-12.372 12.372h-359.726v22.778c0 6.833 5.539 12.372 12.372 12.372h382.503c6.833 0 12.372-5.539 12.372-12.372v-472.748z" fill="#c1e2ff"/><path d="m459.624 95.248h-407.248v-83.248c0-6.627 5.373-12 12-12h383.247c6.627 0 12 5.373 12 12v83.248z" fill="#fd7e42"/><path d="m447.252 0h-22.778v95.248h35.15v-82.876c0-6.833-5.539-12.372-12.372-12.372z" fill="#fc5327"/><path d="m129.588 39.376h-39.245c-4.271 0-7.733-3.462-7.733-7.733s3.462-7.733 7.733-7.733h39.245c4.271 0 7.733 3.462 7.733 7.733s-3.462 7.733-7.733 7.733z" fill="#ffd0be"/><path d="m129.588 70.135h-39.245c-4.271 0-7.733-3.462-7.733-7.733s3.462-7.733 7.733-7.733h39.245c4.271 0 7.733 3.462 7.733 7.733s-3.462 7.733-7.733 7.733z" fill="#ffd0be"/><circle cx="146.595" cy="416.295" fill="#1690fb" r="36.63"/><circle cx="183.225" cy="416.295" fill="#fcdd2e" r="36.63"/><ellipse cx="164.91" cy="416.295" fill="#fd7e42" rx="18.315" ry="31.717"/><path d="m127.791 321.765c3.727 1.592 7.829 2.475 12.137 2.475h232.144c4.309 0 8.411-.883 12.137-2.475-17.659-30.471-68.381-52.482-128.209-52.482s-110.55 22.011-128.209 52.482z" fill="#fcdd2e"/><path d="m222.939 295.226h-19.011c-3.092 0-5.511-2.662-5.216-5.74l6.667-69.617h16.109l6.667 69.617c.295 3.077-2.125 5.74-5.216 5.74z" fill="#d4a806"/><path d="m282.769 229.065c-8.189-11.843-21.858-19.605-37.346-19.605-3.655 0-7.203.446-10.608 1.262l22.961-37.603c1.855-3.037-.428-6.975-3.981-6.773-14.375.817-28.123 8.438-36.194 21.657-1.887 3.09-3.343 6.319-4.418 9.616l-18.181-32.953c-1.719-3.116-6.271-3.085-7.856.101-6.413 12.891-6.607 28.608.875 42.17.64 1.16 1.339 2.267 2.062 3.348-2.797-.54-5.685-.826-8.64-.826-15.489 0-29.157 7.762-37.346 19.605-2.024 2.927.148 6.928 3.706 6.928h131.259c3.56.001 5.731-4 3.707-6.927z" fill="#09a66d"/><path d="m282.834 454.924-12.203-12.203c-1.172-1.172-1.172-3.071 0-4.243l57.004-57.004c1.172-1.172 3.071-1.172 4.243 0l12.203 12.203c1.172 1.172 1.172 3.071 0 4.243l-57.004 57.004c-1.172 1.172-3.072 1.172-4.243 0z" fill="#62b4fd"/><path d="m338.373 387.97-51.231 51.23c-1.208 1.208-3.166 1.208-4.374 0l-6.429-6.429-5.642 5.642c-1.208 1.208-1.208 3.166 0 4.374l12.071 12.071c1.208 1.208 3.166 1.208 4.374 0l56.873-56.873c1.208-1.208 1.208-3.166 0-4.374z" fill="#1690fb"/><g fill="#f9c301"><path d="m385.688 366.605 3.544 7.18c.549 1.112 1.609 1.883 2.837 2.061l7.924 1.151c3.09.449 4.324 4.246 2.088 6.426l-5.734 5.589c-.888.865-1.293 2.112-1.083 3.335l1.353 7.892c.528 3.078-2.702 5.424-5.466 3.971l-7.087-3.726c-1.098-.577-2.409-.577-3.506 0l-7.087 3.726c-2.764 1.453-5.994-.894-5.466-3.971l1.354-7.892c.21-1.222-.196-2.469-1.083-3.335l-5.734-5.589c-2.236-2.18-1.002-5.977 2.088-6.426l7.924-1.151c1.227-.178 2.288-.949 2.837-2.061l3.544-7.18c1.379-2.8 5.372-2.8 6.753 0z"/><circle cx="357.706" cy="422.535" r="9.46"/><circle cx="379.88" cy="432.826" r="9.46"/><circle cx="279.166" cy="386.915" r="9.46"/></g></svg>