<svg id="color" enable-background="new 0 0 24 24" height="512" viewBox="0 0 24 24" width="512" xmlns="http://www.w3.org/2000/svg"><path d="m8.5 0v10h-8.5v-6.5c0-.21.13-.4.32-.47l8-3z" fill="#78909c"/><path d="m17 10c-.04 9.06-8.31 10.97-8.39 10.99l-.11.01v-11z" fill="#78909c"/><path d="m1.22 2.693-.9.337c-.19.07-.32.26-.32.47v6.5h8.5v-.027z" fill="#687d88"/><path d="m8.527 10h-.027v11l.11-.01c.055-.014 3.996-.925 6.457-4.451z" fill="#687d88"/><path d="m17 3.5v6.5h-8.5v-10l.18.03 8 3c.19.07.32.26.32.47z" fill="#cfd8dc"/><path d="m8.5 10v11l-.11-.01c-.08-.02-8.35-1.93-8.39-10.99z" fill="#cfd8dc"/><path d="m8.5 0v10h.001l7.3-7.3-7.121-2.67z" fill="#b4bcc0"/><path d="m8.5 10h-8.5c.013 2.829.828 4.961 1.945 6.556z" fill="#b4bcc0"/><path d="m17.5 11c-3.584 0-6.5 2.916-6.5 6.5s2.916 6.5 6.5 6.5 6.5-2.916 6.5-6.5-2.916-6.5-6.5-6.5z" fill="#4caf50"/><path d="m20.752 15.909-3.5 4c-.182.208-.441.332-.719.341h-.033c-.265 0-.52-.105-.707-.293l-2-2c-.391-.391-.391-1.023 0-1.414s1.023-.391 1.414 0l1.244 1.244 2.797-3.196c.363-.414.995-.458 1.41-.094.416.364.458.996.094 1.412z" fill="#fff"/><path d="m17.5 11c-3.584 0-6.5 2.916-6.5 6.5s2.916 6.5 6.5 6.5v-4.375l-.248.284c-.182.208-.441.332-.719.341h-.033c-.265 0-.52-.105-.707-.293l-2-2c-.391-.391-.391-1.023 0-1.414.195-.195.451-.293.707-.293s.512.098.707.293l1.244 1.244 1.049-1.198z" fill="#429846"/><path d="m14.5 16.25c-.256 0-.512.098-.707.293-.391.391-.391 1.023 0 1.414l2 2c.188.188.442.293.707.293h.033c.277-.009.537-.133.719-.341l.248-.284v-3.036l-1.049 1.198-1.244-1.244c-.195-.195-.451-.293-.707-.293z" fill="#dedede"/></svg>