<svg id="Layer_3" height="512" viewBox="0 0 64 64" width="512" xmlns="http://www.w3.org/2000/svg" data-name="Layer 3"><path d="m62 12v34a4 4 0 0 1 -4 4h-46a4 4 0 0 1 -4-4v-34z" fill="#c8cded"/><path d="m30.622 42a12.007 12.007 0 0 0 -17.622-7.4v-18.6h44v26z" fill="#e2e7f6"/><path d="m53.99 16h-40.99v18.6a12 12 0 0 1 16.385 4.4h24.605z" fill="#fff"/><circle cx="35" cy="28" fill="#ccc" r="8"/><path d="m40 21.76a8 8 0 0 0 -11.24 11.24h9.24a2 2 0 0 0 2-2z" fill="#ddd"/><path d="m62 12h-54v-6a4 4 0 0 1 4-4h46a4 4 0 0 1 4 4z" fill="#3b5892"/><path d="m57.3 9.587a2 2 0 0 0 2-2v-5.353a3.97 3.97 0 0 0 -1.3-.234h-46a4 4 0 0 0 -4 4v3.587z" fill="#4c6cb5"/><path d="m9.341 50.659-6.513 6.513a2.828 2.828 0 0 0 -.828 2 2.828 2.828 0 0 0 2.828 2.828 2.828 2.828 0 0 0 2-.828l6.636-6.636" fill="#4c6cb5"/><circle cx="19" cy="45" fill="#5e87ca" r="12"/><circle cx="19" cy="45" fill="#f2f2f2" r="8"/><path d="m25.245 50h-12.489a8 8 0 0 1 .244-10.291v2.291h13.418a8.008 8.008 0 0 1 -1.173 8z" fill="#c8cded"/><path d="m26.418 42h-13.418v-2.29a8 8 0 0 1 13.418 2.29z" fill="#e2e7f6"/><g fill="#3b5892"><circle cx="15" cy="7" r="2"/><circle cx="21" cy="7" r="2"/><circle cx="27" cy="7" r="2"/><path d="m37 6h20v2h-20z"/></g><path d="m32 24v8l8-4z" fill="#b52f28"/><path d="m46 38v-10l7 7h-4z" fill="#3b5892"/><g fill="#9da1bf"><path d="m46 45h12v2h-12z"/><path d="m36 45h8v2h-8z"/></g></svg>