<?xml version="1.0" encoding="UTF-8"?>
<svg width="40px" height="40px" viewBox="0 0 40 40" version="1.1" xmlns="http://www.w3.org/2000/svg" xmlns:xlink="http://www.w3.org/1999/xlink">
    <!-- Generator: Sketch 50.2 (55047) - http://www.bohemiancoding.com/sketch -->
    <title>Trafalgar/icon/system/utility/MyAccount</title>
    <desc>Created with Sketch.</desc>
    <defs></defs>
    <g id="Trafalgar/icon/system/utility/MyAccount" stroke="none" stroke-width="1" fill="none" fill-rule="evenodd">
        <rect id="Rectangle-4" fill-opacity="0" fill="#FFFFFF" x="0" y="0" width="40" height="40"></rect>
        <g id="user-copy" transform="translate(3.000000, 3.000000)" fill="#767676" fill-rule="nonzero">
            <path d="M32.6489144,10.3790207 C31.7922982,8.35197705 30.5665711,6.54087277 29.0065547,4.97357099 C27.4465383,3.41323499 25.6288406,2.18725671 23.6022122,1.33046507 C21.5129045,0.45277607 19.2843097,0 16.9930356,0 C14.7017616,0 12.4731667,0.45277607 10.3768947,1.33743085 C8.35723064,2.1942225 6.53953298,3.42020078 4.97951659,4.98053678 C3.4195002,6.54087277 2.19377304,8.35894284 1.3371569,10.3859865 C0.452683327,12.4757222 0,14.7047736 0,16.9965171 C0,19.2882606 0.452683327,21.517312 1.3371569,23.6140135 C2.19377304,25.6410572 3.4195002,27.4591272 4.97951659,29.0194632 C6.53953298,30.5797992 8.35723064,31.8057775 10.3838591,32.6625691 C12.4801311,33.5472239 14.7087259,34 17,34 C19.2912741,34 21.5198689,33.5472239 23.6161409,32.6625691 C25.6427694,31.8057775 27.4535027,30.5797992 29.0204834,29.0194632 C30.5804998,27.4591272 31.806227,25.6410572 32.6628431,23.6140135 C33.5473167,21.517312 34,19.2882606 34,16.9965171 C34,14.7047736 33.533388,12.4757222 32.6489144,10.3790207 Z M27.7668988,26.003278 C27.634576,25.6549887 27.625,23.375 25.5,21.25 C23.375,19.125 20.6145023,18.7723571 20.6145023,18.6957335 L21.5198689,10.3093628 C21.5198689,8.07334563 19.2564523,6.26224134 16.9930356,6.26224134 C14.729619,6.26224134 12.4662024,8.07334563 12.4662024,10.3093628 C12.4662024,11.800041 12.7679913,14.5954978 13.371569,18.6957335 C13.371569,18.7723571 10.625,19.125 8.5,21.25 C6.375,23.375 6.35149529,25.6619545 6.21917247,26.003278 C4.17861532,23.565253 2.9459238,20.4236837 2.9459238,16.9965171 C2.9459238,9.25056341 9.24866858,2.94652735 16.9930356,2.94652735 C24.7374027,2.94652735 31.0401475,9.25056341 31.0401475,16.9965171 C31.0401475,20.4236837 29.8144203,23.565253 27.7668988,26.003278 Z" id="Shape"></path>
        </g>
    </g>
</svg>