<?xml version="1.0" encoding="iso-8859-1"?>
<!-- Generator: Adobe Illustrator 19.0.0, SVG Export Plug-In . SVG Version: 6.00 Build 0)  -->
<svg version="1.1" id="Capa_1" xmlns="http://www.w3.org/2000/svg" xmlns:xlink="http://www.w3.org/1999/xlink" x="0px" y="0px"
	 viewBox="0 0 512 512" style="enable-background:new 0 0 512 512;" xml:space="preserve">
<path style="fill:#EDEBED;" d="M412.903,512H49.548c-4.561,0-8.258-3.697-8.258-8.258V8.258C41.29,3.697,44.988,0,49.548,0h273.934
	c4.38,0,8.581,1.74,11.678,4.837l81.163,81.16c3.098,3.097,4.838,7.298,4.838,11.679v406.066
	C421.161,508.303,417.464,512,412.903,512z"/>
<g>
	<path style="fill:#DBD9DC;" d="M421.161,256H90.839c-9.122,0-16.516,7.395-16.516,16.516v99.097
		c0,18.243,14.789,33.032,33.032,33.032h313.806V256z"/>
	<path style="fill:#DBD9DC;" d="M338.581,90.839c-4.56,0-8.258-3.698-8.258-8.258V1.534C328.19,0.56,325.873,0,323.482,0h-9.676
		v82.581c0,13.66,11.113,24.774,24.774,24.774h82.581v-9.679c0-2.389-0.559-4.704-1.533-6.837l0,0
		C419.628,90.839,338.581,90.839,338.581,90.839z"/>
</g>
<path style="fill:#FFD164;" d="M454.194,388.129H107.355c-9.122,0-16.516-7.395-16.516-16.516V256
	c0-9.122,7.395-16.516,16.516-16.516h346.839c9.122,0,16.516,7.395,16.516,16.516v115.613
	C470.71,380.734,463.315,388.129,454.194,388.129z"/>
<path style="fill:#FFC350;" d="M173.419,363.355c-31.926,0-57.806-25.881-57.806-57.806v-66.065h-8.258
	c-9.122,0-16.516,7.395-16.516,16.516v115.613c0,9.122,7.395,16.516,16.516,16.516h346.839c9.122,0,16.516-7.395,16.516-16.516
	v-8.258H173.419z"/>
<g>
	<path style="fill:#FFFFFF;" d="M123.871,272.516c-4.565,0-8.258,3.694-8.258,8.258v66.065c0,4.565,3.694,8.258,8.258,8.258
		c4.565,0,8.258-3.694,8.258-8.258v-66.065C132.129,276.21,128.435,272.516,123.871,272.516z"/>
	<path style="fill:#FFFFFF;" d="M327.774,272.516c-4.565,0-8.258,3.694-8.258,8.258v66.065c0,4.565,3.694,8.258,8.258,8.258
		s8.258-3.694,8.258-8.258v-66.065C336.032,276.21,332.339,272.516,327.774,272.516z"/>
	<path style="fill:#FFFFFF;" d="M184.774,272.516c-4.565,0-8.258,3.694-8.258,8.258v31.081l-17.387-34.774
		c-1.71-3.435-5.581-5.21-9.282-4.347c-3.726,0.887-6.363,4.21-6.363,8.04v66.065c0,4.565,3.694,8.258,8.258,8.258
		c4.565,0,8.258-3.694,8.258-8.258v-31.081l17.387,34.774c1.419,2.847,4.315,4.565,7.387,4.565c0.629,0,1.266-0.073,1.895-0.218
		c3.726-0.887,6.363-4.21,6.363-8.04v-66.065C193.032,276.21,189.339,272.516,184.774,272.516z"/>
	<path style="fill:#FFFFFF;" d="M246.129,272.766c-4.427-1.129-8.903,1.581-10.008,6.008l-8.508,34.016l-8.508-34.016
		c-1.105-4.427-5.597-7.129-10.008-6.008c-4.427,1.105-7.121,5.589-6.008,10.008l16.516,66.065c0.919,3.677,4.218,6.258,8.008,6.258
		s7.089-2.581,8.008-6.258l16.516-66.065C253.25,278.355,250.556,273.871,246.129,272.766z"/>
	<path style="fill:#FFFFFF;" d="M283.871,272.516c-13.661,0-24.774,11.113-24.774,24.774v33.032
		c0,13.661,11.113,24.774,24.774,24.774s24.774-11.113,24.774-24.774V297.29C308.645,283.629,297.532,272.516,283.871,272.516z
		 M292.129,330.323c0,4.556-3.702,8.258-8.258,8.258s-8.258-3.702-8.258-8.258V297.29c0-4.556,3.702-8.258,8.258-8.258
		s8.258,3.702,8.258,8.258V330.323z"/>
	<path style="fill:#FFFFFF;" d="M390.056,331.435c-3.968-2.298-9.016-0.944-11.282,3.008c-1.476,2.556-4.218,4.137-7.161,4.137
		c-4.556,0-8.258-3.702-8.258-8.258V297.29c0-4.556,3.702-8.258,8.258-8.258c2.935,0,5.685,1.589,7.169,4.137
		c2.29,3.952,7.363,5.266,11.282,2.992c3.944-2.29,5.29-7.339,2.992-11.282c-4.427-7.629-12.645-12.363-21.444-12.363
		c-13.661,0-24.774,11.113-24.774,24.774v33.032c0,13.661,11.113,24.774,24.774,24.774c8.815,0,17.04-4.742,21.452-12.379
		C395.355,338.766,394,333.718,390.056,331.435z"/>
	<path style="fill:#FFFFFF;" d="M437.677,322.065c4.565,0,8.258-3.694,8.258-8.258s-3.694-8.258-8.258-8.258h-16.516v-16.516h16.516
		c4.565,0,8.258-3.694,8.258-8.258s-3.694-8.258-8.258-8.258h-24.774c-4.565,0-8.258,3.694-8.258,8.258v66.065
		c0,4.565,3.694,8.258,8.258,8.258h24.774c4.565,0,8.258-3.694,8.258-8.258s-3.694-8.258-8.258-8.258h-16.516v-16.516h16.516
		V322.065z"/>
</g>
<g>
</g>
<g>
</g>
<g>
</g>
<g>
</g>
<g>
</g>
<g>
</g>
<g>
</g>
<g>
</g>
<g>
</g>
<g>
</g>
<g>
</g>
<g>
</g>
<g>
</g>
<g>
</g>
<g>
</g>
</svg>
