<svg id="Layer_5" enable-background="new 0 0 64 64" height="512" viewBox="0 0 64 64" width="512" xmlns="http://www.w3.org/2000/svg"><g><g><g><path d="m48 44.96v13.04c0 2.21-1.79 4-4 4h-38c-2.21 0-4-1.79-4-4v-22c0-2.21 1.79-4 4-4h20.11c-.07.86-.11 1.55-.11 2 0 .59.35 1.27.95 2h-2.95v4h7.7c2.17 1.49 4.6 2.91 6.55 4h-14.25v4h20v-2c1.34 0 2.66-.33 3.85-.96.05-.03.1-.05.15-.08z" fill="#aab2bd"/></g><g><path d="m34 54h10v4h-10z" fill="#fcd770"/></g><g><path d="m20 54h10v4h-10z" fill="#fcd770"/></g><g><path d="m6 54h10v4h-10z" fill="#fcd770"/></g><g><path d="m44 48h-20v-4h14.25c.71.4 1.35.75 1.9 1.04 1.19.63 2.51.96 3.85.96z" fill="#e6e9ed"/></g><g><path d="m26.95 36c1.02 1.25 2.79 2.65 4.75 4h-7.7v-4z" fill="#e6e9ed"/></g><g><circle cx="13" cy="42" fill="#ffeaa7" r="6"/></g><g><path d="m59 8s3 22 3 26c0 3.11-9.72 8.66-14 10.96-.05.03-.1.05-.15.08-1.19.63-2.51.96-3.85.96s-2.66-.33-3.85-.96c-.55-.29-1.19-.64-1.9-1.04-1.95-1.09-4.38-2.51-6.55-4-1.96-1.35-3.73-2.75-4.75-4-.6-.73-.95-1.41-.95-2 0-.45.04-1.14.11-2 .23-2.93.81-7.86 1.39-12.5.75-6 1.5-11.5 1.5-11.5 5.16 0 10.15-1.85 14.07-5.21l.93-.79.93.79c1.96 1.68 4.19 2.98 6.57 3.87 2.38.88 4.92 1.34 7.5 1.34z" fill="#ff826e"/></g><g><path d="m51 15v5.13c-.32-.09-.65-.13-1-.13h-3v-5c0-1.66-1.34-3-3-3-.83 0-1.58.34-2.12.88s-.88 1.29-.88 2.12v5h-3c-.35 0-.68.04-1 .13v-5.13c0-1.94.78-3.68 2.05-4.95s3.01-2.05 4.95-2.05c3.87 0 7 3.13 7 7z" fill="#969faa"/></g><g><path d="m54 24v10c0 2.21-1.79 4-4 4h-12c-2.21 0-4-1.79-4-4v-10c0-1.86 1.27-3.43 3-3.87.32-.09.65-.13 1-.13h3 6 3c.35 0 .68.04 1 .13 1.73.44 3 2.01 3 3.87z" fill="#b4dd7f"/></g><g><path d="m44 24c2.21 0 4 1.79 4 4 0 1.48-.81 2.75-2 3.45v2.55h-4v-2.55c-1.19-.7-2-1.97-2-3.45 0-2.21 1.79-4 4-4z" fill="#fcd770"/></g></g><g><path d="m44 23c-2.757 0-5 2.243-5 5 0 1.563.754 3.041 2 3.979v3.021h6v-3.021c1.246-.939 2-2.416 2-3.979 0-2.757-2.243-5-5-5zm1.497 7.581-.497.289v2.13h-2v-2.13l-.497-.289c-.941-.548-1.503-1.513-1.503-2.581 0-1.654 1.346-3 3-3s3 1.346 3 3c0 1.068-.562 2.033-1.503 2.581z"/><path d="m52 19.424v-4.424c0-4.411-3.589-8-8-8s-8 3.589-8 8v4.424c-1.763.774-3 2.531-3 4.576v10c0 2.757 2.243 5 5 5h12c2.757 0 5-2.243 5-5v-10c0-2.045-1.237-3.802-3-4.576zm-14-4.424c0-3.309 2.691-6 6-6s6 2.691 6 6v4h-2v-4c0-2.206-1.794-4-4-4s-4 1.794-4 4v4h-2zm8 4h-4v-4c0-1.103.897-2 2-2s2 .897 2 2zm7 15c0 1.654-1.346 3-3 3h-12c-1.654 0-3-1.346-3-3v-10c0-1.654 1.346-3 3-3h12c1.654 0 3 1.346 3 3z"/><path d="m63 34c0-4.021-2.886-25.234-3.009-26.135l-.118-.865h-.873c-4.92 0-9.688-1.764-13.423-4.966l-1.577-1.351-1.577 1.351c-3.735 3.202-8.503 4.966-13.423 4.966h-.873l-.118.865c-.104.76-2.175 15.982-2.819 23.135h-19.19c-2.757 0-5 2.243-5 5v22c0 2.757 2.243 5 5 5h38c2.757 0 5-2.243 5-5v-12.449c9.282-5.018 14-8.905 14-11.551zm-34.345 5h-3.655v-2h1.519c.559.627 1.269 1.294 2.136 2zm15.345 22h-38c-1.654 0-3-1.346-3-3v-22c0-1.654 1.346-3 3-3h19.036c-.023.398-.036.738-.036 1 0 .315.074.65.207 1h-2.207v6h8.374c.943.641 1.984 1.307 3.135 2h-11.509v6h22v-2.062c.682-.075 1.352-.233 2-.457v11.519c0 1.654-1.346 3-3 3zm-4.316-15.078c1.028.548 2.159.889 3.316 1.016v.062h-18v-2h12.985c.55.303 1.115.61 1.699.922zm7.691-1.765c-2.067 1.103-4.682 1.103-6.749 0-9.413-5.022-13.626-8.72-13.626-10.157 0-3.446 2.328-20.94 2.876-25.017 5.085-.197 9.973-2.108 13.849-5.43l.275-.236.275.236c3.876 3.322 8.764 5.233 13.849 5.43.548 4.076 2.876 21.571 2.876 25.017 0 1.437-4.213 5.135-13.625 10.157z"/><path d="m13 35c-3.86 0-7 3.14-7 7s3.14 7 7 7 7-3.14 7-7-3.14-7-7-7zm0 12c-2.757 0-5-2.243-5-5s2.243-5 5-5 5 2.243 5 5-2.243 5-5 5z"/><path d="m5 59h12v-6h-12zm2-4h8v2h-8z"/><path d="m19 59h12v-6h-12zm2-4h8v2h-8z"/><path d="m33 59h12v-6h-12zm2-4h8v2h-8z"/></g></g></svg>