<svg width="16" height="16" viewBox="0 0 16 16" fill="none" xmlns="http://www.w3.org/2000/svg">
<path fill-rule="evenodd" clip-rule="evenodd" d="M13.2251 14.87C13.4368 15.0981 13.736 15.2248 14.0471 15.218L14.0441 15.217C14.514 15.2124 14.9359 14.9283 15.117 14.4947C15.298 14.0611 15.2032 13.5613 14.8761 13.224L11.7391 10.087C12.4871 9.01759 12.8838 7.74195 12.8741 6.43697C12.8755 5.57787 12.7027 4.7274 12.3661 3.93697C11.7264 2.38223 10.4918 1.14766 8.93709 0.507972C7.33907 -0.16851 5.53512 -0.16851 3.93709 0.507972C2.38178 1.14836 1.14712 2.3841 0.508094 3.93997C-0.168388 5.53799 -0.168388 7.34195 0.508094 8.93997C1.14802 10.4949 2.38298 11.7295 3.93809 12.369C4.72852 12.7055 5.57899 12.8784 6.43809 12.877C7.74306 12.8866 9.01868 12.4899 10.0881 11.742L13.2251 14.87ZM3.54409 3.54097C4.30272 2.76006 5.34946 2.32603 6.43809 2.34097C7.52705 2.32587 8.57416 2.7599 9.33309 3.54097C10.114 4.2996 10.548 5.34634 10.5331 6.43497C10.5482 7.52393 10.1142 8.57104 9.33309 9.32997C8.57416 10.111 7.52705 10.5451 6.43809 10.53C5.34946 10.5449 4.30272 10.1109 3.54409 9.32997C2.76303 8.57104 2.32899 7.52393 2.34409 6.43497C2.32915 5.34634 2.76318 4.2996 3.54409 3.54097Z" fill="white"/>
</svg>
