<svg id="Layer_1" data-name="Layer 1" xmlns="http://www.w3.org/2000/svg" viewBox="0 0 400.56 284.21"><defs><style>.cls-1{fill:#fff;}</style></defs><title>Artwork6_e0899e35-b135-40d0-8cdf-d8f1549855d6</title><path class="cls-1" d="M21.85,127.53c0-41.71,58.83-76.63,137.8-85.7a42.19,42.19,0,0,1-1.25-10.19c0-.24,0-.47,0-.71C67.91,40.42,0,80.06,0,127.53c0,32.29,31.42,60.95,80,79a34.35,34.35,0,0,0,5.53-11.6C46.6,178.76,21.85,154.57,21.85,127.53Z"/><path class="cls-1" d="M242.14,30.93c0,.24,0,.47,0,.71a41.71,41.71,0,0,1-1.26,10.19c79,9.07,137.81,44,137.81,85.7,0,11-4.14,21.58-11.65,31.31a42,42,0,0,1,11.52,13.71c14-13.5,22-28.8,22-45C400.56,80.06,332.65,40.42,242.14,30.93Z"/><circle class="cls-1" cx="200.28" cy="34.05" r="34.05"/><path class="cls-1" d="M287.1,233.85l1-.18v0l1.68-.33c70-13.86,84.73-33.69,84.73-47.88v-.22a21.22,21.22,0,0,0-1.47-7.51c-34.84,29.11-99.08,48.64-172.58,48.64-1.28,0-2.54,0-3.81,0-40.56-.37-78.18-6.68-109.41-17.25a41.79,41.79,0,0,1-28.81,18.36,4.05,4.05,0,0,0-3.28,5.08C60.83,253,70.17,270.44,81.9,283a4,4,0,0,0,3.38,1.24,152.88,152.88,0,0,0,42.53-10.85c16.84-7.15,30.45-17,39.61-28.76q12.09-.11,23.93-.56c17.25-.65,34.07-1.83,50.23-3.54l5.14-.57c10.42-1.19,20.48-2.61,30-4.22Z"/><path class="cls-1" d="M276.77,135.18c-9.56-1.61-19.63-3-30-4.22l-5.14-.56c-16.33-1.74-33.31-2.92-50.74-3.56q-12.12-.45-24.5-.56c-9.33-11.36-22.92-20.94-39.55-27.84A153.12,153.12,0,0,0,85.28,88a4,4,0,0,0-3.38,1.23c-11.73,12.52-21.07,30-26.76,50.45a4.06,4.06,0,0,0,3.32,5.09,41.77,41.77,0,0,1,34,52.84c29.57,11.1,66.37,17.75,106.32,17.93h1.65c71.88,0,133.82-21,162.08-51.17-16.22-13.11-46.23-21.59-72.75-26.84l-1.68-.34h0l-1-.18Zm-88.22,53.08a12,12,0,1,1,10.36-10.36A12,12,0,0,1,188.55,188.26Zm37.3,0a12,12,0,1,1,10.36-10.36A12,12,0,0,1,225.85,188.26Zm37.31,0a12,12,0,1,1,10.35-10.36A12,12,0,0,1,263.16,188.26Z"/></svg>