<svg id="Layer_1" data-name="Layer 1" xmlns="http://www.w3.org/2000/svg" viewBox="0 0 147.08 165.22"><title>logo-squared-mochileros</title><g id="el_Z7sOLnBHk_2CCubGwWA" data-name="el Z7sOLnBHk 2CCubGwWA"><path id="el_Z7sOLnBHk" data-name="el Z7sOLnBHk" d="M106.9,87.53c10,.76,10.86-7.38,6.26-20.61l-.08-14,2-6.75-.28-12s-1-3.45-1.64-4-.4-1.1-1.1-1.81a4.13,4.13,0,0,1-1.56-3.14c.15-1.33,3.1-1.67,4.2-2.09s.81-1.91,1.57-2.35,1.49-3.14,1.49-3.14v-13S116.71,1.56,113.84.8a14.5,14.5,0,0,0-4.4-.8H106l-3.53,1-3.8,3.69v4h-2s-1.21.53-1.63.79a8.55,8.55,0,0,0-1.15,1.1v5l1.73,1.73h5l-1,2.92a26.26,26.26,0,0,0-4.76,1.94h-2v-6.9L91,13.46H87.84L70.62,22l-1,1.31L64.77,50.05v3.19l4.86,9.26v4l-1.83,2v6.12l3.77,7.53a4.83,4.83,0,0,1,3.55,2.72l5.6.26,7-2.68s1.43,6.06,9.18,6.63S106.9,87.53,106.9,87.53Z"/></g><g id="el_J7cJlpcjwAZ_XuFXvS36U" data-name="el J7cJlpcjwAZ XuFXvS36U"><g id="el_J7cJlpcjwAZ_f8_A0LO2Ic-" data-name="el J7cJlpcjwAZ f8 A0LO2Ic-"><path id="el_J7cJlpcjwAZ" data-name="el J7cJlpcjwAZ" d="M91.31,81.94l-4.49,23.74-2.77,3.78-.47,5s5.09,7.52,5.69,7.79S95.65,121,95.65,121L98,119.63l2.54-4.11.21-1.4,1.94-3.05,1.63-3.38L106,105l2.54-1.81s2-6.72,2.11-7,2.4-10.3,2.4-10.3l.54-5.73-4.66-3.79L99.6,74.32Z"/></g></g><g id="el_w6IYMUoEWM0_TAw6sIIT4" data-name="el w6IYMUoEWM0 TAw6sIIT4"><g id="el_w6IYMUoEWM0_7epvL7wsMnK" data-name="el w6IYMUoEWM0 7epvL7wsMnK"><path id="el_w6IYMUoEWM0" data-name="el w6IYMUoEWM0" d="M100.49,95.78,113,116.46l.46,4.67,3,4s8.81,2.21,9.44,2,3.92-5.17,3.92-5.17l.83-2.54-.86-4.76-.77-1.18-.58-3.57-1-3.6-.58-3.1-1.81-4.93s-.51-4.43-.62-4.75-5-9.28-5-9.28l-5-5.26-4.21-1.66-8.48,7.24Z"/></g></g><g id="el_UyLt-79IIld_z1ikMugso" data-name="el UyLt-79IIld z1ikMugso"><g id="el_UyLt-79IIld_-M5sZkXrx" data-name="el UyLt-79IIld -M5sZkXrx"><path id="el_UyLt-79IIld" data-name="el UyLt-79IIld" d="M112.42,118.06s4.33,15.36,4.63,16.3,3,9,3,9l1.09,10.27-.62,1.34,2.69,1.1L137,154.45l.64-3.92-1.4-7.91-3.31-3.94s-3.78-24-4.53-24.33-2-3.25-2.71-3.23-3.35-3-3.35-3l-8.79-.21S111.79,117.32,112.42,118.06Z"/></g></g><g id="el_JvaO6fxl8qX_7WVKDhrhU" data-name="el JvaO6fxl8qX 7WVKDhrhU"><g id="el_JvaO6fxl8qX_64Js0xukddd" data-name="el JvaO6fxl8qX 64Js0xukddd"><path id="el_JvaO6fxl8qX" data-name="el JvaO6fxl8qX" d="M83,114.39,73,128.13c-.59.81-5.17,7.94-5.17,7.94l-7.39,7.23-1.43.35.81,2.8,12.74,4,2.26.05,3.59-2.25,1-5S96,125.37,95.76,124.6s1.31-3.57.85-4.14.27-4.49.27-4.49l-5.29-7S83.14,113.44,83,114.39Z"/></g></g><g id="el_iVSldYYt400_0qKXebW9J" data-name="el iVSldYYt400 0qKXebW9J"><g id="el_iVSldYYt400_O0MImrT4b" data-name="el iVSldYYt400 O0MImrT4b"><polyline id="el_iVSldYYt400" data-name="el iVSldYYt400" points="124.94 151.86 122.71 161.27 122.77 164.3 124.95 165.22 144.44 165.22 146.16 164.37 147.08 163.38 147.08 160.41 146.16 159.49 141.22 158.57 140.56 157.85 138.78 156.92 138.12 156.2 133.45 149.14"/></g></g><g id="el_bxQbe42P-8t_9SBfdrs9u" data-name="el bxQbe42P-8t 9SBfdrs9u"><g id="el_bxQbe42P-8t_jiuwPr6iT" data-name="el bxQbe42P-8t jiuwPr6iT"><polyline id="el_bxQbe42P-8t" data-name="el bxQbe42P-8t" points="64 143.62 59.29 146.95 57.27 149.21 58.23 151.37 72.47 164.68 74.31 165.22 78.87 165.13 79.78 161.86 78.09 159.92 75.31 159.54 74.67 156.64 74 154.75 74.02 153.77 75.42 145.43"/></g></g><g id="el_k9ms0FKvn9B_edOh9palB" data-name="el k9ms0FKvn9B edOh9palB"><path id="el_k9ms0FKvn9B" data-name="el k9ms0FKvn9B" d="M40.68,71.73c8.21.62,8.89-6,5.12-16.89l-.06-11.51,1.6-5.53L47.15,28s-.84-2.83-1.35-3.28-.32-.9-.9-1.48a3.36,3.36,0,0,1-1.28-2.57c.12-1.1,2.54-1.38,3.44-1.72s.67-1.56,1.29-1.93,1.22-2.57,1.22-2.57V3.85A5.18,5.18,0,0,0,46.36.68,12.06,12.06,0,0,0,42.76,0H39.9L37,.8,33.92,3.85v3.3H32.25s-1,.43-1.33.64a6.67,6.67,0,0,0-.94.9v4.12l1.42,1.41h4.11l-.86,2.4a21,21,0,0,0-3.9,1.59H29.16V12.55L27.66,11H25.05L10.94,18l-.85,1.07L6.14,41v2.61l4,7.59v3.26l-1.5,1.63v5l3.09,6.18a4,4,0,0,1,2.91,2.23l4.59.21L25,67.52s1.17,5,7.52,5.42S40.68,71.73,40.68,71.73Z"/></g><g id="el_nl-kATqQuI-_C1XCDkiJv" data-name="el nl-kATqQuI- C1XCDkiJv"><g id="el_nl-kATqQuI-_bOYxyZ9Ko" data-name="el nl-kATqQuI- bOYxyZ9Ko"><path id="el_nl-kATqQuI-" data-name="el nl-kATqQuI-" d="M27.9,67.15,24.22,86.61l-2.28,3.1-.38,4.06s4.17,6.16,4.67,6.38,5.22-1,5.22-1l1.9-1.1,2.08-3.37.17-1.15L37.19,91l1.33-2.77L39.86,86l2.08-1.49s1.62-5.5,1.73-5.75,2-8.42,2-8.42l.44-4.69L42.3,62.59l-7.61-1.68Z"/></g></g><g id="el_YKGIbhGvTm-_wcTlVtaPX" data-name="el YKGIbhGvTm- wcTlVtaPX"><g id="el_YKGIbhGvTm-_NkaEfs3f8" data-name="el YKGIbhGvTm- NkaEfs3f8"><path id="el_YKGIbhGvTm-" data-name="el YKGIbhGvTm-" d="M35.42,78.49l10.24,17L46,99.27l2.42,3.28s7.22,1.81,7.74,1.64S59.4,100,59.4,100l.69-2.08L59.38,94l-.63-1-.48-2.92-.86-3-.47-2.54-1.49-4S55,76.91,55,76.65,50.82,69,50.82,69l-4.1-4.31-3.45-1.35-7,5.93Z"/></g></g><g id="el_0Fyvb7C3MMA_farHQ8uAW" data-name="el 0Fyvb7C3MMA farHQ8uAW"><g id="el_0Fyvb7C3MMA_-v6md7IwhI8" data-name="el 0Fyvb7C3MMA -v6md7IwhI8"><path id="el_0Fyvb7C3MMA" data-name="el 0Fyvb7C3MMA" d="M45.19,96.75s3.55,12.59,3.8,13.36,2.47,7.36,2.47,7.36l.9,8.43-.51,1.1,2.21.89,11.25-1.32.52-3.21-1.15-6.48L62,113.65S58.87,94,58.26,93.71,56.63,91.05,56,91.06s-2.75-2.46-2.75-2.46l-7.2-.17S44.68,96.14,45.19,96.75Z"/></g></g><g id="el_T7u1zwYbST5_74GmgDNdj" data-name="el T7u1zwYbST5 74GmgDNdj"><g id="el_T7u1zwYbST5_J-V4pch-I-Y" data-name="el T7u1zwYbST5 J-V4pch-I-Y"><path id="el_T7u1zwYbST5" data-name="el T7u1zwYbST5" d="M21,93.75S13.37,104.34,12.92,105s-4.25,6.51-4.25,6.51l-6,5.92-1.18.28L2.11,120l10.44,3.31,1.86,0,2.93-1.85.86-4.14s13.52-14.64,13.34-15.27,1.07-2.93.69-3.39.23-3.68.23-3.68l-4.34-5.75S21.2,93,21,93.75Z"/></g></g><g id="el_D1G0B6FrZFZ_aHTSyuQwM" data-name="el D1G0B6FrZFZ aHTSyuQwM"><g id="el_D1G0B6FrZFZ_H0084itXm" data-name="el D1G0B6FrZFZ H0084itXm"><polyline id="el_D1G0B6FrZFZ" data-name="el D1G0B6FrZFZ" points="55.45 124.45 53.63 132.16 53.68 134.64 55.46 135.4 71.44 135.4 72.84 134.7 73.6 133.89 73.6 131.46 72.84 130.71 68.79 129.95 68.25 129.35 66.8 128.6 66.26 128 62.43 122.22"/></g></g><g id="el_-g-g8gHyRQ0_e6XsQG8Gc" data-name="el -g-g8gHyRQ0 e6XsQG8Gc"><g id="el_-g-g8gHyRQ0_P-FYzii42Q5" data-name="el -g-g8gHyRQ0 P-FYzii42Q5"><polyline id="el_-g-g8gHyRQ0" data-name="el -g-g8gHyRQ0" points="5.52 117.7 1.66 120.43 0 122.28 0.79 124.05 12.46 134.96 13.96 135.4 17.7 135.33 18.45 132.64 17.06 131.06 14.78 130.74 14.26 128.36 13.71 126.82 13.72 126.02 14.87 119.18"/></g></g></svg>