<svg enable-background="new 0 0 24 24" height="512" viewBox="0 0 24 24" width="512" xmlns="http://www.w3.org/2000/svg"><g id="color"><g><path d="m21.327 7.705-5.032-5.032c-.803-.803-2.179-.734-3.068.154l-9.227 9.228-.44.439-1.172 1.172c-.89.89-.959 2.263-.154 3.068l5.032 5.032c.804.804 2.178.735 3.068-.154l1.172-1.172.439-.44 9.227-9.227c.889-.888.958-2.264.155-3.068z" fill="#607d8b"/></g><g><path d="m3.88 12.671 7.449 7.449 10.443-10.443c.43-.43.4-1.159-.067-1.626l-5.756-5.756c-.467-.467-1.196-.497-1.626-.067z" fill="#eceff1"/></g></g><g id="_x31__x2C_5"><g><path d="m12.098 24c-.302 0-.575-.181-.691-.46-.118-.281-.054-.604.161-.82l2.846-2.845c.293-.293.768-.293 1.061 0s.293.768 0 1.061l-1.348 1.348c4.731-.984 8.334-5.193 8.374-10.191.003-.412.339-.744.75-.744h.006c.414.003.747.342.744.756-.053 6.506-5.39 11.843-11.897 11.895-.002 0-.004 0-.006 0z"/></g><g><path d="m.75 12.652c-.002 0-.004 0-.006 0-.414-.003-.747-.341-.744-.756.052-6.507 5.389-11.844 11.896-11.896.312.011.58.179.697.46.118.281.054.604-.161.82l-2.845 2.845c-.293.293-.768.293-1.061 0s-.293-.768 0-1.061l1.348-1.348c-4.731.985-8.334 5.194-8.374 10.192-.003.412-.339.744-.75.744z"/></g><g><path d="m8.79 22.999c-.692 0-1.384-.263-1.91-.79l-5.088-5.087c-.511-.511-.792-1.19-.792-1.912s.281-1.401.792-1.911l11.509-11.508c1.053-1.053 2.767-1.053 3.819 0l5.088 5.087c.511.511.792 1.19.792 1.912s-.281 1.401-.792 1.911l-11.509 11.508c-.526.526-1.218.79-1.909.79zm6.421-20.499c-.321 0-.623.125-.85.352l-11.508 11.508c-.228.227-.353.529-.353.85s.125.624.353.851l5.088 5.087c.453.454 1.245.452 1.698 0l11.508-11.508c.228-.227.353-.529.353-.85s-.125-.624-.353-.851l-5.087-5.087c-.227-.227-.529-.352-.849-.352z"/></g><g><path d="m11.384 20.925c-.192 0-.384-.073-.53-.22l-7.56-7.559c-.293-.293-.293-.768 0-1.061s.768-.293 1.061 0l7.56 7.559c.293.293.293.768 0 1.061-.147.147-.339.22-.531.22z"/></g></g></svg>