<svg id="Capa_1" enable-background="new 0 0 512 512" height="512" viewBox="0 0 512 512" width="512" xmlns="http://www.w3.org/2000/svg"><path d="m444.79 152-23.79 23.79-45-45v-63.06l-77.96-38.98-30 30-12.04-6.02-30-15v-37.73h-78.75l-71.25 38v54h-21.21l-38.79 38.79v72.42l72.04 72.04 66.5-33.25h17.19l26.94 53.89 24.08 24.07-30 60 33.25 33.25v60l30 30 8.79 8.79h39.75l71.46-35.73v-63.06l30-30v-111.21h51.21l38.79-38.79v-81.21z" fill="#bce339"/><g fill="#8dbc42"><path d="m496 152v81.21l-38.79 38.79h-51.21v111.21l-30 30v63.06l-71.46 35.73h-39.75l-8.79-8.79v-450.48l12.04 6.02 30-30 77.96 38.98v63.06l45 45 23.79-23.79z"/><path d="m436 347h30v60h-30z"/></g></svg>