<svg id="Layer_1" enable-background="new 0 0 51 51" height="512" viewBox="0 0 51 51" width="512" xmlns="http://www.w3.org/2000/svg"><g><g><g><g enable-background="new"><g><path d="m49.5 32.58369-.00348 1.2234c-.00038.13697-.07673.27365-.22818.38733-6.66472 4.98873-14.32323 9.46712-23.045 13.39229-.3787.17013-.91113.17704-1.30838.01661-5.00902-2.04958-9.53772-4.21292-13.51012-6.5064-3.76371-2.17298-7.02815-4.46263-9.73102-6.88429-.11692-.10482-.17416-.22455-.17382-.34397l.00346-1.22338c-.00033.11941.0569.23914.17382.34396 2.70287 2.42166 5.96731 4.71131 9.73102 6.88429 3.97241 2.29347 8.50111 4.45682 13.51012 6.50639.39726.16044.92969.15352 1.30838-.01661 8.72178-3.92517 16.38029-8.40356 23.045-13.39229.15147-.11367.22781-.25034.2282-.38733z" fill="#dcdfe2"/></g><g><path d="m38.66919 24.94303c3.86926 2.23388 7.41082 4.65701 10.62702 7.27007.28063.22821.27043.53664-.02439.75792-6.66471 4.98873-14.32322 9.46712-23.045 13.39229-.3787.17012-.91113.17704-1.30838.01661-5.00901-2.04957-9.53771-4.21292-13.51012-6.50639-3.76371-2.17298-7.02815-4.46263-9.73102-6.88429-.25918-.23236-.22508-.53802.07936-.75102 7.18032-5.01639 14.822-9.51553 23.02589-13.39229.37865-.17842.92299-.18949 1.32266-.02489 4.51405 1.85146 8.70222 3.89248 12.56398 6.12199z" fill="#ebeff2"/><g><path d="m38.20862 27.36117c-3.89121-2.24665-8.15203-4.3397-12.68277-6.23342-7.05567 3.37626-13.99092 7.32146-20.67283 11.75672.35714.26574.72259.53573 1.09633.80147 6.34555-4.14453 12.91119-7.84883 19.58481-11.04655 4.53074 1.89367 8.79572 3.99087 12.68692 6.23758 2.38373 1.37456 4.66779 2.82806 6.82727 4.35217.36129-.24084.72259-.49006 1.07973-.73506-2.47923-1.80232-5.12874-3.5216-7.91946-5.13291z" fill="#d0d3d6"/><path d="m25.53416 22.63939c-6.67362 3.19772-13.23926 6.90202-19.58481 11.04655 1.76911 1.26248 3.71264 2.50834 5.82229 3.72924 3.9452 2.27575 8.57147 4.51834 13.75421 6.66949 7.07643-3.23092 13.62547-6.87297 19.52251-10.85553-2.15948-1.52411-4.44354-2.9776-6.82727-4.35217-3.89121-2.2467-8.15619-4.34391-12.68693-6.23758z" fill="#dcdfe2"/></g></g></g></g></g><g><g><path d="m22.40443 6.00565c-.0053.00797-.01061.01329-.01593.0186-.01061.01326-.02654.02651-.03982.03714.01859-.01856.03982-.03713.05575-.05574zm-5.79094-.34784c0-.00266 0-.00266 0-.00532.00532.01329.01329.02392.01859.03455-.0053-.01063-.01327-.0186-.01859-.02923z" fill="#7cd14a"/><g><path d="m26.07155 16.01011-.05665 17.55962c-.0027.94407-.62846 1.89083-1.86384 2.61099-2.20371 1.27853-5.62932 1.4296-8.13244.44777-.33177-.13216-.64467-.2805-.93866-.45047-1.26505-.72826-1.89623-1.68583-1.89353-2.64606l.05665-17.55148c0-.94676.62578-1.89083 1.86654-2.61373.0054-.0027.01078-.0054.01618-.0081 1.18413-.6824 1.94478-1.37023 1.94478-2.73509v-6.24968h5.11412v6.22812c0 1.08433.47743 1.54286 1.26775 2.24416.2077.18883.43696.35337.68243.49363.01348.0081.02697.01617.04045.02427 1.26504.73099 1.89622 1.69122 1.89622 2.64605z" fill="#2ecc71"/><path d="m26.07155 16.01011-.05665 17.55962c-.0027.94407-.62846 1.89083-1.86384 2.61099-2.20371 1.27853-5.62932 1.4296-8.13244.44777 10.32267-3.23679 8.65572-17.63511 7.43383-23.78233.2077.18883.43696.35337.68243.49363.01348.0081.02697.01617.04045.02427 1.26504.73099 1.89622 1.69122 1.89622 2.64605z" fill="#30b265"/><g><path d="m24.27157 18.86733c-.03452.02126-.06904.04249-.1062.06372-2.4879 1.44709-6.53705 1.44709-9.0409-.00266-1.0541-.60536-1.66744-1.37537-1.88517-2.16129l-.05311 14.33c.04515.9426.67177 1.89314 1.925 2.618 1.22405.70894 2.8145 1.06739 4.41291 1.07798 1.66215.01861 3.32695-.34249 4.59082-1.07533 1.22935-.71426 1.9011-1.67274 1.90376-2.61003l.04779-14.72828c-.02389.89213-.64786 1.79227-1.7949 2.48789z" fill="#f1c40f"/></g><g><path d="m22.7997 5.12374-.01078 3.09382c-.0027.1834-.04857.36413-.14567.53946-.06204.12138-.14835.23735-.25355.34798-.07822.0836-.16993.1618-.26973.23193-.07552.05933-.15913.1133-.24815.16457-.0027.0027-.0054.0027-.0081.0054-.0863.04853-.17532.09437-.26973.13757-.08092.03773-.16723.0728-.25353.10517-.08902.03237-.17803.06473-.27243.09173-.08363.02426-.16725.04583-.25356.06743-.08902.01887-.17803.03773-.26973.05393-.08632.0162-.16993.02697-.25625.03507-.08902.01347-.18072.02157-.26973.02697-.08362.0081-.16993.0135-.25355.0135-.09172.0027-.18342.0027-.27243 0-.08632 0-.16993-.0054-.25355-.0135-.0917-.0054-.18072-.0135-.26973-.02427-.08632-.0108-.16993-.02157-.25355-.03777-.0917-.0162-.18342-.03507-.27243-.05663-.08632-.0189-.16993-.04047-.25355-.06743-.0917-.0243-.18072-.05397-.26973-.08903-.089-.03237-.17262-.06743-.25623-.10517-.09442-.0432-.18343-.08903-.26973-.13757 0-.0027-.0027-.0027-.0027-.0027-.08902-.05127-.17263-.10523-.25085-.16457-.1025-.07283-.19422-.15103-.27243-.23197-.1052-.1079-.18882-.22117-.25355-.33717-.1052-.18343-.15645-.37763-.15645-.56913l.01078-3.09382c0 .1861.04857.37223.14567.55026.06203.11867.14565.23193.25355.34257.07822.0836.16993.1645.27243.23733.07822.05933.16183.116.25355.16727.00268.0027.00538.0027.00808.00537.08362.04857.17263.0944.26165.13487.08362.04047.16993.07553.25623.1052.08632.03507.17803.06473.26973.09173.08093.02693.16723.04853.25355.06743.08902.02423.18073.04043.27243.05663.08362.01617.16723.02967.25355.03773.08902.0135.17803.0216.26973.027.08362.0081.16993.0108.25355.0135.09172.0027.18072.0027.27243 0 .08362 0 .16993-.0054.25355-.0108.0917-.0054.18072-.0135.26973-.0243.08632-.01077.16993-.02157.25625-.03773.089-.0162.18072-.0324.26973-.05397.08632-.01887.16993-.04047.25355-.06743.0944-.02427.18342-.05393.27243-.089.089-.0297.17262-.06473.25353-.1025.09442-.04317.18343-.089.26973-.13757.0054-.0027.0135-.0081.01888-.0108.08632-.04857.16455-.1025.23737-.15643.0998-.07283.19151-.15107.26973-.2293.1052-.10787.18882-.21847.25355-.33447.1025-.18339.15646-.37489.15646-.56639z" fill="#8c56a5"/><path d="m21.86536 3.81682c1.24142.71673 1.24552 1.87845.01702 2.59238-1.23333.71674-3.23893.71816-4.48034.00142-1.23897-.71532-1.24307-1.87704-.00974-2.59377 1.2285-.71392 3.23409-.71535 4.47306-.00003z" fill="#9b59b6"/><path d="m21.72076 3.90185c-1.15985-.66893-3.03449-.66893-4.18355 0-.63387.3695-.91978.86313-.84965 1.34596.05123-.3911.33447-.77416.84965-1.07353 1.14906-.66893 3.02371-.66893 4.18355 0 .52058.30207.8092.6851.86315 1.08163.06744-.48553-.22118-.98456-.86315-1.35406z" fill="#8c56a5"/><g fill="#76508c"><path d="m21.72076 4.17428c-1.15985-.66893-3.03449-.66893-4.18355 0-.51518.29937-.79841.68243-.84965 1.07353.05123.3938.33717.7795.86043 1.07893 1.15986.66893 3.03449.66893 4.18895-.0027.5125-.29673.79572-.67703.84696-1.06813-.05394-.39653-.34255-.77956-.86314-1.08163z"/><path d="m22.64325 5.69014v3.06689c-.06204.12137-.14835.23734-.25355.34797v-3.08039c.1052-.10787.18881-.21847.25355-.33447z"/><path d="m22.11996 6.25391v3.08302c-.07552.05933-.15913.1133-.24815.16457-.0027.0027-.0054.0027-.0081.0054v-3.08576c.0054-.0027.0135-.0081.01888-.0108.08632-.04856.16456-.1025.23737-.15643z"/><path d="m21.59398 6.55871v3.08576c-.08092.03773-.16723.0728-.25353.10517v-3.08843c.089-.0297.17262-.06474.25353-.1025z"/><path d="m21.06802 6.75021v3.09116c-.08362.02426-.16724.04583-.25355.06743v-3.09116c.08631-.01887.16993-.04047.25355-.06743z"/><path d="m20.54473 6.87161v3.09112c-.08632.0162-.16993.02697-.25625.03507v-3.08846c.08632-.01077.16994-.02157.25625-.03773z"/><path d="m20.01875 6.93364v3.09112c-.08362.0081-.16993.0135-.25355.0135v-3.09382c.08362 0 .16994-.0054.25355-.0108z"/><path d="m19.49277 6.94444v3.09382c-.08632 0-.16993-.0054-.25355-.0135v-3.09382c.08362.0081.16993.0108.25355.0135z"/><path d="m18.96949 6.90394v3.09656c-.08632-.0108-.16993-.02157-.25355-.03777v-3.09652c.08362.01616.16723.02966.25355.03773z"/><path d="m18.44351 6.80957v3.09653c-.08632-.0189-.16993-.04047-.25355-.06743v-3.09653c.08093.02693.16723.04853.25355.06743z"/><path d="m17.92023 6.65041v3.09922c-.089-.03237-.17262-.06743-.25623-.10517v-3.09925c.08361.04046.16993.07553.25623.1052z"/><path d="m17.39426 6.40497v3.10193c0-.0027-.0027-.0027-.0027-.0027-.08902-.05127-.17263-.10523-.25085-.16457v-3.10192c.07822.05933.16183.116.25355.16726z"/><path d="m16.86828 6.00038v3.10729c-.1052-.1079-.18882-.22117-.25355-.33717v-3.11269c.06203.11867.14565.23193.25355.34257z"/></g></g><path d="m26.06647 16.37946-.04779 14.72828c-.00266.93729-.67441 1.89577-1.90376 2.61003-1.26387.73283-2.92867 1.09393-4.59082 1.07533 4.49788-3.57652 5.13512-10.36314 4.74746-15.92576 1.14705-.69563 1.77102-1.59577 1.79491-2.48788z" fill="#d6b218"/><path d="m24.20287 26.99001c0 1.86897-2.04992 3.38116-4.5733 3.38116-2.52795 0-4.57787-1.51219-4.57787-3.38116s2.04992-3.38452 4.57787-3.38452c2.52338.00001 4.5733 1.51556 4.5733 3.38452z" fill="#fff"/></g></g><g><path d="m36.30156 24.0313c.00137.55117-.38296 1.07909-1.08046 1.48392-.73717.42808-1.72189.66469-2.77363.66469s-2.04057-.23661-2.78184-.66469c-.38705-.22293-.67837-.48141-.86574-.76863l-.03692-.05744c-.33919-.56485-.23524-1.18577.29131-1.70959.16411-.16275.3638-.31319.59493-.44723.73581-.42671 1.71916-.66195 2.76953-.66195 1.05311 0 2.04193.2366 2.7832.66468.70846.40894 1.09962.94097 1.09962 1.49624z" fill="#328eb7" opacity=".3"/><path d="m36.50034 24.18133-.40071 10.4695c-.00137.54297-.35971 1.08593-1.07364 1.50171-1.44016.83564-3.7775.83564-5.22585 0-.72898-.42124-1.09277-.97242-1.09003-1.52495l-.33918-10.44762c0 .00274 0 .00548.00137.00821.06428.5334.44175 1.05311 1.13106 1.46615.0205.01367.03965.02599.06017.03829 1.59606.92318 4.17276.92318 5.75925 0 .13677-.07796.25986-.16275.37337-.25028.0301-.02189.05745-.04514.08479-.06702.04378-.03555.0848-.07248.12582-.11078.02736-.02599.05336-.05197.07933-.08069.06154-.06018.11626-.12309.16412-.186.02325-.03146.04788-.06155.06838-.09301.06701-.09573.12037-.19284.16276-.29131.01641-.03419.02873-.06702.03965-.09985.01095-.03419.0219-.06701.03147-.09847 0 0 0-.00137 0-.00274.00957-.03008.01641-.05881.02188-.08616.00274-.00684.00546-.01504.00546-.02462.0041-.03008.00956-.06155.01367-.09026.00137-.00274.00274-.00411.00137-.00548.00138-.00684.00412-.01641.00549-.02462z" fill="#328eb7" opacity=".3"/><path d="m36.06826 27.72-.00756.18741-.2215 6.85269c-.00189.39751-.3218.81396-.88211 1.13955-.6682.38805-1.57113.60195-2.54219.60195-.97107 0-1.87588-.2158-2.54976-.60384-.57167-.32936-.89914-.7515-.89725-1.15847l-.18926-6.85841-.00567-.17226c.01892-.52433.3729-1.04299 1.06194-1.44429 1.4197-.8253 3.72718-.82528 5.15821.00193.69658.40318 1.05623.92563 1.07515 1.45374z" fill="#c44"/><g><path d="m36.0607 27.90741c-.02082.19496-.09086.38994-.20633.57544-.17225.28204-.45429.54515-.84423.7723-1.42158.8272-3.73095.82719-5.162-.00001-.39563-.22905-.68335-.49784-.86129-.78367-.11926-.19119-.18929-.38994-.20823-.59059l-.00567-.17226c.01892-.52433.3729-1.04299 1.06194-1.44429 1.4197-.8253 3.72718-.82528 5.15821.00193.69659.40319 1.05624.92564 1.07517 1.45375.00379.06246.00189.12493-.00757.1874z" fill="#d8463f"/></g><path d="m34.54049 26.04547c-1.29928.4568-2.94322.4527-4.23977-.01231.09984-.04103.20241-.07932.30773-.11351 1.11876-.3679 2.50558-.36517 3.62432.01093.10531.03556.20788.07386.30772.11489z" fill="#e74c3c"/><path d="m35.30428 22.35794c-1.59598-.92294-4.17306-.92294-5.75845-.00265-.25253.14677-.46413.30808-.63599.47865-.62149.61882-.71535 1.3659-.28298 2.02438h.00134c.19834.30412.51037.58973.93483.83435 1.59728.92294 4.17306.92294 5.76107 0 1.58409-.92029 1.57749-2.41313-.01982-3.33473zm-.08333 3.15735c-.73726.42846-1.7224.66447-2.77393.66447-1.0518 0-2.03962-.23607-2.78128-.66474-.38733-.22318-.67849-.48182-.86561-.76878l-.03713-.05676c-.33951-.56577-.2352-1.18569.29156-1.71012.16321-.16201.36329-.3124.59435-.4467.73552-.42693 1.7192-.66213 2.76993-.66213 1.053 0 2.04122.2362 2.78275.665.70894.40903 1.09974.94034 1.10054 1.49609.00081.55127-.38318 1.07824-1.08118 1.48367z" fill="#ebeff2"/><g fill="#3498db"><path d="m35.30428 22.35794c-1.59598-.92294-4.17306-.92294-5.75845-.00265-.25253.14677-.46413.30808-.63599.47865-.62149.61882-.71535 1.3659-.28298 2.02438h.00134c.19834.30412.51037.58973.93483.83435 1.59728.92294 4.17306.92294 5.76107 0 1.58409-.92029 1.57749-2.41313-.01982-3.33473zm-.08969 3.15394c-.73557.42749-1.71847.66295-2.7676.66295-1.04939 0-2.03495-.23553-2.77493-.66322-.38644-.22267-.67694-.48072-.86363-.76702l-.03704-.05663c-.33874-.56447-.23466-1.18298.2909-1.70621.16284-.16164.36246-.31169.59299-.44568.73384-.42595 1.71527-.66062 2.7636-.66062 1.05059 0 2.03655.23566 2.77639.66348.70732.4081 1.09723.93819 1.09803 1.49267.0008.55002-.38231 1.07578-1.07871 1.48028z" opacity=".5"/><path d="m34.3075 25.91001c-.56384.176-1.19888.26974-1.86047.26974-.66166 0-1.29772-.09372-1.8634-.26974h-.58057c1.4477.62972 3.44184.62972 4.88324 0z" opacity=".3"/></g></g></g></g></svg>