<svg id="Layer_1" enable-background="new 0 0 51 51" height="512" viewBox="0 0 51 51" width="512" xmlns="http://www.w3.org/2000/svg"><g><g><g><g><g enable-background="new"><g><path d="m49.5 33.67709-.00861 1.92252-23.91865 13.9.00861-1.92252z" fill="#b27e4b"/></g><g><path d="m25.58135 47.57709-.00861 1.92252-24.07274-13.8984.00861-1.92252z" fill="#bc874d"/></g><g><path d="m49.5 33.67709-23.91865 13.9-24.07274-13.8984 23.91865-13.9z" fill="#2ecc71"/></g></g></g><g><g enable-background="new"><g><path d="m49.5 32.17356-.00861 1.92252-23.91865 13.90001.00861-1.92253z" fill="#30b265"/></g><g><path d="m25.58135 46.07356-.00861 1.92253-24.07274-13.89841.00861-1.92252z" fill="#2ebf69"/></g><g><path d="m49.5 32.17356-23.91865 13.9-24.07274-13.8984 23.91865-13.9z" fill="#2ecc71"/></g></g></g></g></g><g><g><path d="m13.21009 29.72473 8.82307-5.12741-4.25184-5.945-8.82307 5.12741z" fill="#bc874d"/><g><g><g enable-background="new"><g><path d="m27.00823 33.86604-.01571 5.94377c-.00046.11723.07694.23469.23173.32404.30753.17761.80457.17704 1.11016-.00057.15206-.08838.22832-.20407.22877-.31988l.01571-5.94735h-1.57066z" fill="#5b5e71"/></g></g></g><g><g enable-background="new"><g><path d="m34.86274 33.36069-.01571 1.91606c-.00046.11723.07694.23469.23173.32404.30753.17761.80457.17704 1.11016-.00057.15206-.08838.22831-.20407.22877-.31988l.01571-1.91964h-1.57066z" fill="#5b5e71"/></g></g></g><g><g enable-background="new"><g><path d="m13.84728 29.99508-.01571 2.20978c-.00045.11723.07694.23469.23173.32404.30753.17761.80457.17704 1.11016-.00057.15206-.08838.22832-.20407.22877-.31988l.01571-2.21336h-1.57066z" fill="#5b5e71"/></g></g></g><path d="m27.80158 38.14914 8.82307-5.12742-14.59149-8.4244-8.82307 5.12741z" fill="#b27e4b"/><path d="m34.75482 32.94993-13.59141-7.84716-7.08354 4.11647 13.59166 7.84716z" fill="#ecf0f1"/><path d="m27.79926 38.96653 8.82307-5.12741.00232-.8174-8.82307 5.12742z" fill="#9e6e46"/><path d="m8.95825 23.77973-.41431.42682 4.43683 6.20452 14.81849 8.55546.00232-.81739-14.59149-8.42441z" fill="#a87648"/><path d="m21.17833 25.10736-7.08002 4.11999-3.69-5.13 7.08997-4.12z" fill="#e0e2e2"/></g></g><g><g><g enable-background="new"><g><path d="m31.83518 6.00346-.04955 22.93333c-.00038.13353-.0883.26692-.26365.36882-.35238.20478-.9254.20547-1.28009.00069-.17849-.10305-.26763-.23846-.26725-.37367l.04955-22.93333c-.00038.13521.08876.27062.26725.37367.35469.20478.92771.2041 1.28009-.00069.17535-.1019.26327-.23529.26365-.36882z" fill="#384f63"/></g><g><path d="m31.56853 5.6308c.35469.20478.35538.5367.003.74148s-.9254.20547-1.28009.00069-.35656-.53737-.00418-.74216.92658-.20479 1.28127-.00001z" fill="#d4d6d6"/></g></g></g><g><path d="m41.57247 5.28548v4.90374l-6.20909 3.56501-8.90558.02286-6.22043-3.31647v-5.30353l6.36348-3.6567h8.52383z" fill="#ecf0f1"/><g fill="#e74c3c"><path d="m41.57247 10.18922-10.33563-6.53437 10.33563 1.63063z"/><path d="m35.12468 1.50039-3.88784 2.15446-4.63599-2.15446z"/><path d="m31.23684 3.65485-10.99947 6.80577v-5.30353z"/><path d="m26.4578 13.77709 4.77904-10.12224 4.12654 10.09938z"/></g><path d="m41.57247 10.18922s-1.76175 4.55251-6.20908 3.56501z" fill="#d4d6d6"/><path d="m20.23737 10.46062s1.76175 4.2811 6.20908 3.29361z" fill="#d4d6d6"/><path d="m35.36338 13.75423s-4.15869 2.99356-8.90558.02286z" fill="#c44"/></g></g></g></g></svg>