<svg id="Layer_1" enable-background="new 0 0 51 51" height="512" viewBox="0 0 51 51" width="512" xmlns="http://www.w3.org/2000/svg"><g><g><g><path d="m4.90092 45.41843c-.00337.31314-.11112.53198-.28958.63636l-.47475.2761c.17846-.10438.28956-.32323.28956-.63638 0-.62964-.44109-1.39395-.98992-1.71046-.27273-.15826-.52189-.17509-.70034-.07072l.47138-.2761c.18183-.10438.431-.08755.70373.07071.54884.31652.98992 1.08083.98992 1.71049z" fill="#5b5e71"/></g><g><path d="m3.43762 43.98326c-.54819-.31649-.99033-.06208-.99212.56784-.00178.62744.43747 1.39322.98566 1.70971s.99249.06084.99427-.5666c.00179-.62992-.43962-1.39445-.98781-1.71095z" fill="#474b59"/></g><g><path d="m10.2869 48.52173c-.00337.31313-.11112.53198-.28958.63636l-.47475.2761c.17846-.10438.28956-.32323.28956-.63638 0-.62964-.44109-1.39395-.98992-1.71046-.27273-.15826-.52189-.17509-.70034-.07072l.47138-.2761c.18184-.10438.431-.08755.70373.07072.54884.31651.98992 1.08082.98992 1.71048z" fill="#5b5e71"/></g><g><path d="m8.8236 47.08656c-.54819-.3165-.99033-.06208-.99212.56784-.00178.62745.43747 1.39322.98566 1.70971.54819.3165.99249.06084.99427-.5666.00179-.62992-.43962-1.39446-.98781-1.71095z" fill="#474b59"/></g><g><path d="m8.82252 47.65793c-.27312-.15768-.4934-.03093-.49429.28291-.00089.3126.21796.69412.49107.85181s.49447.03032.49536-.28229c.00089-.31385-.21903-.69475-.49214-.85243z" fill="#ecf0f1"/></g><g><g><path d="m26.098 39.39172c-.00337.31314-.11112.53199-.28958.63636l-.47475.2761c.17846-.10438.28956-.32322.28956-.63638 0-.62964-.44109-1.39396-.98992-1.71046-.27273-.15826-.52189-.17509-.70034-.07072l.47138-.2761c.18184-.10438.431-.08755.70373.07072.54884.31651.98992 1.08081.98992 1.71048z" fill="#5b5e71"/></g><g><path d="m24.6347 37.95654c-.54819-.3165-.99033-.06208-.99212.56784-.00178.62745.43747 1.39322.98566 1.70971s.99249.06084.99427-.5666c.00179-.62992-.43962-1.39445-.98781-1.71095z" fill="#474b59"/></g><g><path d="m24.63362 38.52791c-.27312-.15768-.4934-.03093-.49429.28291-.00089.3126.21796.69412.49107.85181.27312.15768.49447.03031.49536-.28229.00089-.31384-.21903-.69474-.49214-.85243z" fill="#ecf0f1"/></g></g><g><path d="m3.43654 44.55463c-.27312-.15768-.4934-.03093-.49429.28291-.00089.3126.21796.69412.49107.85181.27312.15768.49447.03031.49536-.28229.00089-.31384-.21903-.69475-.49214-.85243z" fill="#ecf0f1"/></g><g><path d="m25.18297 12.76547c-.33612-.19046-.80112-.16245-1.31092.12888l-12.93571 7.46783c-1.01401.58827-1.83757 2.01124-1.83196 3.18213l.05044 23.59846c0 .57702.20728.98601.5378 1.18208l-6.90509-4.01801c-.33052-.19049-.5378-.59945-.5378-1.1765l-.05604-23.59847c0-1.17086.82355-2.59386 1.83757-3.1821l12.93568-7.46787c.50983-.2969.97479-.31933 1.31095-.12884z" fill="#84dbff"/></g><g><path d="m22.70605 11.32618c-.33612-.19046-.80112-.16245-1.31092.12888l-12.93571 7.46783c-1.01401.58827-1.83757 2.01124-1.83196 3.18213l.05044 23.59846c0 .57702.20728.98601.5378 1.18208l-.51951-.30748c-.33052-.19049-.5378-.59945-.5378-1.1765l-.05604-23.59847c0-1.17086.82355-2.59386 1.83757-3.1821l12.93567-7.46786c.50983-.2969.97479-.31933 1.31095-.12884z" fill="#6dbcc9"/></g><g><path d="m23.87199 12.89561c1.01583-.58649 1.84478-.11408 1.84809 1.05318l.05398 23.59837c.00331 1.16726-.82026 2.59375-1.83609 3.18024l-12.93397 7.46743c-1.01583.58649-1.84478.11407-1.84809-1.05318l-.05398-23.59837c-.00331-1.16725.82025-2.59374 1.83609-3.18023z" fill="#77c6d8"/></g><g><g><g enable-background="new"><g><path d="m9.84818 6.00722-.02071 10.88919-.5615.32631.02072-10.88919z" fill="#d4d6d6"/></g><g><path d="m9.28669 6.33353-.02072 10.88919-.56514-.32629.02071-10.88919z" fill="#ecf0f1"/></g><g><path d="m9.84818 6.00722-.56149.32631-.56515-.32629.5615-.3263z" fill="#cbcfd0"/></g></g></g><g><g enable-background="new"><g><path d="m16.72679 2.00981-.02071 10.88919-.5615.32631.02072-10.88919z" fill="#d4d6d6"/></g><g><path d="m16.1653 2.33612-.02072 10.88919-.56514-.32629.02071-10.88919z" fill="#ecf0f1"/></g><g><path d="m16.72679 2.00981-.56149.32631-.56515-.32629.5615-.3263z" fill="#cbcfd0"/></g></g></g></g><g><g enable-background="new"><g><path d="m16.18227 4.91583-1.13461-.65922-.0035-1.23469 1.13461.65922z" fill="#474b59"/></g><g><path d="m17.06209 2.20439c-.13382-.07206-.43943.00712-.64016.12548l-6.40899 3.69854c-.40657.23673-.73081.79772-.72566 1.2609l.00515 1.6109-1.13503-.66009-.00516-1.61087c-.00515-.46321.31909-1.02421.7257-1.26093l6.5293-3.76741c.20073-.11836.386-.12867.51982-.05145z" fill="#5b5e71"/></g><g><path d="m16.54007 2.25851c.40417-.23335.73054-.04736.73186.41706l.00456 1.60852-1.09422.63175-.0035-1.23469-5.79817 3.35031.0035 1.23469-1.09423.63175-.00456-1.60852c-.00131-.46442.32294-1.02604.72711-1.25939z" fill="#525566"/></g></g></g><g><path d="m24.22543 15.03757c-.18527-.11574-.50182-.12675-.79123.04686l-11.6616 6.71646c-.59043.33577-1.06504 1.16926-1.06504 1.84074l.05787 22.5631c0 .3357.11574.57884.31259.68299l-.37509-.21951c-.19686-.10423-.3126-.34729-.3126-.68306l-.05787-22.5631c-.01159-.6714.47462-1.50496 1.05345-1.84067l11.64622-6.7261c.30101-.17368.56725-.18527.76411-.06946z" fill="#474b59"/><path d="m23.41848 15.07527c.58392-.33713 1.06592-.06245 1.06783.60851l.05743 22.57174c.0019.67097-.47697 1.5004-1.06089 1.83752l-11.64879 6.72544c-.58392.33712-1.06592.06245-1.06782-.60851l-.05744-22.57174c-.0019-.67096.47697-1.5004 1.06089-1.83752z" fill="#5b5e71"/></g><g><g><path d="m12.34764 23.12762c.16261-.09388.2887-.01356.2892.16479l.05225 20.74569c.00051.17836-.12471.4038-.28732.49768-.15522.08961-.2887.01353-.2892-.16482l-.05225-20.7457c-.00051-.17834.1321-.40802.28732-.49764z" fill="#3f434f"/></g><g><path d="m14.45417 21.91141c.15522-.08962.28131-.00929.28181.16906l.05225 20.7457c.00051.17835-.12471.40379-.27993.49341-.16261.09388-.2887.01353-.2892-.16482l-.05225-20.7457c-.0005-.17835.12471-.40376.28732-.49765z" fill="#3f434f"/></g><g><path d="m16.55332 20.69947c.15522-.08961.2887-.01356.2892.16479l.05225 20.7457c.00051.17836-.1321.40806-.28732.49768-.16261.09388-.2887.01353-.2892-.16482l-.05225-20.7457c-.00051-.17836.12471-.40377.28732-.49765z" fill="#3f434f"/></g><g><path d="m18.65247 19.48753c.15522-.08962.2887-.01356.2892.16479l.05225 20.74569c.00051.17836-.1321.40806-.28732.49768-.16261.09388-.2887.01353-.2892-.16482l-.05225-20.7457c-.00051-.17835.12471-.40376.28732-.49764z" fill="#3f434f"/></g><g><path d="m20.75162 18.27558c.15522-.08961.2887-.01356.2892.16479l.05225 20.74569c.00051.17836-.13211.40807-.28732.49768-.16261.09388-.2887.01353-.2892-.16482l-.05225-20.7457c-.00051-.17834.12471-.40376.28732-.49764z" fill="#3f434f"/></g><g><path d="m22.85077 17.06364c.16261-.09388.2887-.01356.2892.16479l.05225 20.7457c.00051.17835-.12471.40379-.28732.49768-.15522.08961-.2887.01353-.2892-.16482l-.05225-20.74569c-.00051-.17837.1321-.40805.28732-.49766z" fill="#3f434f"/></g></g></g><g><g><g><g><g><path d="m48.42828 18.10937c-.21304-.12622-.50497-.10257-.82059.07893l-20.54541 11.86647c-.63908.36296-1.15985 1.26237-1.15985 1.98828l.03949 16.64127c0 .36296.13412.61544.33926.74166l-3.10074-1.80678-.79689-.46553-1.98828-1.1598c-.20515-.11837-.33926-.37085-.33926-.73376l-.03944-16.63342c-.0079-.73376.52072-1.62533 1.1519-1.99618l20.54546-11.86647c.32347-.18145.61539-.19725.82843-.07888l2.01983 1.1756.78899.45763z" fill="#e74c3c"/><g><path d="m45.35118 16.31839-21.12926 12.20573c-.59175.33926-1.08882 1.19139-1.08882 1.86991l.04734 17.22517-.79689-.46553-.03944-16.75964c0-.9547.65483-2.08296 1.48331-2.55634l20.73477-11.97694z" fill="#c14242"/></g><g><path d="m47.60651 18.18936c.63634-.36739 1.15557-.07149 1.15764.6597l.04215 16.63635c.00207.7312-.51379 1.62471-1.15012 1.99209l-20.5493 11.86414c-.63634.36739-1.15981.07394-1.16188-.65725l-.04215-16.63636c-.00207-.7312.51803-1.62715 1.15437-1.99454z" fill="#c44"/></g></g></g><g><g enable-background="new"><g><path d="m40.53023 20.1756-.00102.15298-2.0868 1.21271.00102-.15298z" fill="#d4d6d6"/></g><g><path d="m38.44343 21.38831-.00102.15298-2.09481-1.20944.00103-.15298z" fill="#e0e2e2"/></g><g><path d="m40.53023 20.1756-2.0868 1.21271-2.0948-1.20944 2.08679-1.21271z" fill="#ecf0f1"/></g></g></g><g><g enable-background="new"><g><path d="m31.55004 25.25689-.00102.15298-2.0868 1.21272.00102-.15298z" fill="#d4d6d6"/></g><g><path d="m29.46324 26.46961-.00102.15298-2.09481-1.20944.00102-.15298z" fill="#e0e2e2"/></g><g><path d="m31.55004 25.25689-2.0868 1.21272-2.09481-1.20944 2.0868-1.21272z" fill="#ecf0f1"/></g></g></g><g><g enable-background="new"><g><path d="m38.32449 20.89902-.8831-.51234-.0089-2.38233c0-.15116-.05333-.24893-.13331-.30226l.8742.51234c.08887.04444.14221.1511.14221.30221z" fill="#3f434f"/></g><g><path d="m38.84009 17.07657c-.25777-.1511-.60447-.13331-.9956.09782l-7.12883 4.12023c-.77337.44447-1.40447 1.53784-1.39558 2.42677l.00884 2.37343-.8831-.51234-.0089-2.37343c0-.88893.62226-1.9823 1.40453-2.42677l7.11994-4.12023c.39113-.23113.74667-.24893.9956-.09782z" fill="#5b5e71"/></g><g><path d="m30.71777 21.29572c-.77479.44732-1.40226 1.53414-1.39974 2.42201l.00842 2.38081.93691-.54092-.00842-2.38082c-.00084-.29515.20902-.65863.46588-.80693l7.1233-4.12308c.25897-.14952.46809-.02793.46893.26723l.00842 2.38081.93691-.54092-.00842-2.38081c-.00252-.88787-.63408-1.24779-1.40888-.80046z" fill="#474b59"/></g></g></g></g><g><path d="m47.87824 20.24339c-.18808-.11749-.50943-.12868-.80323.04757l-19.10506 10.99146c-.59938.34086-1.08119 1.18699-1.08119 1.86865l.05875 13.90653c0 .34079.11749.58762.31734.69335l-.38078-.22284c-.19984-.1058-.31734-.35255-.31734-.69342l-.05875-13.90653c-.01176-.68158.48181-1.52778 1.06943-1.86857l19.08945-11.00125c.30557-.17631.57585-.18808.77569-.07051z" fill="#c14242"/><path d="m47.05906 20.28166c.59277-.34224 1.08208-.0634 1.08401.61774l.0583 13.91531c.00193.68114-.48421 1.52315-1.07698 1.86539l-19.09206 11.00057c-.59277.34224-1.08208.0634-1.08401-.61774l-.0583-13.91531c-.00193-.68114.4842-1.52315 1.07697-1.86539z" fill="#e74c3c"/></g></g><g><g><path d="m28.9221 32.38693c.17504-.10106.31664-.02684.31721.17429l.03705 13.06707c.00057.20113-.14013.44484-.31517.54589-.16939.0978-.31101.01709-.31158-.18404l-.03704-13.06707c-.00058-.20113.14014-.43834.30953-.53614z" fill="#c14242"/></g><g><path d="m31.15807 31.09599c.17504-.10106.31664-.02684.31721.17429l.03704 13.06707c.00057.20113-.14013.44484-.31517.54589s-.31101.01709-.31158-.18404l-.03705-13.06707c-.00056-.20113.13451-.43508.30955-.53614z" fill="#c14242"/></g><g><path d="m33.39403 29.80506c.17504-.10106.31664-.02685.31721.17429l.03704 13.06707c.00057.20113-.14013.44484-.31517.54589-.17504.10106-.31666.02035-.31723-.18078l-.03705-13.06707c-.00055-.20113.14016-.43834.3152-.5394z" fill="#c14242"/></g><g><path d="m35.63 28.51413c.16939-.0978.31099-.02359.31156.17755l.03705 13.06707c.00057.20113-.14013.44484-.30952.54263-.17504.10106-.31665.02035-.31723-.18078l-.03704-13.06707c-.00058-.20114.14014-.43835.31518-.5394z" fill="#c14242"/></g><g><path d="m37.86596 27.22319c.16939-.0978.31099-.02359.31156.17755l.03704 13.06707c.00057.20113-.14013.44484-.30952.54263-.17504.10106-.31665.02035-.31723-.18078l-.03704-13.06707c-.00056-.20113.14016-.43834.31519-.5394z" fill="#c14242"/></g><g><path d="m40.09628 25.93551c.17504-.10106.31664-.02684.31721.17429l.03704 13.06707c.00057.20113-.14013.44484-.31517.54589-.16939.0978-.31101.01709-.31158-.18404l-.03704-13.06707c-.00057-.20113.14015-.43834.30954-.53614z" fill="#c14242"/></g><g><path d="m42.33224 24.64458c.17504-.10106.31664-.02684.31721.17429l.03704 13.06707c.00057.20113-.14013.44484-.31517.54589s-.31101.01709-.31158-.18404l-.03704-13.06707c-.00056-.20113.13451-.43508.30954-.53614z" fill="#c14242"/></g><g><path d="m44.56821 23.35364c.17504-.10106.31099-.02358.31156.17755l.03705 13.06707c.00057.20113-.13448.44158-.30952.54263-.17504.10106-.31666.02035-.31723-.18078l-.03705-13.06707c-.00056-.20113.14015-.43834.31519-.5394z" fill="#c14242"/></g><g><path d="m46.80418 22.06271c.16939-.0978.31099-.02358.31156.17755l.03704 13.06707c.00057.20113-.14013.44484-.30952.54263-.17504.10106-.31666.02035-.31723-.18078l-.03704-13.06707c-.00057-.20113.14015-.43834.31519-.5394z" fill="#c14242"/></g></g></g></g></svg>