<svg id="Capa_1" enable-background="new 0 0 512 512" height="512" viewBox="0 0 512 512" width="512" xmlns="http://www.w3.org/2000/svg"><path d="m512 151h-66.73l-24.27-48.54v-32.67l-38.79-38.79h-51.21v71.46l-24.27 48.54h-5.73v-60h-45l-36.21 30h-50.5l-19.9 79.6 46.61 46.61 32.96-32.96 14.54 7.27 6.06 20.21-5.47 27.32-48.09-7.22-67.11 10.07-37.89 37.89v30l-15 15-29.83-29.83-46.17 44.68v72.72l39.93 38.64h51.07v-35.73l53.89-26.94 17-17.01 24.84 49.68h54.27v-60h5.73l9.27 18.54 15 30v41.46h51.21l42.04-42.04-30-60 17.96-17.96h30l23.79-23.79 23.79 23.79h82.21v-51.36l-31-30v-29.85l-19.58-19.58 50.58-24.87z" fill="#bce339"/><path d="m512 205.34-50.58 24.87 19.58 19.58v29.85l31 30v51.36h-82.21l-23.79-23.79-23.79 23.79h-30l-17.96 17.96 30 60-42.04 42.04h-51.21v-41.46l-15-30v-318.54h45v60h5.73l24.27-48.54v-71.46h51.21l38.79 38.79v32.67l24.27 48.54h66.73z" fill="#8dbc42"/><path d="m121 256h-51.213l-38.787-38.787v-42.426l60-60 30 30z" fill="#bce339"/></svg>