<?xml version="1.0" encoding="iso-8859-1"?>
<!-- Generator: Adobe Illustrator 19.0.0, SVG Export Plug-In . SVG Version: 6.00 Build 0)  -->
<svg version="1.1" id="Layer_1" xmlns="http://www.w3.org/2000/svg" xmlns:xlink="http://www.w3.org/1999/xlink" x="0px" y="0px"
	 viewBox="0 0 512 512" style="enable-background:new 0 0 512 512;" xml:space="preserve">
<polygon style="fill:#F18700;" points="512,288.415 228.614,124.802 228.614,124.802 228.614,31.641 207.938,19.704 0.106,140.484 
	0.106,233.645 0,270.909 0,317.489 25.933,332.462 51.564,317.489 51.612,300.707 278.213,431.535 278.213,477.324 304.145,492.296 
	329.777,477.324 329.907,431.438 460.303,355.66 460.303,371.901 486.236,386.874 511.867,371.901 512,325.321 511.896,325.26 "/>
<g style="enable-background:new    ;">
	<polygon style="fill:#A66206;" points="51.696,270.908 51.564,317.489 25.933,332.462 25.933,285.881 	"/>
	<g>
		<polygon style="fill:#D07400;" points="25.933,285.881 25.933,332.462 0,317.489 0,270.909 		"/>
		<polygon style="fill:#D07400;" points="51.696,270.908 25.933,285.881 0,270.909 25.764,255.937 		"/>
	</g>
</g>
<g style="enable-background:new    ;">
	<polygon style="fill:#A66206;" points="329.909,430.743 329.777,477.324 304.145,492.296 304.145,445.716 	"/>
	<g>
		<polygon style="fill:#D07400;" points="304.145,445.716 304.145,492.296 278.213,477.324 278.213,430.744 		"/>
		<polygon style="fill:#D07400;" points="329.909,430.743 304.145,445.716 278.213,430.744 303.976,415.772 		"/>
	</g>
	<polygon style="fill:#A66206;" points="512,325.321 511.867,371.901 486.236,386.874 486.236,340.293 	"/>
	<g>
		<polygon style="fill:#D07400;" points="486.236,340.293 486.236,386.874 460.303,371.901 460.303,325.321 		"/>
		<polygon style="fill:#D07400;" points="512,325.321 486.236,340.293 460.303,325.321 486.067,310.348 		"/>
	</g>
	<polygon style="fill:#A66206;" points="512,288.415 511.893,325.679 304.061,446.459 304.166,409.194 	"/>
	<polygon style="fill:#D07400;" points="304.166,409.194 304.061,446.459 0,270.909 0.106,233.645 	"/>
	<polygon style="fill:#F18700;" points="512,288.415 304.166,409.194 0.106,233.645 207.938,112.866 	"/>
	<polygon style="fill:#A66206;" points="228.614,31.641 228.614,124.802 20.781,245.582 20.781,152.421 	"/>
	<polygon style="fill:#D07400;" points="20.781,152.421 20.781,245.582 0.106,233.645 0.106,140.484 	"/>
	<polygon style="fill:#F18700;" points="228.614,31.641 20.781,152.421 0.106,140.484 207.938,19.704 	"/>
</g>
<path style="fill:#E0E0E2;" d="M494.178,247.989c0.284-3.314-1.745-6.686-6.13-9.218L246.622,99.383
	c-8.197-4.733-21.449-4.733-29.594,0L47.363,197.982c-4.061,2.359-6.083,5.449-6.079,8.541c0-0.01-0.002-0.021-0.002-0.03
	l-0.106,37.265c-0.008,3.122,2.052,6.249,6.179,8.631L288.78,391.775c8.202,4.734,21.449,4.737,29.597,0.002l169.665-98.599
	c4.046-2.351,6.071-5.428,6.079-8.511l0.106-37.265C494.227,247.599,494.195,247.794,494.178,247.989z"/>
<g style="enable-background:new    ;">
	<path style="fill:#ACABB1;" d="M41.175,243.757l0.106-37.265c-0.008,3.122,2.052,6.249,6.179,8.631l-0.106,37.265
		C43.228,250.006,41.166,246.88,41.175,243.757z"/>
	<path style="fill:#898890;" d="M494.227,247.404l-0.106,37.265c-0.008,3.082-2.034,6.16-6.079,8.511l0.106-37.265
		C492.194,253.564,494.219,250.487,494.227,247.404z"/>
	<polygon style="fill:#ACABB1;" points="488.148,255.915 488.042,293.178 318.377,391.777 318.483,354.514 	"/>
	<polygon style="fill:#C6C5CB;" points="288.884,354.512 288.779,391.775 47.353,252.388 47.459,215.124 	"/>
	<path style="fill:#D8D8DA;" d="M318.483,354.514l-0.106,37.265c-8.148,4.736-21.396,4.733-29.597-0.002l0.106-37.265
		C297.086,359.246,310.334,359.248,318.483,354.514z"/>
	<path style="fill:#E0E0E2;" d="M488.048,238.77c8.202,4.736,8.244,12.41,0.1,17.144l-169.665,98.599
		c-8.148,4.736-21.396,4.733-29.597-0.002L47.459,215.124c-8.197-4.733-8.244-12.406-0.096-17.142l169.665-98.599
		c8.144-4.733,21.396-4.733,29.594,0L488.048,238.77z"/>
</g>
<g>
</g>
<g>
</g>
<g>
</g>
<g>
</g>
<g>
</g>
<g>
</g>
<g>
</g>
<g>
</g>
<g>
</g>
<g>
</g>
<g>
</g>
<g>
</g>
<g>
</g>
<g>
</g>
<g>
</g>
</svg>
