<svg id="Capa_1" enable-background="new 0 0 512 512" height="512" viewBox="0 0 512 512" width="512" xmlns="http://www.w3.org/2000/svg"><path d="m359.401 301v-30h-68.79l-15-15 51.12-51.11 20.92-41.85-27.04-27.04h-27.42l-15 15h-14.52l-7.5-15 7.5-15h65.73v-48.54c-.08-.16-35.52-72.31-35.59-72.46h-73.06l-71.35 36.87v32.92l-17.96 17.96-53.5-26.75h-48.54v51.21l38.79 38.79h60l21.21 21.21v68.79h35.73l30 60h45l-23.98 47.96 31.09 31.09-12.84 38.52-17.11 51.32 17.11 17.68 23.64 24.43h51.36v-42.46l27.33-54.65 32.67-32.68v-81.21z" fill="#bce339"/><g fill="#8dbc42"><path d="m413.671 151h-54.271v-41.459l-15-30v-41.422l55.334-38.119h44.006l38.859 79.015-41.985 41.985h-11.942z"/><path d="m389.401 301v81.21l-32.67 32.68-27.33 54.65v42.46h-51.36l-23.64-24.43v-69l12.84-38.52-12.84-12.84v-54.75l5.73-11.46h-5.73v-301h39.41c.07.15 35.51 72.3 35.59 72.46v48.54h-65.73l-7.5 15 7.5 15h14.52l15-15h27.42l27.04 27.04-20.92 41.85-51.12 51.11 15 15h68.79v30z"/></g></svg>