<?xml version="1.0" encoding="UTF-8"?>
<!DOCTYPE svg PUBLIC "-//W3C//DTD SVG 1.1//EN" "http://www.w3.org/Graphics/SVG/1.1/DTD/svg11.dtd">
<!-- Creator: CorelDRAW 2018 (64 Bit) -->
<svg xmlns="http://www.w3.org/2000/svg" xml:space="preserve" width="128.389mm" height="37.4283mm" version="1.1" style="shape-rendering:geometricPrecision; text-rendering:geometricPrecision; image-rendering:optimizeQuality; fill-rule:evenodd; clip-rule:evenodd"
viewBox="0 0 15912.53 4638.88"
 xmlns:xlink="http://www.w3.org/1999/xlink">
 <defs>
  <style type="text/css">
   <![CDATA[
    .fil1 {fill:#9F0D1B}
    .fil3 {fill:#EF233C}
    .fil2 {fill:#5B5B5B;fill-rule:nonzero}
    .fil0 {fill:#EF233C;fill-rule:nonzero}
   ]]>
  </style>
 </defs>
 <g id="Capa_x0020_1">
  <metadata id="CorelCorpID_0Corel-Layer"/>
  <path class="fil0" d="M5309.02 2260.42c64.46,-140.78 203.16,-404.41 416.04,-789.91l313.53 -562.19 449.89 0 -376.15 1851.94 -331.63 0 194.35 -882.98c32.45,-147.87 73.74,-323.15 123.37,-525.83l-10.66 0c-90.01,195.58 -263.92,524.88 -521.8,987.85l-239.33 420.95 -221.23 0 -145.65 -1000.62c-19.93,-133.69 -37.57,-269.76 -52.86,-408.19l-11.13 0c-11.59,136.53 -35.25,298.11 -70.51,485.67l-183.2 923.13 -331.64 0 376.15 -1851.94 428.1 0 81.64 517.77c33.38,215.9 68.19,494.18 104.83,834.33l7.88 0zm1852.71 -606.13c-43.59,0 -83.47,8.97 -119.66,26.45 -36.18,17.49 -68.64,41.58 -97.88,72.77 -28.74,30.7 -53.79,66.61 -75.15,107.23 -21.33,40.64 -39.4,84.09 -53.79,130.87 -14.38,46.3 -25.51,94.02 -32.45,143.14 -7.44,48.67 -11.13,96.86 -11.13,143.63 0,77 17.62,136.99 52.39,181.41 34.79,44.41 90.01,66.62 165.13,66.62 43.6,0 83.49,-8.99 119.65,-26.47 36.2,-17.48 68.66,-41.56 97.86,-72.74 28.77,-30.71 54.29,-66.62 76.09,-107.26 21.78,-40.62 39.4,-84.08 53.8,-130.86 13.91,-46.3 24.59,-94.48 31.52,-143.61 7.42,-49.63 11.14,-97.8 11.14,-144.58 0,-76.06 -17.64,-135.58 -52.89,-180 -35.72,-44.4 -90.43,-66.61 -164.64,-66.61zm27.37 -268.34c77.91,0 148.42,10.39 211.05,31.65 63.07,21.24 116.86,52.91 161.87,94.95 44.98,42.04 79.31,94.96 103.89,159.21 24.59,64.25 36.62,138.43 36.62,223.46 0,118.12 -15.75,231.5 -47.3,339.67 -32,108.67 -78.84,204.11 -140.99,287.24 -61.69,83.14 -139.14,149.29 -231.43,198.89 -92.3,49.14 -199.44,73.71 -320.97,73.71 -76.98,0 -147.03,-10.4 -210.56,-31.64 -63.07,-21.28 -117.35,-52.92 -162.35,-94.96 -44.53,-42.05 -79.3,-94.98 -103.89,-158.26 -24.59,-63.79 -36.64,-138.44 -36.64,-224.42 0,-118.1 15.77,-231.5 47.77,-339.68 31.56,-108.65 78.39,-204.08 140.52,-287.23 62.17,-83.15 139.15,-149.29 231.45,-198.43 92.78,-49.61 199.44,-74.17 320.97,-74.17zm1640.72 332.11c-49.15,-22.19 -97.85,-38.26 -146.09,-48.66 -48.68,-9.92 -92.3,-15.11 -131.27,-15.11 -59.83,0 -113.17,9.92 -159.55,29.76 -46.85,19.84 -87.65,46.3 -122.45,78.89 -34.77,32.61 -64.47,70.41 -88.12,111.97 -24.11,42.07 -43.58,85.52 -58.44,129.46 -15.31,44.41 -25.97,87.86 -32.94,130.87 -6.47,42.99 -10.18,82.2 -10.18,117.16 0,52.44 6.48,96.38 18.99,132.28 13,35.42 30.63,63.31 53.36,84.09 22.27,20.77 49.63,35.43 80.71,44.41 31.08,8.97 64.93,13.24 101.11,13.24 60.76,0 124.3,-8.53 190.17,-25.52 66.31,-17 132.17,-41.1 198.49,-71.34l-58.44 287.7c-46.38,19.37 -103.42,37.33 -171.14,53.39 -68.19,16.05 -140.54,24.09 -217.54,24.09 -66.79,0 -131.72,-9.43 -194.34,-28.8 -62.6,-19.37 -117.81,-50.08 -165.57,-92.14 -48.24,-42.04 -86.75,-96.38 -115.49,-162.51 -29.23,-66.63 -43.6,-147.41 -43.6,-242.37 0,-61.9 6.04,-126.62 18.55,-194.65 12.05,-67.55 31.06,-134.15 57.51,-199.37 26.42,-64.71 59.84,-127.08 101.11,-186.62 41.28,-59.5 90.46,-111.48 147.49,-156.36 57.04,-44.88 123.38,-80.3 199,-106.77 76.06,-25.98 159.52,-39.2 250.89,-39.2 51.48,0 111.34,6.61 178.59,19.84 67.71,13.68 125.22,30.7 173.45,51.97l-54.27 260.3zm990.94 225.36c5.58,-28.35 9.75,-53.86 12.99,-76.53 3.25,-22.68 4.65,-41.58 4.65,-57.64 0,-46.76 -12.54,-83.15 -38.05,-109.13 -25.48,-25.99 -65.39,-38.74 -119.66,-38.74 -65.85,0 -127.53,18.43 -184.6,55.28 -57.02,36.86 -104.83,86.93 -142.83,149.29 -6.98,12.29 -14.39,25.05 -20.88,38.74 -6.94,14.17 -13.44,29.76 -19.94,47.26 -6.04,17.46 -12.53,37.78 -18.08,59.99 -6.04,22.67 -12.06,49.6 -18.55,79.84l-135.9 668.5 -320.51 0 407.69 -2004.08 320.51 0 -127.53 626.93c-10.21,52.44 -28.31,120.95 -54.27,205.03l5.09 0c21.79,-26.93 47.3,-52.44 77,-77 29.21,-24.58 61.67,-45.82 96.93,-64.25 35.25,-18.42 73.73,-33.55 115.03,-44.41 41.26,-10.87 84.4,-16.53 129.86,-16.53 51.47,0 100.19,7.56 146.09,22.68 45.46,15.11 85.79,37.8 120.61,67.09 34.78,29.76 62.6,65.66 82.53,108.19 19.5,42.51 29.71,91.17 29.71,146.45 0,34.48 -3.26,72.28 -9.75,113.85 -6.04,41.1 -13.45,82.68 -21.33,124.26l-161.87 791.79 -320.51 0 165.58 -816.84zm711.27 -831.48l70.97 -355.76 336.72 0 -70.51 355.76 -337.18 0zm-328.85 1648.32l274.58 -1341.25 320.97 0 -274.59 1341.25 -320.96 0zm956.18 -2004.08l320.93 0 -324.66 1590.23c-7.42,36.84 -11.14,63.77 -11.14,80.3 0,25.99 7.91,44.42 23.21,56.23 15.32,11.34 38.48,16.99 69.11,16.99 31.08,0 63.07,-3.78 96.48,-10.86l-58.45 274.02c-20.86,4.71 -47.3,8.49 -79.78,12.27 -32.93,3.78 -63.99,5.68 -94.15,5.68 -96.02,0 -167.9,-21.73 -216.61,-65.66 -48.23,-43.95 -72.81,-108.2 -72.81,-193.24 0,-44.4 6.02,-94.48 17.64,-150.71l330.24 -1615.25zm1175.05 996.38c0,-30.24 -12.05,-56.69 -35.24,-78.9 -23.65,-22.21 -59.38,-33.07 -107.59,-33.07 -36.18,0 -73.29,7.08 -110.86,22.19 -37.57,14.66 -72.81,36.39 -105.76,65.68 -32.92,28.83 -62.59,64.72 -89.04,106.3 -26.42,42.04 -47.31,90.23 -62.63,145.04 96.02,0 176.71,-6.62 242.13,-19.37 64.93,-13.24 117.81,-30.24 157.7,-51.5 39.88,-21.27 68.17,-45.35 85.32,-72.74 17.15,-26.94 25.97,-54.82 25.97,-83.62zm323.3 0c0,74.62 -17.64,141.71 -53.8,201.24 -35.72,59.54 -88.59,110.55 -158.16,152.6 -69.59,42.05 -155.83,73.71 -258.34,95.92 -102.03,22.21 -219.86,33.54 -352.98,33.54 -15.75,0 -34.78,-0.48 -58.43,-1.41l0 8.03c0,49.12 6.95,91.64 20.87,128.02 13.91,36.39 34.32,66.15 61.23,89.3 26.9,23.15 58.9,40.14 96.93,50.54 38.05,10.87 80.71,16.08 128.02,16.08 70.5,0 144.7,-8.99 222.62,-26.47 77.92,-17.48 146.11,-41.1 204.08,-70.39l-58.43 287.7c-56.13,23.15 -120.61,42.07 -192.52,56.23 -71.89,14.18 -148.86,21.26 -230.03,21.26 -96.95,0 -181.35,-13.24 -252.78,-40.16 -71.89,-26.45 -130.81,-64.25 -177.64,-112.44 -46.38,-48.65 -81.16,-106.3 -103.89,-172.44 -22.73,-66.61 -33.85,-139.83 -33.85,-220.16 0,-70.87 7.42,-141.74 21.78,-211.64 14.39,-70.41 35.72,-137.47 64.03,-201.73 27.82,-63.79 62.61,-123.32 104.35,-178.6 41.74,-54.79 89.98,-102.03 144.7,-142.2 54.73,-40.16 116.43,-71.8 184.14,-94.95 68.18,-23.15 141.92,-34.49 221.72,-34.49 69.57,0 132.65,8.5 188.75,25.98 56.13,17.95 103.91,42.51 143.34,74.18 39.44,32.13 70.03,70.39 91.83,115.75 21.81,45.34 32.47,95.42 32.47,150.71zm976.1 -52.45c-38.97,-9.44 -76.55,-13.7 -112.71,-13.7 -32.46,0 -65.39,3.3 -99.25,10.86 -33.4,7.57 -65.87,19.37 -97.88,35.92 -31.52,16.53 -61.21,38.72 -89.52,65.68 -28.26,27.38 -52.39,61.4 -73.26,102.03 -10.21,19.37 -19.95,42.52 -29.23,70.39 -9.74,27.89 -19.47,66.15 -29.23,114.81l-137.28 674.17 -320.97 0 273.19 -1341.25 273.19 0 0 169.13 5.56 0c51.47,-63.78 108.98,-113.37 172.54,-148.82 63.53,-35.91 137.73,-53.38 222.61,-53.38 33.87,0 68.68,2.83 104.84,8.02l-62.61 306.15zm654.22 -45.82c-43.63,0 -83.49,8.97 -119.69,26.45 -36.17,17.49 -68.63,41.58 -97.85,72.77 -28.75,30.7 -53.81,66.61 -75.15,107.23 -21.33,40.64 -39.4,84.09 -53.8,130.87 -14.39,46.3 -25.51,94.02 -32.46,143.14 -7.41,48.67 -11.12,96.86 -11.12,143.63 0,77 17.61,136.99 52.4,181.41 34.78,44.41 89.97,66.62 165.1,66.62 43.61,0 83.5,-8.99 119.66,-26.47 36.18,-17.48 68.65,-41.56 97.88,-72.74 28.74,-30.71 54.27,-66.62 76.06,-107.26 21.79,-40.62 39.43,-84.08 53.79,-130.86 13.92,-46.3 24.61,-94.48 31.56,-143.61 7.41,-49.63 11.13,-97.8 11.13,-144.58 0,-76.06 -17.64,-135.58 -52.87,-180 -35.73,-44.4 -90.44,-66.61 -164.64,-66.61zm27.37 -268.34c77.9,0 148.41,10.39 211.02,31.65 63.09,21.24 116.89,52.91 161.88,94.95 44.98,42.04 79.31,94.96 103.87,159.21 24.59,64.25 36.65,138.43 36.65,223.46 0,118.12 -15.75,231.5 -47.31,339.67 -32,108.67 -78.86,204.11 -141.01,287.24 -61.67,83.14 -139.12,149.29 -231.43,198.89 -92.3,49.14 -199.43,73.71 -320.96,73.71 -77,0 -147.03,-10.4 -210.56,-31.64 -63.09,-21.28 -117.35,-52.92 -162.34,-94.96 -44.54,-42.05 -79.32,-94.98 -103.9,-158.26 -24.59,-63.79 -36.64,-138.44 -36.64,-224.42 0,-118.1 15.75,-231.5 47.78,-339.68 31.52,-108.65 78.38,-204.08 140.51,-287.23 62.16,-83.15 139.16,-149.29 231.46,-198.43 92.77,-49.61 199.42,-74.17 320.97,-74.17zm1190.82 967.54c0,-27.87 -8.79,-50.54 -25.97,-68.03 -17.17,-17.48 -39.44,-33.07 -66.32,-46.3 -27.38,-13.22 -58.44,-25.51 -93.23,-36.84 -34.8,-10.88 -70.04,-23.15 -105.29,-37.33 -32.46,-12.75 -64,-27.86 -94.62,-45.35 -30.14,-17.96 -57.53,-39.69 -81.64,-66.13 -23.65,-25.99 -42.69,-57.17 -57.04,-93.08 -13.91,-36.38 -20.88,-79.36 -20.88,-130.4 0,-75.58 13.91,-141.25 42.21,-197 27.82,-55.74 65.39,-102.04 112.71,-138.42 47.3,-36.39 102.03,-63.77 164.16,-81.73 62.64,-17.95 128.5,-26.93 197.13,-26.93 38.97,0 78.39,2.37 117.83,7.56 39.43,5.21 77.91,11.81 115.49,20.8 37.57,8.49 73.29,18.89 108.06,30.22 34.33,11.82 65.39,24.58 93.7,38.27l-51.96 256.06c-67.71,-28.82 -134.51,-50.57 -200.36,-65.19 -65.42,-14.66 -127.55,-22.21 -185.51,-22.21 -62.17,0 -110.41,13.24 -144.74,38.74 -33.84,25.98 -50.56,59.53 -50.56,101.09 0,25.05 6.04,45.85 18.1,63.31 12.05,17.02 28.77,31.67 49.18,44.88 20.4,12.75 43.58,24.12 70.48,34.49 26.91,9.93 54.73,20.78 83.5,31.67 37.11,14.17 74.66,29.29 112.71,45.81 38.02,16.53 72.8,38.74 103.43,65.68 30.6,27.4 56.1,60.95 75.59,100.63 19.48,39.69 29.23,89.29 29.23,149.3 0,76.52 -14.38,144.09 -43.14,202.21 -28.28,58.09 -69.08,106.76 -121.52,146.45 -52.4,39.69 -115.03,69.44 -187.37,89.27 -72.83,19.86 -153.05,29.77 -242.11,29.77 -49.63,0 -96.93,-2.84 -140.99,-8.04 -44.54,-5.65 -84.89,-12.75 -120.58,-20.76 -35.73,-8.51 -66.82,-17.02 -93.7,-26.47 -26.45,-8.97 -47.78,-17.48 -63.1,-25.02l52.89 -261.27c59.83,23.61 120.14,42.52 181.35,55.74 61.23,13.72 122.9,20.34 185.51,20.34 90.46,0 159.56,-15.6 206.41,-46.3 47.3,-31.18 70.96,-74.19 70.96,-129.46z"/>
  <polygon class="fil1" points="931.13,23.87 907.24,47.75 883.37,71.63 859.5,95.5 835.63,119.37 835.63,214.88 787.88,214.88 740.12,238.75 716.25,262.62 716.25,382 740.12,405.87 764.01,429.75 886.74,430.4 859.5,501.36 787.88,525.25 740.12,549.12 692.37,549.12 692.37,501.36 692.37,382 668.51,358.13 644.63,334.24 573,334.24 525.25,358.13 477.51,382 429.75,405.87 382,429.75 334.25,453.62 286.5,477.49 238.76,501.36 191,525.25 143.25,549.12 119.38,573 95.51,692.37 71.63,835.62 47.75,978.87 23.88,1098.24 -0,1241.49 -0,1313.11 23.88,1360.87 47.75,1408.62 71.63,1456.36 95.51,1504.12 119.38,1551.87 119.38,1647.37 95.51,1671.24 71.63,1695.12 71.63,1838.36 95.51,1886.11 119.38,1933.87 143.25,1981.62 167.12,2029.36 214.88,2053.23 238.76,2077.12 262.63,2100.99 382,2100.99 528,2077.25 501.38,2268.11 477.51,2554.62 453.63,2602.36 429.75,2650.12 405.88,2721.74 382,2769.48 358.13,2817.24 334.25,2864.99 310.38,2912.74 286.5,2960.49 262.63,3055.99 238.76,3151.48 214.88,3246.99 191,3366.36 191,3557.36 191,3700.61 167.12,3748.35 167.12,3843.86 238.76,3867.73 405.88,3867.73 453.63,3867.73 811.75,3867.73 859.5,3843.86 883.37,3819.98 883.37,3724.48 859.5,3700.61 716.25,3676.74 692.37,3652.86 644.63,3628.99 620.76,3605.12 596.87,3437.98 596.87,3390.24 620.76,3199.24 644.63,3032.11 668.51,3008.23 692.37,2984.36 716.25,2960.49 740.12,2912.74 764.01,2888.86 787.88,2864.99 811.75,2817.24 835.63,2769.48 859.5,2697.86 883.37,2650.12 907.24,2578.48 931.13,2530.74 955,2482.98 978.88,2459.11 1002.75,2435.24 1026.62,2459.11 1050.51,2482.98 1074.38,2506.87 1098.25,2530.74 1146,2554.62 1169.87,2578.48 1193.74,2602.36 1217.63,2626.23 1241.5,2650.12 1265.37,2673.99 1289.24,2697.86 1313.12,2721.74 1336.99,2769.48 1360.88,2841.11 1384.75,2888.86 1408.62,2960.49 1432.5,3008.23 1456.37,3079.87 1480.24,3127.61 1504.12,3199.24 1528,3246.99 1551.87,3294.73 1575.75,3366.36 1599.62,3414.11 1623.5,3581.23 1647.37,3605.12 1671.25,3628.99 1695.12,3700.61 1718.99,3772.24 1790.63,3772.24 1838.37,3748.35 1910,3724.48 2005.5,3700.61 2101,3676.74 2148.74,3652.86 2172.63,3628.99 2196.5,3605.12 2220.37,3581.23 2244.24,3557.36 2268.12,3533.48 2268.12,3390.24 2148.74,3390.24 1930.28,3412.92 1957.75,3366.36 1957.75,3270.86 1933.87,3246.99 1910,3223.11 1886.12,3199.24 1862.24,3175.36 1838.37,3103.74 1814.49,3032.11 1790.63,2960.49 1766.75,2888.86 1742.87,2817.24 1718.99,2745.61 1695.12,2626.23 1671.25,2578.48 1647.37,2554.62 1623.5,2530.74 1599.62,2482.98 1575.75,2459.11 1551.87,2411.36 1528,2387.49 1504.12,2339.75 1480.24,2315.86 1456.37,2268.11 1432.5,2244.24 1408.62,2196.48 1384.75,2172.61 1360.88,2124.87 1336.99,2077.12 1313.12,2029.36 1289.24,1957.74 1265.37,1886.11 1241.5,1814.5 1217.63,1742.86 1193.74,1647.37 1193.74,1313.11 1217.63,1217.62 1241.5,1145.99 1241.5,859.5 1217.63,787.86 1193.74,740.12 1169.87,716.24 1146,668.5 1122.12,644.63 1122.12,620.74 1146,596.87 1241.5,573 1265.37,525.25 1289.24,501.36 1313.12,429.75 1313.12,286.5 1313.12,238.75 1313.12,119.37 1289.24,71.63 1265.37,47.75 1217.63,23.87 1122.12,0 1026.62,0 "/>
  <path class="fil2" d="M9706.65 3569.41l219.36 0 -44.82 217.68 -219.36 0 44.82 -217.68zm1048.88 -396.4c-29.51,-13.08 -58.74,-22.56 -87.69,-28.67 -29.23,-5.84 -55.39,-8.92 -78.78,-8.92 -35.91,0 -67.91,5.86 -95.76,17.56 -28.11,11.68 -52.61,27.27 -73.48,46.48 -20.87,19.21 -38.71,41.47 -52.9,65.96 -14.48,24.78 -26.16,50.41 -35.06,76.29 -9.2,26.15 -15.59,51.78 -19.77,77.1 -3.9,25.33 -6.12,48.44 -6.12,69.03 0,30.9 3.9,56.79 11.41,77.95 7.8,20.87 18.37,37.29 32,49.53 13.36,12.26 29.8,20.9 48.44,26.18 18.65,5.29 38.97,7.8 60.68,7.8 36.48,0 74.6,-4.99 114.15,-15.03 39.8,-10.01 79.32,-24.21 119.12,-42.02l-35.06 169.51c-27.85,11.41 -62.07,21.99 -102.71,31.44 -40.93,9.48 -84.37,14.22 -130.56,14.22 -40.08,0 -79.07,-5.58 -116.63,-16.99 -37.59,-11.41 -70.71,-29.51 -99.4,-54.27 -28.94,-24.79 -52.05,-56.79 -69.31,-95.76 -17.53,-39.26 -26.16,-86.86 -26.16,-142.82 0,-36.46 3.62,-74.59 11.13,-114.68 7.24,-39.8 18.65,-79.05 34.53,-117.47 15.88,-38.14 35.91,-74.88 60.67,-109.95 24.79,-35.08 54.3,-65.69 88.54,-92.14 34.22,-26.45 74.02,-47.32 119.4,-62.91 45.66,-15.31 95.76,-23.1 150.59,-23.1 30.91,0 66.8,3.89 107.17,11.69 40.64,8.08 75.17,18.1 104.11,30.63l-32.56 153.38zm511.06 -37.59c-26.16,0 -50.1,5.3 -71.8,15.6 -21.71,10.29 -41.21,24.5 -58.74,42.87 -17.28,18.1 -32.31,39.24 -45.1,63.17 -12.82,23.95 -23.67,49.56 -32.29,77.13 -8.64,27.27 -15.31,55.39 -19.5,84.34 -4.45,28.67 -6.67,57.05 -6.67,84.61 0,45.39 10.57,80.72 31.44,106.9 20.88,26.16 54.01,39.24 99.09,39.24 26.18,0 50.12,-5.28 71.82,-15.58 21.71,-10.31 41.21,-24.5 58.74,-42.87 17.25,-18.1 32.57,-39.25 45.66,-63.2 13.08,-23.93 23.65,-49.54 32.29,-77.1 8.35,-27.29 14.75,-55.67 18.94,-84.61 4.45,-29.24 6.67,-57.62 6.67,-85.18 0,-44.82 -10.57,-79.88 -31.72,-106.06 -21.45,-26.16 -54.3,-39.26 -98.84,-39.26zm16.43 -158.1c46.76,0 89.08,6.11 126.67,18.65 37.84,12.53 70.14,31.18 97.13,55.95 27.01,24.78 47.59,55.96 62.34,93.82 14.76,37.84 22.01,81.54 22.01,131.65 0,69.59 -9.47,136.41 -28.41,200.15 -19.21,64.02 -47.31,120.25 -84.61,169.24 -37.02,49.01 -83.5,87.96 -138.9,117.19 -55.39,28.95 -119.7,43.44 -192.63,43.44 -46.22,0 -88.23,-6.14 -126.38,-18.65 -37.86,-12.53 -70.42,-31.18 -97.43,-55.95 -26.71,-24.79 -47.61,-55.96 -62.35,-93.27 -14.75,-37.58 -21.99,-81.55 -21.99,-132.22 0,-69.58 9.47,-136.4 28.67,-200.14 18.93,-64.03 47.05,-120.27 84.35,-169.24 37.31,-49.01 83.5,-87.99 138.9,-116.93 55.67,-29.23 119.7,-43.7 192.63,-43.7zm1148.8 137.8c33.69,-44.54 73.48,-78.79 119.14,-102.44 45.66,-23.67 94.1,-35.36 145.32,-35.36 32,0 60.95,4.45 87.12,13.37 26.16,8.9 48.72,22.27 67.65,39.52 19.21,17.53 33.69,38.68 43.97,63.74 10.3,25.05 15.6,53.72 15.6,86.29 0,20.33 -1.97,42.6 -5.58,67.09 -3.9,24.23 -8.37,48.71 -13.08,73.2l-97.16 466.55 -192.36 0 96.04 -463.2c5.58,-26.18 9.2,-47.05 11.13,-62.91 1.96,-15.58 2.78,-28.95 2.78,-39.81 0,-11.41 -1.38,-21.99 -4.44,-31.72 -3.07,-10.04 -7.8,-18.38 -14.22,-25.89 -6.67,-7.24 -15.28,-13.1 -26.16,-17.55 -10.86,-4.16 -24.21,-6.4 -40.08,-6.4 -32.56,0 -63.18,9.2 -92.14,27.56 -28.67,18.65 -53.43,43.97 -74.04,75.99 -10.86,16.15 -20.31,34.8 -28.67,55.39 -8.08,20.61 -15.03,45.37 -21.14,74.33l-85.74 414.21 -192.36 0 96.31 -463.2c5.3,-26.18 8.92,-47.05 10.86,-62.91 1.96,-15.58 3.06,-28.95 3.06,-39.81 0,-11.41 -1.66,-21.99 -4.72,-31.72 -2.8,-10.04 -7.51,-18.38 -14.22,-25.89 -6.4,-7.24 -15.03,-13.1 -26.16,-17.55 -10.86,-4.16 -23.93,-6.4 -39.8,-6.4 -30.07,0 -58.46,7.8 -85.18,23.66 -26.99,15.59 -50.65,37.59 -71.53,65.13 -12.82,18.1 -24.52,38.42 -34.24,61.54 -9.74,23.09 -17.81,50.37 -24.49,81.28l-86.3 415.87 -192.63 0 163.96 -790.28 163.95 0 0 99.66 3.33 0c13.1,-15.88 28.41,-30.91 45.66,-45.37 17.54,-14.48 36.18,-27.02 56.79,-37.86 20.31,-10.86 42.03,-19.76 65.42,-26.15 23.39,-6.42 47.59,-9.75 72.64,-9.75 48.44,0 89.36,11.69 123.32,35.36 33.69,23.65 56.8,57.89 69.31,102.44l3.06 0zm693.4 454.29l219.36 0 -44.82 217.68 -219.36 0 44.82 -217.68zm1144.07 -454.29c33.69,-44.54 73.48,-78.79 119.14,-102.44 45.66,-23.67 94.1,-35.36 145.32,-35.36 32,0 60.95,4.45 87.12,13.37 26.16,8.9 48.72,22.27 67.65,39.52 19.21,17.53 33.69,38.68 43.99,63.74 10.29,25.05 15.59,53.72 15.59,86.29 0,20.33 -1.96,42.6 -5.58,67.09 -3.9,24.23 -8.37,48.71 -13.08,73.2l-97.16 466.55 -192.36 0 96.04 -463.2c5.58,-26.18 9.2,-47.05 11.13,-62.91 1.96,-15.58 2.78,-28.95 2.78,-39.81 0,-11.41 -1.38,-21.99 -4.44,-31.72 -3.07,-10.04 -7.8,-18.38 -14.2,-25.89 -6.68,-7.24 -15.29,-13.1 -26.18,-17.55 -10.86,-4.16 -24.21,-6.4 -40.08,-6.4 -32.56,0 -63.18,9.2 -92.14,27.56 -28.67,18.65 -53.43,43.97 -74.04,75.99 -10.86,16.15 -20.31,34.8 -28.67,55.39 -8.08,20.61 -15.03,45.37 -21.14,74.33l-85.74 414.21 -192.36 0 96.31 -463.2c5.3,-26.18 8.92,-47.05 10.86,-62.91 1.96,-15.58 3.06,-28.95 3.06,-39.81 0,-11.41 -1.66,-21.99 -4.72,-31.72 -2.8,-10.04 -7.51,-18.38 -14.22,-25.89 -6.4,-7.24 -15.03,-13.1 -26.16,-17.55 -10.86,-4.16 -23.93,-6.4 -39.8,-6.4 -30.07,0 -58.45,7.8 -85.18,23.66 -26.98,15.59 -50.65,37.59 -71.53,65.13 -12.82,18.1 -24.5,38.42 -34.24,61.54 -9.73,23.09 -17.81,50.37 -24.49,81.28l-86.3 415.87 -192.63 0 163.96 -790.28 163.95 0 0 99.66 3.33 0c13.1,-15.88 28.41,-30.91 45.66,-45.37 17.54,-14.48 36.19,-27.02 56.79,-37.86 20.31,-10.86 42.03,-19.76 65.42,-26.15 23.39,-6.42 47.59,-9.75 72.64,-9.75 48.45,0 89.36,11.69 123.33,35.36 33.67,23.65 56.79,57.89 69.31,102.44l3.05 0zm1094.54 671.97l-149.21 -266.68 -237.46 266.68 -229.09 0 375.24 -412.54 -221.85 -377.75 206.26 0 144.48 254.42 229.93 -254.42 233.26 0 -370.21 399.74 226.58 390.54 -207.92 0z"/>
  <polygon class="fil3" points="2668.77,138.27 2640.81,166.23 2612.85,194.18 2584.9,222.13 2556.95,250.09 2556.95,361.91 2501.04,361.91 2445.13,389.85 2417.17,417.8 2417.17,557.58 2445.13,585.53 2473.09,613.49 2616.8,614.25 2584.9,697.35 2501.04,725.31 2445.13,753.26 2389.22,753.26 2389.22,697.35 2389.22,557.58 2361.27,529.63 2333.31,501.67 2249.46,501.67 2193.55,529.63 2137.64,557.58 2081.73,585.53 2025.82,613.49 1969.92,641.44 1914,669.39 1858.1,697.35 1802.19,725.31 1746.28,753.26 1718.32,781.22 1690.37,920.98 1662.41,1088.7 1634.46,1256.43 1606.52,1396.2 1578.55,1563.93 1578.55,1647.79 1606.52,1703.7 1634.46,1759.61 1662.41,1815.52 1690.37,1871.43 1718.32,1927.33 1718.32,2039.14 1690.37,2067.1 1662.41,2095.06 1662.41,2262.78 1690.37,2318.69 1718.32,2374.6 1746.28,2430.51 1774.23,2486.42 1830.14,2514.37 1858.1,2542.33 1886.05,2570.28 2025.82,2570.28 2196.76,2542.48 2165.59,2765.95 2137.64,3101.41 2109.69,3157.31 2081.73,3213.23 2053.78,3297.09 2025.82,3353 1997.87,3408.91 1969.92,3464.82 1941.96,3520.71 1914,3576.63 1886.05,3688.44 1858.1,3800.26 1830.14,3912.08 1802.19,4051.85 1802.19,4275.48 1802.19,4443.2 1774.23,4499.11 1774.23,4610.93 1858.1,4638.88 2053.78,4638.88 2109.69,4638.88 2528.99,4638.88 2584.9,4610.93 2612.85,4582.97 2612.85,4471.15 2584.9,4443.2 2417.17,4415.25 2389.22,4387.29 2333.31,4359.34 2305.37,4331.39 2277.4,4135.7 2277.4,4079.81 2305.37,3856.17 2333.31,3660.49 2361.27,3632.53 2389.22,3604.57 2417.17,3576.63 2445.13,3520.71 2473.09,3492.76 2501.04,3464.82 2528.99,3408.91 2556.95,3353 2584.9,3269.13 2612.85,3213.23 2640.81,3129.36 2668.77,3073.45 2696.72,3017.54 2724.68,2989.59 2752.63,2961.64 2780.58,2989.59 2808.54,3017.54 2836.49,3045.5 2864.44,3073.45 2920.36,3101.41 2948.31,3129.36 2976.25,3157.31 3004.22,3185.27 3032.16,3213.23 3060.13,3241.18 3088.07,3269.13 3116.03,3297.09 3143.98,3353 3171.94,3436.85 3199.89,3492.76 3227.84,3576.63 3255.8,3632.53 3283.75,3716.4 3311.71,3772.3 3339.66,3856.17 3367.62,3912.08 3395.57,3967.98 3423.53,4051.85 3451.48,4107.76 3479.43,4303.43 3507.39,4331.39 3535.35,4359.34 3563.3,4443.2 3591.25,4527.07 3675.12,4527.07 3731.01,4499.11 3814.88,4471.15 3926.7,4443.2 4038.52,4415.25 4094.42,4387.29 4122.38,4359.34 4150.33,4331.39 4178.28,4303.43 4206.24,4275.48 4234.2,4247.52 4234.2,4079.81 4094.42,4079.81 3838.64,4106.36 3870.79,4051.85 3870.79,3940.03 3842.83,3912.08 3814.88,3884.12 3786.94,3856.17 3758.98,3828.22 3731.01,3744.35 3703.07,3660.49 3675.12,3576.63 3647.16,3492.76 3619.21,3408.91 3591.25,3325.04 3563.3,3185.27 3535.35,3129.36 3507.39,3101.41 3479.43,3073.45 3451.48,3017.54 3423.53,2989.59 3395.57,2933.68 3367.62,2905.72 3339.66,2849.82 3311.71,2821.86 3283.75,2765.95 3255.8,2738 3227.84,2682.09 3199.89,2654.13 3171.94,2598.24 3143.98,2542.33 3116.03,2486.42 3088.07,2402.55 3060.13,2318.69 3032.16,2234.83 3004.22,2150.96 2976.25,2039.14 2976.25,1647.79 3004.22,1535.97 3032.16,1452.11 3032.16,1116.67 3004.22,1032.8 2976.25,976.9 2948.31,948.94 2920.36,893.03 2892.4,865.08 2892.4,837.12 2920.36,809.17 3032.16,781.22 3060.13,725.31 3088.07,697.35 3116.03,613.49 3116.03,445.76 3116.03,389.85 3116.03,250.09 3088.07,194.18 3060.13,166.23 3004.22,138.27 2892.4,110.32 2780.58,110.32 "/>
 </g>
</svg>
