<svg width="120" height="37" xmlns="http://www.w3.org/2000/svg" xmlns:xlink="http://www.w3.org/1999/xlink"><defs><path id="a" d="M0 35.927h119.276V0H0z"/></defs><g transform="translate(0 1)" fill="none" fill-rule="evenodd"><path d="M11.305 35.832C4.935 35.832 0 30.85 0 24.43c0-6.704 4.886-11.687 11.496-11.687 1.917 0 3.259.335 4.887 1.196v6.515c-1.389-1.005-2.444-1.387-3.736-1.387-2.971 0-5.03 2.203-5.03 5.269 0 3.018 2.108 5.22 5.03 5.22 1.389 0 2.538-.432 3.736-1.436v6.514c-1.82.862-3.258 1.198-5.078 1.198" fill="#302A3D"/><path d="M27.975 19.306c-2.587 0-4.695 2.203-4.695 4.934 0 2.73 2.108 4.933 4.695 4.933s4.694-2.203 4.694-4.933-2.107-4.934-4.694-4.934m0 16.621c-7.282 0-12.407-4.838-12.407-11.687 0-6.803 5.125-11.641 12.407-11.641 7.281 0 12.407 4.838 12.407 11.641 0 6.849-5.126 11.687-12.407 11.687" fill="#302A3D"/><path d="M54.369 35.112V24.143c0-2.394-.048-2.538-.48-3.449-.43-1.005-1.628-1.676-2.873-1.676-2.442 0-3.833 1.63-3.833 4.456v11.638h-7.28V13.413h7.28v2.73c.336-.431.673-.765.958-1.101 1.342-1.39 3.258-2.157 5.654-2.157 2.489 0 4.503.816 5.939 2.397 1.485 1.628 1.915 3.017 1.915 6.036v13.794h-7.28z" fill="#302A3D"/><path fill="#302A3D" d="M64.813 6.9v6.513H61.46v6.372h3.353v15.328h7.326V19.785h5.175v-6.372h-5.175V6.9z"/><mask id="b" fill="#fff"><use xlink:href="#a"/></mask><path d="M78.13 35.113h7.279v-21.7h-7.28v21.7zm3.638-25.772a4.293 4.293 0 01-4.311-4.31A4.292 4.292 0 0181.768.72a4.292 4.292 0 014.313 4.31 4.293 4.293 0 01-4.313 4.31zM87.47 0v35.113h7.28v-8.861l8.001 8.861h10.252l-10.97-11.689 10.347-10.011h-10.014l-7.615 7.808V0z" fill="#302A3D" mask="url(#b)"/><path d="M111.322 35.113h7.283v-21.7h-7.283v21.7zm3.642-25.772a4.294 4.294 0 01-4.312-4.31 4.293 4.293 0 014.312-4.31 4.292 4.292 0 014.312 4.31 4.293 4.293 0 01-4.312 4.31z" fill="#302A3D" mask="url(#b)"/></g></svg>